<?xml version="1.0" encoding="UTF-8"?>
<svg width="80px" height="43px" viewBox="0 0 80 43" version="1.1" xmlns="http://www.w3.org/2000/svg" xmlns:xlink="http://www.w3.org/1999/xlink">
    <title>Group 11 Copy</title>
    <defs>
        <polygon id="path-1" points="0 0 20.3405344 0 20.3405344 42.09074 0 42.09074"></polygon>
        <polygon id="path-3" points="0 0 19.7833218 0 19.7833218 42.09074 0 42.09074"></polygon>
    </defs>
    <g id="Page-2" stroke="none" stroke-width="1" fill="none" fill-rule="evenodd">
        <g id="Group-11-Copy">
            <g id="Group-3" transform="translate(0.000000, 0.000070)">
                <mask id="mask-2" fill="white">
                    <use xlink:href="#path-1"></use>
                </mask>
                <g id="Clip-2"></g>
                <path d="M7.17490429,29.698182 C7.17490429,32.6313556 8.08047142,34.5379184 9.61295418,34.5379184 C10.3095829,34.5379184 11.4240884,33.8779544 12.4689813,32.5580262 L12.4689813,20.7520024 C10.7971728,22.1453603 7.17490429,25.0051042 7.17490429,29.698182 M6.13001141,42.09074 C0.209018755,42.09074 -2.00902302e-05,35.4911999 -2.00902302e-05,33.584637 C-2.00902302e-05,21.852043 7.03557854,18.3322346 12.4689813,14.2991209 L12.4689813,10.2660072 C12.4689813,8.50610304 12.1207172,6.89285755 10.4489087,6.89285755 C7.87153302,6.89285755 7.59288153,9.23939644 7.59288153,12.0259114 L0.487569798,12.0259114 C0.487569798,5.93957612 3.62234887,0 10.9364985,0 C17.9720972,0 19.8529445,6.01290546 19.8529445,9.38605512 L19.8529445,37.9110681 C19.8529445,39.0842371 19.9922703,40.257607 20.3405344,41.3574466 L13.5835873,41.3574466 C12.9566717,40.5509243 12.9566717,38.8643495 12.9566717,38.0577268 C12.0510041,39.0109077 9.54334153,42.09074 6.13001141,42.09074" id="Fill-1" fill="#FFFFFF" mask="url(#mask-2)"></path>
            </g>
            <path d="M28.6443188,29.6982523 C28.6443188,32.6314259 29.5498859,34.5379887 31.0823687,34.5379887 C31.7789974,34.5379887 32.8935029,33.8780247 33.9383958,32.5580966 L33.9383958,20.7520727 C32.2665873,22.1454307 28.6443188,25.0051745 28.6443188,29.6982523 M27.5994259,42.0908104 C21.6784333,42.0908104 21.4693944,35.4912702 21.4693944,33.5847073 C21.4693944,21.8521133 28.5049931,18.332305 33.9383958,14.2991912 L33.9383958,10.2660775 C33.9383958,8.50617335 33.5901317,6.89292786 31.9183232,6.89292786 C29.3409475,6.89292786 29.062296,9.23946676 29.062296,12.0259817 L21.9569843,12.0259817 C21.9569843,5.93964644 25.0916629,7.03158059e-05 32.4059131,7.03158059e-05 C39.4415117,7.03158059e-05 41.322359,6.01297578 41.322359,9.38612544 L41.322359,37.9111384 C41.322359,39.0843074 41.4616848,40.2576773 41.8099489,41.3575169 L35.0530018,41.3575169 C34.4260862,40.5509947 34.4260862,38.8644198 34.4260862,38.0577971 C33.5204186,39.0109781 31.012756,42.0908104 27.5994259,42.0908104" id="Fill-4" fill="#FFFFFF"></path>
            <path d="M43.6546841,41.3575471 L43.6546841,0.806723196 L50.8297089,0.806723196 L50.8297089,4.83973647 C53.2677588,1.61324549 55.1486062,0.0733293404 59.4673025,0 L59.4673025,7.77291008 C58.4921227,7.55292206 57.4473303,7.33293404 56.4720501,7.33293404 C50.8993216,7.33293404 50.8297089,12.4659879 50.8297089,15.1058441 L50.8297089,41.3575471 L43.6546841,41.3575471 Z" id="Fill-6" fill="#FFFFFF"></path>
            <g id="Group-10" transform="translate(60.216678, 0.000060)">
                <mask id="mask-4" fill="white">
                    <use xlink:href="#path-3"></use>
                </mask>
                <g id="Clip-9"></g>
                <path d="M7.31435058,31.6780742 C7.31435058,33.7312957 8.56818185,34.6112478 9.89172622,34.6112478 C11.424209,34.6112478 12.3993888,33.584637 12.3993888,31.6780742 L12.3993888,10.5593246 C12.3993888,8.72609106 11.424209,7.55292206 9.89172622,7.55292206 C8.56818185,7.55292206 7.31435058,8.43277369 7.31435058,10.5593246 L7.31435058,31.6780742 Z M9.89172622,42.09074 C0.139325747,42.09074 0,34.5379184 0,27.131655 L0,15.2524024 C0,7.11284557 0.278751945,0 9.89172622,0 C18.8777849,0 19.783352,6.52621084 19.783352,13.4191688 L19.783352,27.131655 C19.783352,34.5379184 19.6440262,42.09074 9.89172622,42.09074 L9.89172622,42.09074 Z" id="Fill-8" fill="#FFFFFF" mask="url(#mask-4)"></path>
            </g>
        </g>
    </g>
</svg>