<?xml version="1.0" encoding="UTF-8"?>
<svg width="40px" height="40px" viewBox="0 0 40 40" version="1.1" xmlns="http://www.w3.org/2000/svg" xmlns:xlink="http://www.w3.org/1999/xlink">
    <title>communities</title>
    <g id="Page-1" stroke="none" stroke-width="1" fill="none" fill-rule="evenodd">
        <g id="About" transform="translate(-250.000000, -4895.000000)" fill="#0D76BD" fill-rule="nonzero">
            <g id="Values" transform="translate(149.000000, 4311.000000)">
                <g id="communities" transform="translate(101.000000, 584.000000)">
                    <path d="M21.4262978,20.1953305 C22.7362806,19.5095391 23.4089207,18.0181105 23.0558082,16.5822567 C22.7026956,15.1464028 21.4150524,14.1370571 19.9364162,14.1370571 C18.4577801,14.1370571 17.1701368,15.1464028 16.8170243,16.5822567 C16.4639118,18.0181105 17.1365518,19.5095391 18.4465346,20.1953305 C16.6468106,20.8286667 15.4417797,22.5277062 15.4391453,24.4356146 C15.4391453,24.7904394 15.7267877,25.0780818 16.0816126,25.0780818 L23.7912199,25.0780818 C24.1460448,25.0780818 24.4336872,24.7904394 24.4336872,24.4356146 C24.4310528,22.5277062 23.2260218,20.8286667 21.4262978,20.1953305 Z M19.9364162,15.4410727 C21.0008909,15.4410727 21.8638181,16.3039999 21.8638181,17.3684745 C21.8638181,18.4329492 21.0008909,19.2958764 19.9364162,19.2958764 C18.8719416,19.2958764 18.0090144,18.4329492 18.0090144,17.3684745 C18.0090144,16.3039999 18.8719416,15.4410727 19.9364162,15.4410727 L19.9364162,15.4410727 Z M16.7883266,23.7931473 C17.0923373,22.2959904 18.4087051,21.2200578 19.9364162,21.2200578 C21.4641274,21.2200578 22.7804952,22.2959904 23.0845059,23.7931473 L16.7883266,23.7931473 Z" id="Shape"></path>
                    <path d="M33.428229,27.0054837 C31.9465128,27.0043344 30.510384,27.517789 29.365266,28.4581022 L26.2724285,25.3652647 C27.49471,23.9420425 28.1993841,22.1470709 28.2717867,20.2724266 L34.8326625,20.029574 C35.2111742,21.2565497 36.4424128,22.0111893 37.7075321,21.791613 C38.9726513,21.5720368 39.8775874,20.4466389 39.8205044,19.1638755 C39.7634214,17.8811121 38.7620998,16.8405427 37.4824775,16.7342074 C36.2028552,16.6278721 35.0435134,17.4888926 34.7754829,18.7446394 L28.2300263,18.9868496 C27.9462156,16.52391 26.5828669,14.3143531 24.5088558,12.9560093 L25.7366108,10.724078 C27.6313437,11.3854186 29.7167732,10.4845299 30.5340173,8.65163701 C31.3512614,6.81874415 30.6276553,4.66537205 28.8694047,3.69793277 C27.111154,2.73049348 24.9048801,3.27176265 23.7940029,4.94309024 C22.6831256,6.61441783 23.0382773,8.85818351 24.6110081,10.1047395 L23.3826107,12.3379558 C20.4324776,10.9870032 16.9654641,11.4805336 14.5094952,13.6010464 L11.4166577,10.508209 C13.5871262,7.85366473 13.2948377,3.9634716 10.7520797,1.6630542 C8.2093216,-0.637363192 4.30938227,-0.539852468 1.8847649,1.8847649 C-0.539852468,4.30938227 -0.637363192,8.2093216 1.6630542,10.7520797 C3.9634716,13.2948377 7.85366473,13.5871262 10.508209,11.4166577 L13.6010464,14.5094952 C11.9428099,16.4239173 11.2544238,18.9932291 11.7333941,21.4802651 L6.09060399,22.9990577 C5.35023431,21.5623939 3.65174837,20.9072979 2.13841405,21.4747214 C0.625079734,22.0421449 -0.223996815,23.6524475 0.162706323,25.2217183 C0.549409462,26.7909891 2.04946603,27.8224131 3.65317296,27.6217285 C5.25687988,27.4210439 6.45651996,26.0517854 6.44460346,24.4356146 C6.44460346,24.3713678 6.42918424,24.3071211 6.42468697,24.2428744 L12.0713319,22.7227968 C12.7213835,24.5479148 13.98337,26.0916291 15.6428074,27.0915743 L14.2827042,29.806641 C12.0410554,29.0559009 9.60029226,30.164794 8.69115015,32.3470086 C7.78200804,34.5292232 8.71349596,37.0430448 10.8250995,38.1059325 C12.9367031,39.1688202 15.5107079,38.4195083 16.7218973,36.389331 C17.9330867,34.3591536 17.3697887,31.7381492 15.4314357,30.3848615 L16.7883266,27.6697948 C19.681548,28.8559299 22.9957853,28.3163452 25.3633373,26.2737134 L28.4561748,29.3665509 C26.5573152,31.6930242 26.5244283,35.0248451 28.3769952,37.3883471 C30.2295621,39.751849 33.4727901,40.5157762 36.1854922,39.227602 C38.8981943,37.9394277 40.3558487,34.9432041 39.6949864,32.0138003 C39.034124,29.0843965 36.4312515,27.0042123 33.428229,27.0054837 Z M37.2830327,18.0109418 C37.9926824,18.0109418 38.5679672,18.5862266 38.5679672,19.2958764 C38.5679672,20.0055261 37.9926824,20.5808109 37.2830327,20.5808109 C36.5733829,20.5808109 35.9980981,20.0055261 35.9980981,19.2958764 C35.9980981,18.5862266 36.5733829,18.0109418 37.2830327,18.0109418 Z M27.0035563,4.51912903 C28.4228558,4.51912903 29.5734254,5.66969862 29.5734254,7.08899813 C29.5734254,8.50829765 28.4228558,9.65886724 27.0035563,9.65886724 C25.5842567,9.65886724 24.4336872,8.50829765 24.4336872,7.08899813 C24.4336872,5.66969862 25.5842567,4.51912903 27.0035563,4.51912903 Z M3.23226708,26.3630164 C2.16779245,26.3630164 1.30486526,25.5000892 1.30486526,24.4356146 C1.30486526,23.3711399 2.16779245,22.5082127 3.23226708,22.5082127 C4.29674172,22.5082127 5.15966891,23.3711399 5.15966891,24.4356146 C5.15966891,25.5000892 4.29674172,26.3630164 3.23226708,26.3630164 Z M16.0816126,34.0726237 C16.0816126,35.8467481 14.6434006,37.2849601 12.8692762,37.2849601 C11.0951518,37.2849601 9.65693983,35.8467481 9.65693983,34.0726237 C9.65693983,32.2984993 11.0951518,30.8602873 12.8692762,30.8602873 C14.64252,30.8624114 16.0794885,32.2993799 16.0816126,34.0726237 L16.0816126,34.0726237 Z M1.30485043,6.44653086 C1.29937677,4.14989544 2.81820405,2.12834426 5.02558277,1.49427524 C7.2329615,0.860206217 9.59310563,1.76752378 10.8072999,3.71695875 C12.0214941,5.66639373 11.7950231,8.18476947 10.252507,9.88630065 C10.2821498,9.81406637 10.2980553,9.73693554 10.2994071,9.65886724 C10.3026886,8.63596379 9.89641925,7.65430038 9.17123457,6.93287859 C8.91520017,6.67687447 8.62454751,6.45801993 8.30775856,6.2827017 C9.27644991,5.26708879 9.25115169,3.66213711 8.25093212,2.67755936 C7.25071255,1.6929816 5.6455615,1.6929816 4.64534193,2.67755936 C3.64512237,3.66213711 3.61982415,5.26708879 4.5885155,6.2827017 C3.35655914,6.9595108 2.59066126,8.25324058 2.58979981,9.65886724 C2.59110738,9.73612879 2.60634225,9.81252078 2.63477252,9.88437325 C1.77958788,8.94355149 1.30546867,7.71794188 1.30485043,6.44653086 L1.30485043,6.44653086 Z M6.44460346,5.80406358 C5.7349537,5.80406358 5.15966891,5.22877879 5.15966891,4.51912903 C5.15966891,3.80947928 5.7349537,3.23419448 6.44460346,3.23419448 C7.15425321,3.23419448 7.72953801,3.80947928 7.72953801,4.51912903 C7.72953801,4.85991487 7.59416136,5.186743 7.35318939,5.42771497 C7.11221742,5.66868694 6.78538929,5.80406358 6.44460346,5.80406358 Z M6.44460346,7.08899813 C7.61646334,7.08899813 8.63991424,7.88175151 8.93287921,9.01639996 L3.95568523,9.01639996 C4.25010887,7.8824416 5.27304672,7.09028529 6.44460346,7.08899813 Z M3.00740354,10.2563618 C3.07900615,10.2848799 3.15520385,10.3001195 3.23226708,10.3013345 L9.65693983,10.3013345 C9.73518226,10.3002516 9.81253402,10.2845634 9.88501572,10.2550769 C7.9364328,12.0278786 4.95919879,12.0278786 3.01061587,10.2550769 L3.00740354,10.2563618 Z M12.8692762,19.9383436 C12.8692762,16.03527 16.0333426,12.8712036 19.9364162,12.8712036 C23.8394899,12.8712036 27.0035563,16.03527 27.0035563,19.9383436 C27.0035563,23.8414173 23.8394899,27.0054837 19.9364162,27.0054837 C16.0352505,27.0008813 12.8738785,23.8395094 12.8692762,19.9383436 Z M29.9910291,37.2399874 C30.0626317,37.2685055 30.1388294,37.283745 30.2158926,37.2849601 L36.6405654,37.2849601 C36.7188078,37.2838772 36.7961596,37.2681889 36.8686413,37.2387024 C34.9200584,39.0115042 31.9428243,39.0115042 29.9942414,37.2387024 L29.9910291,37.2399874 Z M33.428229,32.7876891 C32.7185793,32.7876891 32.1432945,32.2124043 32.1432945,31.5027546 C32.1432945,30.7931048 32.7185793,30.21782 33.428229,30.21782 C34.1378788,30.21782 34.7131636,30.7931048 34.7131636,31.5027546 C34.7131636,32.2124043 34.1378788,32.7876891 33.428229,32.7876891 Z M33.428229,34.0726237 C34.6000889,34.0726237 35.6235398,34.8653771 35.9165048,36.0000255 L30.9393108,36.0000255 C31.2337344,34.8660672 32.2566723,34.0739108 33.428229,34.0726237 L33.428229,34.0726237 Z M37.2354901,36.8699262 C37.2653531,36.7977343 37.2814768,36.720602 37.2830327,36.6424928 C37.2863142,35.6195893 36.8800448,34.6379259 36.1548601,33.9165041 C35.8988257,33.6605 35.6081731,33.4416455 35.2913841,33.2663273 C36.2600755,32.2507143 36.2347772,30.6457627 35.2345577,29.6611849 C34.2343381,28.6766072 32.6291871,28.6766072 31.6289675,29.6611849 C30.6287479,30.6457627 30.6034497,32.2507143 31.5721411,33.2663273 C30.3401847,33.9431364 29.5742868,35.2368661 29.5734254,36.6424928 C29.5747329,36.7197543 29.5899678,36.7961463 29.6183981,36.8679988 C27.7565638,34.8130964 27.860405,31.6517665 29.8530764,29.7234743 C31.8457479,27.795182 35.0087827,27.795182 37.0014542,29.7234743 C38.9941256,31.6517665 39.0979668,34.8130964 37.2361326,36.8679988 L37.2354901,36.8699262 Z" id="Shape"></path>
                </g>
            </g>
        </g>
    </g>
</svg>