<?xml version="1.0" encoding="UTF-8"?>
<svg width="55px" height="55px" viewBox="0 0 55 55" version="1.1" xmlns="http://www.w3.org/2000/svg" xmlns:xlink="http://www.w3.org/1999/xlink">
    <title>mortarboard</title>
    <g id="Page-1" stroke="none" stroke-width="1" fill="none" fill-rule="evenodd">
        <g id="About" transform="translate(-366.000000, -2121.000000)" fill="#0D76BD" fill-rule="nonzero">
            <g id="Priorities" transform="translate(247.000000, 1892.000000)">
                <g id="mortarboard" transform="translate(119.000000, 229.000000)">
                    <path d="M53.2572422,33.1765594 L7.86041675,33.1765594 C3.52103658,33.1765594 0.0032738969,36.6943221 0.0032738969,41.0337023 C0.0032738969,45.3730825 3.52103658,48.8908452 7.86041675,48.8908452 L12.2254961,48.8908452 L12.2254961,53.2559245 C12.2255715,53.6089686 12.4382741,53.9272161 12.7644485,54.0623101 C13.0906229,54.197404 13.4660567,54.1227489 13.7157342,53.8731467 L17.4635914,50.1252896 L21.2114485,53.8731467 C21.461126,54.1227489 21.8365598,54.197404 22.1627342,54.0623101 C22.4889086,53.9272161 22.7016112,53.6089686 22.7016866,53.2559245 L22.7016866,48.8908452 L53.2572422,48.8908452 C53.7393955,48.8908452 54.130258,48.4999826 54.130258,48.0178293 L54.130258,44.5257658 C54.130258,44.0436124 53.7393955,43.6527499 53.2572422,43.6527499 L51.5112104,43.6527499 L51.5112104,38.4146547 L53.2572422,38.4146547 C53.7393955,38.4146547 54.130258,38.0237922 54.130258,37.5416388 L54.130258,34.0495753 C54.130258,33.567422 53.7393955,33.1765594 53.2572422,33.1765594 Z M18.0808136,48.2736229 C17.739901,47.9328133 17.1872817,47.9328133 16.8463691,48.2736229 L13.9715279,51.1484642 L13.9715279,42.942115 C13.9715279,42.5370356 13.9715279,42.1991785 13.9715279,41.9058452 L20.9556548,41.9058452 L20.9556548,51.1484642 L18.0808136,48.2736229 Z M52.3842263,47.1448134 L22.7016866,47.1448134 L22.7016866,45.3987817 L52.3842263,45.3987817 L52.3842263,47.1448134 Z M22.7016866,43.6527499 L22.7016866,41.9067182 L49.7651787,41.9067182 L49.7651787,43.6527499 L22.7016866,43.6527499 Z M49.7651787,40.1606864 L10.4794644,40.1606864 L10.4794644,41.9067182 L12.2254961,41.9067182 L12.2254961,43.6527499 L7.86041675,43.6527499 C6.41395669,43.6527499 5.24136913,42.4801624 5.24136913,41.0337023 C5.24136913,39.5872422 6.41395669,38.4146547 7.86041675,38.4146547 L49.7651787,38.4146547 L49.7651787,40.1606864 Z M52.3842263,36.6686229 L7.86041675,36.6686229 C5.44964999,36.6686229 3.49533739,38.6229355 3.49533739,41.0337023 C3.49533739,43.4444691 5.44964999,45.3987817 7.86041675,45.3987817 L12.2254961,45.3987817 L12.2254961,47.1448134 L7.86041675,47.1448134 C4.48534328,47.1448134 1.74930564,44.4087758 1.74930564,41.0337023 C1.74930564,37.6586288 4.48534328,34.9225912 7.86041675,34.9225912 L52.3842263,34.9225912 L52.3842263,36.6686229 Z" id="Shape"></path>
                    <path d="M0.600416754,10.4336229 L8.73343263,13.1443372 L8.73343263,25.3194166 C8.7334909,25.6258324 8.89418867,25.909787 9.15684533,26.0675912 L10.4008929,26.8140198 C15.4353609,29.8342882 21.19583,31.4299593 27.066766,31.4305277 C32.937702,31.4299593 38.698171,29.8342882 43.732639,26.8140198 L44.9766866,26.0675912 C45.2393433,25.909787 45.400041,25.6258324 45.4000993,25.3194166 L45.4000993,13.1443372 L49.7651787,11.6898928 L49.7651787,19.0677499 L47.1906548,26.7895753 C47.1019772,27.0558212 47.1466929,27.3484643 47.3108321,27.57608 C47.4749714,27.8036956 47.7385216,27.9385318 48.0191469,27.9384642 L53.2572422,27.9384642 C53.5377135,27.9382513 53.8010038,27.8032989 53.9649393,27.575726 C54.1288747,27.3481532 54.1734903,27.0556752 54.0848612,26.7895753 L51.5112104,19.0677499 L51.5112104,11.1075912 L53.5331152,10.4336229 C53.8913787,10.3158674 54.1335319,9.98137731 54.1335319,9.60425785 C54.1335319,9.22713839 53.8913787,8.89264828 53.5331152,8.77489277 L27.342639,0.0447340408 C27.1635595,-0.0149113469 26.9699724,-0.0149113469 26.7908929,0.0447340408 L0.600416754,8.77489277 C0.24215327,8.89264828 0,9.22713839 0,9.60425785 C0,9.98137731 0.24215327,10.3158674 0.600416754,10.4336229 Z M49.2300199,26.1924325 L50.6381945,21.9687817 L52.0454961,26.1924325 L49.2300199,26.1924325 Z M43.6540675,24.8252896 L42.8343056,25.3194166 C38.070816,28.1756699 32.6209551,29.6844959 27.066766,29.6844959 C21.5125768,29.6844959 16.062716,28.1756699 11.2992263,25.3194166 L10.4794644,24.8252896 L10.4794644,13.7266388 L26.7908929,19.1637817 C26.9699724,19.223427 27.1635595,19.223427 27.342639,19.1637817 L43.6540675,13.7266388 L43.6540675,24.8252896 Z M27.066766,1.79513087 L50.496766,9.60513087 L27.066766,17.4151309 L3.63676596,9.60513087 L27.066766,1.79513087 Z" id="Shape"></path>
                </g>
            </g>
        </g>
    </g>
</svg>