<?xml version="1.0" encoding="UTF-8"?>
<svg width="40px" height="40px" viewBox="0 0 40 40" version="1.1" xmlns="http://www.w3.org/2000/svg" xmlns:xlink="http://www.w3.org/1999/xlink">
    <title>team</title>
    <g id="Page-1" stroke="none" stroke-width="1" fill="none" fill-rule="evenodd">
        <g id="About" transform="translate(-250.000000, -4826.000000)" fill="#0D76BD" fill-rule="nonzero">
            <g id="Values" transform="translate(149.000000, 4311.000000)">
                <g id="team" transform="translate(101.000000, 515.000000)">
                    <path d="M19.9171394,7.70960726 C22.0428026,7.70960726 23.7719431,5.98046682 23.7719431,3.85480361 C23.7719431,1.72882671 22.0428026,0 19.9171394,0 C17.7911625,0 16.0623358,1.72882671 16.0623358,3.85480361 C16.0623358,5.98046682 17.7911625,7.70960726 19.9171394,7.70960726 Z M19.9171394,1.28493451 C21.3344574,1.28493451 22.4870085,2.43748571 22.4870085,3.85480361 C22.4870085,5.27212159 21.3344574,6.42467271 19.9171394,6.42467271 C18.4998215,6.42467271 17.3472703,5.27212159 17.3472703,3.85480361 C17.3472703,2.43748571 18.4998215,1.28493451 19.9171394,1.28493451 Z" id="Shape"></path>
                    <path d="M26.9648298,32.6096061 L23.7719431,19.837432 L23.7719431,14.4003016 L30.6508603,7.52138443 C30.901824,7.27010696 30.901824,6.86385932 30.6508603,6.61289555 L28.0809912,4.04302644 C27.9561367,3.91754456 27.787991,3.84319656 27.6079245,3.85480361 C27.4313087,3.85982289 27.2644178,3.93762166 27.1467785,4.07000509 L22.1984002,9.63700909 L17.635565,9.63700909 L12.6871867,4.07000509 C12.5698611,3.93824911 12.4032839,3.85982289 12.2260407,3.85480361 C12.0538168,3.84507882 11.8778285,3.91754456 11.7532877,4.04239908 L9.18341858,6.61226818 C8.93214111,6.86323196 8.93214111,7.26947959 9.18341858,7.52075706 L16.0623358,14.4003016 L16.0623358,19.837432 L12.8691354,32.6096061 C12.8208249,32.8015934 12.8641162,33.0045603 12.9861473,33.1607853 C13.1081784,33.3170103 13.294519,33.4082983 13.4924667,33.4082983 L16.704803,33.4082983 C16.9962348,33.4082983 17.2522178,33.2116055 17.3259385,32.9289574 L19.9171394,23.083021 L22.5080268,32.9289574 C22.5820611,33.2116055 22.8377304,33.4082983 23.1294758,33.4082983 L26.3418122,33.4082983 C26.5394462,33.4082983 26.7264142,33.3170103 26.847818,33.1607853 C26.9695354,33.0045603 27.0131404,32.8015934 26.9648298,32.6096061 Z M23.6248156,32.1233637 L20.5382749,20.3955126 C20.4645542,20.1128647 20.2085712,19.9164855 19.9171394,19.9164855 C19.6253941,19.9164855 19.3697247,20.1128647 19.2956904,20.3955126 L16.2094633,32.1233637 L14.3153142,32.1233637 L17.3271932,20.0723968 C17.3406825,20.0209492 17.3472703,19.9691879 17.3472703,19.9164855 L17.3472703,14.13428 C17.3472703,13.9639384 17.2798239,13.8001845 17.1590475,13.6800356 L10.5461519,7.06713999 L12.1799261,5.43336578 L16.8673021,10.7067422 C16.9887059,10.8435175 17.1640668,10.9219436 17.3472703,10.9219436 L22.4870085,10.9219436 C22.6698984,10.9219436 22.8452594,10.8435175 22.9666631,10.7067422 L27.6543527,5.43336578 L29.2881269,7.06713999 L22.6752314,13.6800356 C22.5544551,13.8001845 22.4870085,13.9639384 22.4870085,14.13428 L22.4870085,19.9164855 C22.4870085,19.9691879 22.4932827,20.0209492 22.5061446,20.0723968 L25.518651,32.1233637 L23.6248156,32.1233637 Z" id="Shape"></path>
                    <path d="M10.9225976,32.0101163 L10.9225976,25.9311462 L13.9865516,22.2548405 C14.098858,22.1199475 14.1515604,21.9439591 14.1308558,21.7692256 C14.1110925,21.5944921 14.0191769,21.4351301 13.8776962,21.3297253 L11.3078271,19.4023235 C11.1666599,19.2956639 10.9881619,19.2545686 10.8140558,19.282802 C10.6399496,19.3126039 10.4856069,19.4133032 10.3880447,19.5598032 L8.00890809,23.1288219 L6.12636606,23.1288219 L3.74754312,19.5598032 C3.64966724,19.4126757 3.49501084,19.3126039 3.32153214,19.282802 C3.14617118,19.2545686 2.96861435,19.2962913 2.82744718,19.4023235 L0.257578082,21.3297253 C0.116097231,21.4351301 0.0248092168,21.5944921 0.00441838965,21.7692256 C-0.0162861221,21.9439591 0.0364162715,22.1199475 0.149036288,22.2548405 L3.21299027,25.9311462 L3.21299027,32.0101163 L0.682334319,38.9705967 C0.610182192,39.167917 0.639670476,39.3868829 0.759191956,39.5591068 C0.879340885,39.7307033 1.07603377,39.832971 1.28558844,39.832971 L4.49792482,39.832971 C4.76833833,39.832971 5.00926356,39.6638842 5.10117902,39.4100971 L7.06779392,34.0030824 L9.0344089,39.4100971 C9.12601067,39.6638842 9.3669359,39.832971 9.63766302,39.832971 L12.8499994,39.832971 C13.0592405,39.832971 13.2559333,39.7307033 13.3760823,39.5591068 C13.4962312,39.3875104 13.525092,39.167917 13.4532536,38.9705967 L10.9225976,32.0101163 Z M10.0872019,38.5480365 L7.67104812,31.9034567 C7.57913266,31.6496696 7.33820743,31.4808964 7.06779392,31.4808964 C6.7970668,31.4808964 6.55614157,31.6496696 6.46453979,31.9034567 L4.04807228,38.5480365 L2.20286114,38.5480365 L4.4593392,32.3429571 C4.48443558,32.2723735 4.49792482,32.1983392 4.49792482,32.1233637 L4.49792482,25.698691 C4.49792482,25.5481127 4.44522242,25.4031812 4.3495425,25.2874241 L1.57011865,21.9524292 L3.05551054,20.8384637 L5.24893397,24.1282852 C5.36782808,24.3064694 5.56828542,24.4137564 5.78285937,24.4137564 L8.35272847,24.4137564 C8.56730258,24.4137564 8.76775984,24.3064694 8.88728132,24.1276577 L11.0803911,20.8375226 L12.565783,21.9518017 L9.78667278,25.2867967 C9.69036541,25.4031812 9.63766302,25.5481127 9.63766302,25.698691 L9.63766302,32.1233637 C9.63766302,32.1983392 9.65115234,32.2723735 9.67687617,32.3429571 L11.9324131,38.5480365 L10.0872019,38.5480365 Z" id="Shape"></path>
                    <path d="M7.06779392,20.5589528 C8.83897083,20.5589528 10.2801303,19.1177933 10.2801303,17.3466164 C10.2801303,15.5751259 8.83897083,14.13428 7.06779392,14.13428 C5.2963034,14.13428 3.85545754,15.5751259 3.85545754,17.3466164 C3.85545754,19.1177933 5.2963034,20.5589528 7.06779392,20.5589528 Z M7.06779392,15.4192146 C8.13031184,15.4192146 8.99519574,16.2837849 8.99519574,17.3466164 C8.99519574,18.4091343 8.13031184,19.2740182 7.06779392,19.2740182 C6.00496239,19.2740182 5.14039209,18.4091343 5.14039209,17.3466164 C5.14039209,16.2837849 6.00496239,15.4192146 7.06779392,15.4192146 Z" id="Shape"></path>
                    <path d="M39.6852426,22.2548405 C39.797549,22.1199475 39.8502514,21.9439591 39.8295468,21.7692256 C39.8097835,21.5944921 39.7178679,21.4351301 39.5763872,21.3297253 L37.0065181,19.4023235 C36.8653509,19.2956639 36.6859118,19.2545686 36.5127468,19.282802 C36.3386406,19.3126039 36.1842979,19.4133032 36.0867357,19.5598032 L33.7075991,23.1288219 L31.8250571,23.1288219 L29.4462341,19.5598032 C29.3483582,19.4126757 29.1937018,19.3126039 29.0202231,19.282802 C28.8448622,19.2545686 28.6673054,19.2962913 28.5261382,19.4023235 L25.9562691,21.3297253 C25.8147882,21.4351301 25.7235002,21.5944921 25.7031094,21.7692256 C25.6824049,21.9439591 25.7351073,22.1199475 25.8477273,22.2548405 L28.9116813,25.9311462 L28.9116813,32.0101163 L26.3810253,38.9705967 C26.3088732,39.167917 26.3383615,39.3868829 26.457883,39.5591068 C26.5780319,39.7307033 26.7747248,39.832971 26.9842794,39.832971 L30.1966158,39.832971 C30.4670293,39.832971 30.7079546,39.6638842 30.79987,39.4100971 L32.7664849,34.0030824 L34.7330999,39.4100971 C34.8247017,39.6638842 35.0656269,39.832971 35.336354,39.832971 L38.5486904,39.832971 C38.7579315,39.832971 38.9546244,39.7307033 39.0747733,39.5591068 C39.1949222,39.3875104 39.223783,39.167917 39.1519446,38.9705967 L36.6212886,32.0101163 L36.6212886,25.9311462 L39.6852426,22.2548405 Z M35.3755672,32.3429571 L37.6311041,38.5480365 L35.785893,38.5480365 L33.3697391,31.9034567 C33.2778237,31.6496696 33.0368984,31.4808964 32.7664849,31.4808964 C32.4957578,31.4808964 32.2548326,31.6496696 32.1632308,31.9034567 L29.7467633,38.5480365 L27.9015521,38.5480365 L30.1580302,32.3429571 C30.1831266,32.2723735 30.1966158,32.1983392 30.1966158,32.1233637 L30.1966158,25.698691 C30.1966158,25.5481127 30.1439134,25.4031812 30.0482335,25.2874241 L27.2688097,21.9524292 L28.7542015,20.8384637 L30.947625,24.1282852 C31.0665191,24.3064694 31.2669764,24.4137564 31.4815504,24.4137564 L34.0514195,24.4137564 C34.2659936,24.4137564 34.4664508,24.3064694 34.5859723,24.1276577 L36.7790821,20.8375226 L38.264474,21.9518017 L35.4853638,25.2867967 C35.3890564,25.4031812 35.336354,25.5481127 35.336354,25.698691 L35.336354,32.1233637 C35.336354,32.1983392 35.3498433,32.2723735 35.3755672,32.3429571 L35.3755672,32.3429571 Z" id="Shape"></path>
                    <path d="M29.5541485,17.3466164 C29.5541485,19.1177933 30.9949944,20.5589528 32.7664849,20.5589528 C34.5376618,20.5589528 35.9788213,19.1177933 35.9788213,17.3466164 C35.9788213,15.5751259 34.5376618,14.13428 32.7664849,14.13428 C30.9949944,14.13428 29.5541485,15.5751259 29.5541485,17.3466164 Z M32.7664849,15.4192146 C33.8290028,15.4192146 34.6938867,16.2837849 34.6938867,17.3466164 C34.6938867,18.4091343 33.8290028,19.2740182 32.7664849,19.2740182 C31.7036534,19.2740182 30.8390831,18.4091343 30.8390831,17.3466164 C30.8390831,16.2837849 31.7036534,15.4192146 32.7664849,15.4192146 Z" id="Shape"></path>
                </g>
            </g>
        </g>
    </g>
</svg>