<?xml version="1.0" encoding="UTF-8"?>
<svg width="40px" height="40px" viewBox="0 0 40 40" version="1.1" xmlns="http://www.w3.org/2000/svg" xmlns:xlink="http://www.w3.org/1999/xlink">
    <title>coaching</title>
    <g id="Page-1" stroke="none" stroke-width="1" fill="none" fill-rule="evenodd">
        <g id="About" transform="translate(-250.000000, -4970.000000)" fill="#0D76BD" fill-rule="nonzero">
            <g id="Values" transform="translate(149.000000, 4311.000000)">
                <g id="Group-5" transform="translate(101.000000, 654.000000)">
                    <g id="coaching" transform="translate(0.000000, 5.000000)">
                        <path d="M7.70960881,8.99343732 L7.17893084,8.99343732 L9.63701064,6.12610587 L12.0950904,8.99343732 L11.5644125,8.99343732 C11.2095876,8.99343732 10.9219452,9.28107972 10.9219452,9.63590459 L10.9219452,11.5633064 L12.2068797,11.5633064 L12.2068797,10.2783719 L13.4918143,10.2783719 C13.7427397,10.2783524 13.9706908,10.1322485 14.0755015,9.90426103 C14.1803122,9.67627356 14.1427994,9.4081303 13.9794469,9.2176584 L10.1246433,4.72038747 C9.99900792,4.58430273 9.82222215,4.50690821 9.63701064,4.50690821 C9.45179912,4.50690821 9.27501335,4.58430273 9.14937797,4.72038747 L5.29457432,9.2176584 C5.13122187,9.4081303 5.09370909,9.67627356 5.1985198,9.90426103 C5.30333052,10.1322485 5.53128155,10.2783524 5.78220698,10.2783719 L7.06714154,10.2783719 L7.06714154,14.1331755 L8.35207609,14.1331755 L8.35207609,9.63590459 C8.35207609,9.28107972 8.06443369,8.99343732 7.70960881,8.99343732 Z" id="Path"></path>
                        <rect id="Rectangle" x="10.9219452" y="12.848241" width="1.28493455" height="1.28493455"></rect>
                        <path d="M7.54219105e-07,30.1948574 C-0.00203497241,35.3903895 4.11718059,39.6511123 9.30981921,39.824495 C14.5024578,39.9978777 18.8967136,36.0214205 19.2412539,30.8373247 L21.8753698,30.8373247 C22.2151099,35.2693444 25.9680623,38.6579049 30.4116445,38.5447723 C34.8552268,38.4316397 38.4308847,34.8564943 38.5446544,30.4129283 C38.6584241,25.9693624 35.2704017,22.2159242 30.8384307,21.8755487 L30.8384307,19.2414328 C35.9810638,18.9007581 39.9441147,14.571982 39.8306981,9.41932533 C39.7172816,4.26666864 35.5675975,0.11646424 30.4149551,0.00240159926 C25.2623127,-0.111661041 20.9330398,3.850847 20.5917201,8.99343732 L17.9576043,8.99343732 C17.6178642,4.56141761 13.8649118,1.17285707 9.42132954,1.28598969 C4.9777473,1.39912232 1.40208935,4.97426767 1.28831965,9.41783364 C1.17454995,13.8613996 4.5625724,17.6148378 8.99454336,17.9552133 L8.99454336,20.5893292 C3.93771626,20.9294134 0.0074912922,25.126613 7.54219105e-07,30.1948574 Z M17.9563194,10.2783719 L20.5904352,10.2783719 C20.9170679,15.0865247 24.7452965,18.9142046 29.5534962,19.2401479 L29.5534962,21.8742637 C25.4531003,22.1943524 22.1960571,25.4519408 21.8766547,29.5523901 L19.2425389,29.5523901 C18.9159062,24.7442372 15.0876776,20.9165574 10.2794779,20.5906141 L10.2794779,17.9564983 C14.3798738,17.6364096 17.6369169,14.3788212 17.9563194,10.2783719 L17.9563194,10.2783719 Z M32.1233653,8.99343732 C32.1233653,10.057912 31.2604381,10.9208391 30.1959634,10.9208391 C29.1314888,10.9208391 28.2685616,10.057912 28.2685616,8.99343732 L28.2685616,7.70850277 L29.4025164,7.70850277 C30.221867,7.71121502 31.0053754,7.37276542 31.5650612,6.77435535 L32.1233653,7.33265941 L32.1233653,8.99343732 Z M29.5534962,12.141527 C29.9774367,12.2280635 30.4144902,12.2280635 30.8384307,12.141527 L30.8384307,12.2057737 C30.8384307,12.5605986 30.5507883,12.848241 30.1959634,12.848241 C29.8411386,12.848241 29.5534962,12.5605986 29.5534962,12.2057737 L29.5534962,12.141527 Z M33.4082998,8.99343732 L33.4082998,8.35097004 C33.7631247,8.35097004 34.0507671,8.63861244 34.0507671,8.99343732 C34.0507671,9.3482622 33.7631247,9.63590459 33.4082998,9.63590459 L33.3440531,9.63590459 C33.3869913,9.42445003 33.4085156,9.20920729 33.4082998,8.99343732 L33.4082998,8.99343732 Z M33.4083,7.06603549 C33.4084339,6.89543389 33.3407088,6.73178398 33.2200569,6.61116866 L31.9351224,5.32623411 C31.7889892,5.18067476 31.5818562,5.11412676 31.3782887,5.14733371 C31.1747212,5.18054066 30.9994745,5.30946433 30.9071747,5.49391807 C30.6242844,6.06569221 30.0404383,6.42642032 29.4025164,6.42356822 L27.6260943,6.42356822 C27.2712695,6.42356822 26.9836271,6.71121062 26.9836271,7.06603549 L26.9836271,5.78110094 C26.9836271,4.71662631 27.8465543,3.85369912 28.9110289,3.85369912 L31.480898,3.85369912 C31.8357229,3.85369912 32.1233653,4.14134152 32.1233653,4.49616639 C32.1233653,4.66655931 32.1910536,4.82997337 32.3115396,4.95045936 C32.4320256,5.07094535 32.5954396,5.13863367 32.7658325,5.13863367 C33.1206574,5.13863367 33.4083,5.42627607 33.4083,5.78110094 L33.4083,7.06603549 Z M26.9836271,8.35097004 L26.9836271,8.99343732 C26.9834113,9.20920729 27.0049356,9.42445003 27.0478738,9.63590459 L26.9836271,9.63590459 C26.6288022,9.63590459 26.3411598,9.3482622 26.3411598,8.99343732 C26.3411598,8.63861244 26.6288022,8.35097004 26.9836271,8.35097004 L26.9836271,8.35097004 Z M28.2685616,12.0265253 L28.2685616,12.2057737 C28.2685616,13.2702483 29.1314888,14.1331755 30.1959634,14.1331755 C31.2604381,14.1331755 32.1233653,13.2702483 32.1233653,12.2057737 L32.1233653,12.0265253 L32.6617528,12.2057737 C33.4917019,12.4818191 34.0514469,13.2585236 34.0507677,14.1331755 L34.0507677,17.0377701 C33.8413228,17.147632 33.6280236,17.2517117 33.4082998,17.3435845 L33.4082998,14.7756428 L32.1233653,14.7756428 L32.1233653,17.7547636 C30.857244,18.0657227 29.5346828,18.0657227 28.2685616,17.7547636 L28.2685616,14.7756428 L26.9836271,14.7756428 L26.9836271,17.3455119 C26.7639033,17.2536391 26.5506041,17.1527717 26.3411592,17.0396975 L26.3411592,14.1331755 C26.34048,13.2585236 26.900225,12.4818191 27.730174,12.2057737 L28.2685616,12.0265253 Z M7.70960881,38.3137164 L7.70960881,35.3345956 L6.42467426,35.3345956 L6.42467426,37.9044647 C6.20495045,37.8125919 5.99165132,37.7117245 5.78220637,37.5986503 L5.78220637,34.6921283 C5.78152716,33.8174764 6.34127221,33.0407719 7.17122123,32.7647265 L7.70960881,32.5854781 L7.70960881,32.7647265 C7.70960881,33.8292011 8.572536,34.6921283 9.63701064,34.6921283 C10.7014853,34.6921283 11.5644125,33.8292011 11.5644125,32.7647265 L11.5644125,32.5854781 L12.1028,32.7647265 C12.9327491,33.0407719 13.4924941,33.8174764 13.4918149,34.6921283 L13.4918149,37.5967229 C13.28237,37.7065848 13.0690708,37.8106645 12.849347,37.9025373 L12.849347,35.3345956 L11.5644125,35.3345956 L11.5644125,38.3137164 C10.2982912,38.6246755 8.97573004,38.6246755 7.70960881,38.3137164 Z M11.5644125,29.5523901 C11.5644125,30.6168648 10.7014853,31.4797919 9.63701064,31.4797919 C8.572536,31.4797919 7.70960881,30.6168648 7.70960881,29.5523901 L7.70960881,28.2674556 L8.84356355,28.2674556 C9.66291415,28.2701678 10.4464226,27.9317182 11.0061084,27.3333082 L11.5644125,27.8916122 L11.5644125,29.5523901 Z M8.99454336,32.7004798 C9.4184839,32.7870163 9.85553737,32.7870163 10.2794779,32.7004798 L10.2794779,32.7647265 C10.2794779,33.1195514 9.99183551,33.4071938 9.63701064,33.4071938 C9.28218576,33.4071938 8.99454336,33.1195514 8.99454336,32.7647265 L8.99454336,32.7004798 Z M12.849347,29.5523901 L12.849347,28.9099228 C13.2041719,28.9099228 13.4918143,29.1975652 13.4918143,29.5523901 C13.4918143,29.907215 13.2041719,30.1948574 12.849347,30.1948574 L12.7851003,30.1948574 C12.8280385,29.9834028 12.8495628,29.7681601 12.849347,29.5523901 L12.849347,29.5523901 Z M12.8493472,27.6249883 C12.8494811,27.4543867 12.781756,27.2907368 12.6611041,27.1701215 L11.3761695,25.8851869 C11.2300363,25.7396276 11.0229034,25.6730796 10.8193359,25.7062865 C10.6157684,25.7394935 10.4405217,25.8684171 10.3482219,26.0528709 C10.0653316,26.624645 9.48148554,26.9853731 8.84356355,26.982521 L7.06714154,26.982521 C6.71231666,26.982521 6.42467426,27.2701634 6.42467426,27.6249883 L6.42467426,26.3400537 C6.42467426,25.2755791 7.28760145,24.4126519 8.35207609,24.4126519 L10.9219452,24.4126519 C11.2767701,24.4126519 11.5644125,24.7002943 11.5644125,25.0551192 C11.5644125,25.4099441 11.8520549,25.6975865 12.2068797,25.6975865 C12.5617046,25.6975865 12.8493472,25.9852289 12.8493472,26.3400537 L12.8493472,27.6249883 Z M6.42467426,28.9099228 L6.42467426,29.5523901 C6.42445848,29.7681601 6.44598275,29.9834028 6.48892099,30.1948574 L6.42467426,30.1948574 C6.06984938,30.1948574 5.78220698,29.907215 5.78220698,29.5523901 C5.78220698,29.1975652 6.06984938,28.9099228 6.42467426,28.9099228 L6.42467426,28.9099228 Z M14.7767488,36.7647278 L14.7767488,34.6921283 C14.7792085,33.2635496 13.8651995,31.9944525 12.5094818,31.5440387 L12.3116019,31.4797919 L12.849347,31.4797919 C13.6473747,31.4826919 14.3640248,30.9917352 14.649545,30.2465274 C14.9350653,29.5013195 14.7299414,28.6571927 14.1342816,28.1261128 L14.1342816,26.3400537 C14.1343447,25.4910669 13.578886,24.7420194 12.7664687,24.4955302 C12.5199795,23.6831129 11.7709321,23.1276542 10.9219452,23.1277174 L8.35207609,23.1277174 C6.57883226,23.1298414 5.14186378,24.5668099 5.13973971,26.3400537 L5.13973971,28.1261128 C4.54407989,28.6571927 4.338956,29.5013195 4.62447625,30.2465274 C4.9099965,30.9917352 5.6266466,31.4826919 6.42467426,31.4797919 L6.96241937,31.4797919 L6.76453945,31.5440387 C5.40882176,31.9944525 4.49481281,33.2635496 4.49727243,34.6921283 L4.49727243,36.7647278 C1.68705986,34.5707384 0.579357395,30.8348124 1.73949149,27.4636148 C2.89962558,24.0924173 6.07177799,21.8293226 9.63701064,21.8293226 C13.2022433,21.8293226 16.3743957,24.0924173 17.5345298,27.4636148 C18.6946639,30.8348124 17.5869614,34.5707384 14.7767488,36.7647278 L14.7767488,36.7647278 Z M37.2631035,30.1948574 C37.2631035,34.0979311 34.0990371,37.2619974 30.1959634,37.2619974 C26.2928898,37.2619974 23.1288234,34.0979311 23.1288234,30.1948574 C23.1288234,26.2917837 26.2928898,23.1277174 30.1959634,23.1277174 C34.0971292,23.1323197 37.2585012,26.2936917 37.2631035,30.1948574 L37.2631035,30.1948574 Z M30.1959634,1.28382523 C33.7597761,1.28002656 36.9325201,3.54032574 38.0931279,6.90986048 C39.2537358,10.2793952 38.1459194,14.0140973 35.3357016,16.2057749 L35.3357016,14.1331755 C35.3381613,12.7045968 34.4241523,11.4354997 33.0684346,10.9850859 L32.8705547,10.9208391 L33.4082998,10.9208391 C34.2063275,10.9237391 34.9229776,10.4327824 35.2084978,9.68757455 C35.4940181,8.9423667 35.2888942,8.09823993 34.6932344,7.56715997 L34.6932344,5.78110094 C34.6932976,4.93211407 34.1378388,4.18306659 33.3254215,3.9365774 C33.0789323,3.12416014 32.3298849,2.56870138 31.480898,2.56876457 L28.9110289,2.56876457 C27.1377851,2.57088864 25.7008166,4.00785712 25.6986925,5.78110094 L25.6986925,7.56715997 C25.1030327,8.09823993 24.8979088,8.9423667 25.1834291,9.68757455 C25.4689493,10.4327824 26.1855994,10.9237391 26.9836271,10.9208391 L27.5213722,10.9208391 L27.3234923,10.9850859 C25.9677746,11.4354997 25.0537656,12.7045968 25.0562252,14.1331755 L25.0562252,16.2057749 C22.2460074,14.0140973 21.1381911,10.2793952 22.298799,6.90986048 C23.4594068,3.54032574 26.6321508,1.28002656 30.1959634,1.28382523 L30.1959634,1.28382523 Z M2.56987061,9.63590459 C2.56987061,5.73283093 5.73393697,2.56876457 9.63701064,2.56876457 C13.5400843,2.56876457 16.7041507,5.73283093 16.7041507,9.63590459 C16.7041507,13.5389783 13.5400843,16.7030446 9.63701064,16.7030446 C5.73584491,16.6984423 2.57447292,13.5370703 2.56987061,9.63590459 Z" id="Shape"></path>
                        <path d="M28.2685616,25.0551192 L28.2685616,25.4303201 L28.1901806,25.4630859 L27.9248416,25.1977469 C27.6739582,24.9469393 27.2672763,24.9469393 27.0163929,25.1977469 L25.198853,27.0146444 C25.0782124,27.1351509 25.0104259,27.2986732 25.0104259,27.46919 C25.0104259,27.6397067 25.0782124,27.8032291 25.198853,27.9237356 L25.464192,28.1884321 L25.4314261,28.2674556 L25.0562252,28.2674556 C24.7014004,28.2674556 24.413758,28.555098 24.413758,28.9099228 L24.413758,31.4797919 C24.413758,31.8346168 24.7014004,32.1222592 25.0562252,32.1222592 L25.4314261,32.1222592 L25.464192,32.2012827 L25.198853,32.4659792 C25.0782124,32.5864857 25.0104259,32.7500081 25.0104259,32.9205248 C25.0104259,33.0910416 25.0782124,33.2545639 25.198853,33.3750704 L27.0163929,35.1919679 C27.2672763,35.4427755 27.6739582,35.4427755 27.9248416,35.1919679 L28.1901806,34.9266289 L28.2685616,34.9593947 L28.2685616,35.3345956 C28.2685616,35.6894205 28.556204,35.9770629 28.9110289,35.9770629 L31.480898,35.9770629 C31.8357229,35.9770629 32.1233653,35.6894205 32.1233653,35.3345956 L32.1233653,34.9593947 L32.2017463,34.9266289 L32.4670853,35.1919679 C32.7179686,35.4427755 33.1246506,35.4427755 33.375534,35.1919679 L35.1930739,33.3750704 C35.3137145,33.2545639 35.381501,33.0910416 35.381501,32.9205248 C35.381501,32.7500081 35.3137145,32.5864857 35.1930739,32.4659792 L34.9277349,32.2012827 L34.9605008,32.1222592 L35.3357016,32.1222592 C35.6905265,32.1222592 35.9781689,31.8346168 35.9781689,31.4797919 L35.9781689,28.9099228 C35.9781689,28.555098 35.6905265,28.2674556 35.3357016,28.2674556 L34.9605008,28.2674556 L34.9277349,28.1884321 L35.1930739,27.9237356 C35.3137145,27.8032291 35.381501,27.6397067 35.381501,27.46919 C35.381501,27.2986732 35.3137145,27.1351509 35.1930739,27.0146444 L33.375534,25.1977469 C33.1246506,24.9469393 32.7179686,24.9469393 32.4670853,25.1977469 L32.2017463,25.4630859 L32.1233653,25.4303201 L32.1233653,25.0551192 C32.1233653,24.7002943 31.8357229,24.4126519 31.480898,24.4126519 L28.9110289,24.4126519 C28.556204,24.4126519 28.2685616,24.7002943 28.2685616,25.0551192 Z M29.5534962,25.8864719 L29.5534962,25.6975865 L30.8384307,25.6975865 L30.8384307,25.8864719 C30.8385806,26.1706477 31.0254044,26.4209654 31.2977948,26.5019555 C31.5514292,26.576968 31.7966502,26.6779413 32.029565,26.8032727 C32.2796056,26.938424 32.5887349,26.8932175 32.7896038,26.6921258 L32.9180973,26.5636324 L33.8271885,27.4720811 L33.6948402,27.6037869 C33.4933479,27.8050251 33.4483715,28.1148913 33.5843358,28.3651106 C33.7097502,28.5979862 33.8107271,28.8432159 33.885653,29.0968808 C33.9668766,29.3690167 34.217138,29.5555372 34.5011366,29.5556025 L34.6932344,29.5556025 L34.6932344,30.840537 L34.504349,30.840537 C34.2203503,30.8406022 33.9700889,31.0271227 33.8888653,31.2992586 C33.8139394,31.5529236 33.7129625,31.7981533 33.5875482,32.0310289 C33.4515838,32.2812482 33.4965602,32.5911144 33.6980526,32.7923526 L33.8304008,32.9240584 L32.9213096,33.8325071 L32.7928162,33.7040137 C32.5919472,33.502922 32.2828179,33.4577154 32.0327774,33.5928668 C31.7998625,33.7181982 31.5546416,33.8191715 31.3010072,33.894184 C31.0286167,33.9751741 30.841793,34.2254918 30.8416431,34.5096676 L30.8416431,34.6921283 L29.5534962,34.6921283 L29.5534962,34.5032429 C29.5533462,34.2190671 29.3665225,33.9687494 29.0941321,33.8877593 C28.8404977,33.8127468 28.5952767,33.7117735 28.3623618,33.5864421 C28.1123213,33.4512908 27.803192,33.4964973 27.602323,33.6975865 L27.4738296,33.8260824 L26.5647384,32.9176337 L26.6970867,32.7859279 C26.898579,32.5846897 26.9435554,32.2748235 26.807591,32.0246042 C26.6821767,31.7917286 26.5811998,31.5464989 26.5062739,31.292834 C26.423546,31.0208288 26.1718798,30.8355418 25.8875779,30.8373247 L25.6986925,30.8373247 L25.6986925,29.5523901 L25.8875779,29.5523901 C26.1715765,29.5523249 26.4218379,29.3658044 26.5030615,29.0936685 C26.5779874,28.8400035 26.6789644,28.5947738 26.8043787,28.3618983 C26.940343,28.111679 26.8953667,27.8018128 26.6938743,27.6005745 L26.5615261,27.4688687 L27.4706173,26.56042 L27.5991107,26.6889135 C27.7999796,26.8900051 28.1091089,26.9352117 28.3591495,26.8000603 C28.5920644,26.674729 28.8372853,26.5737556 29.0909197,26.4987432 C29.3634472,26.4192635 29.551507,26.1703456 29.5534962,25.8864719 Z" id="Shape"></path>
                        <path d="M30.1959634,32.7647265 C31.615263,32.7647265 32.7658325,31.6141569 32.7658325,30.1948574 C32.7658325,28.7755579 31.615263,27.6249883 30.1959634,27.6249883 C28.7766639,27.6249883 27.6260943,28.7755579 27.6260943,30.1948574 C27.6260943,31.6141569 28.7766639,32.7647265 30.1959634,32.7647265 Z M30.1959634,28.9099228 C30.9056132,28.9099228 31.480898,29.4852076 31.480898,30.1948574 C31.480898,30.9045072 30.9056132,31.4797919 30.1959634,31.4797919 C29.4863137,31.4797919 28.9110289,30.9045072 28.9110289,30.1948574 C28.9110289,29.4852076 29.4863137,28.9099228 30.1959634,28.9099228 Z" id="Shape"></path>
                    </g>
                </g>
            </g>
        </g>
    </g>
</svg>