<?xml version="1.0" encoding="UTF-8"?>
<svg width="39px" height="40px" viewBox="0 0 39 40" version="1.1" xmlns="http://www.w3.org/2000/svg" xmlns:xlink="http://www.w3.org/1999/xlink">
    <title>idea</title>
    <g id="Page-1" stroke="none" stroke-width="1" fill="none" fill-rule="evenodd">
        <g id="About" transform="translate(-250.000000, -5046.000000)" fill="#0D76BD" fill-rule="nonzero">
            <g id="Values" transform="translate(149.000000, 4311.000000)">
                <g id="Group-4" transform="translate(101.809496, 731.000000)">
                    <g id="idea" transform="translate(0.000000, 4.809496)">
                        <polygon id="Rectangle" transform="translate(10.279766, 5.139990) rotate(-45.000000) translate(-10.279766, -5.139990) " points="9.63729837 3.3227717 10.9222329 3.3227717 10.9222329 6.95720907 9.63729837 6.95720907"></polygon>
                        <polygon id="Rectangle" transform="translate(26.983771, 5.139680) rotate(-45.000000) translate(-26.983771, -5.139680) " points="25.1665524 4.49721253 28.8009898 4.49721253 28.8009898 5.78214708 25.1665524 5.78214708"></polygon>
                        <rect id="Rectangle" x="17.9890837" y="0" width="1.28493455" height="3.21233638"></rect>
                        <path d="M37.263102,32.1233638 L37.263102,27.6260928 C37.2595997,25.091835 35.7676681,22.7960717 33.453271,21.7635789 C35.7580308,20.3968921 36.6245828,17.4878482 35.4433694,15.0827524 C34.2621559,12.6776567 31.4302642,11.5850275 28.9397285,12.5734518 C26.4491927,13.5618761 25.1372536,16.2990762 25.9267669,18.8596269 C25.0182316,18.5773784 24.0485781,18.5566717 23.1288219,18.7998774 L23.1288219,17.0067512 C24.7610778,15.6720253 25.7050649,13.6728967 25.698691,11.564411 C25.7062952,7.85069291 22.8382215,4.76464178 19.1338887,4.50067508 C15.429556,4.23670837 12.152867,6.88489042 11.6337974,10.562162 C11.2750673,13.0007098 12.2247226,15.4482927 14.1342801,17.0067512 L14.1342801,18.79795 C13.2139406,18.5575877 12.2446719,18.5798441 11.3363351,18.8621967 C12.1310061,16.2990544 10.8200534,13.5559368 8.32650914,12.5642527 C5.83296486,11.5725686 2.99616548,12.6661227 1.8134805,15.0749516 C0.630795515,17.4837805 1.5003212,20.3970632 3.80983094,21.7635789 C1.49543389,22.7960717 0.00350221055,25.091835 0,27.6260928 L0,32.1233638 C0,32.4781886 0.287642397,32.765831 0.642467275,32.765831 L6.55316621,32.765831 C6.46721625,33.1887291 6.42416696,33.619222 6.42467275,34.0507656 L6.42467275,38.5480365 C6.42467275,38.9028614 6.71231515,39.1905038 7.06714003,39.1905038 L30.1959619,39.1905038 C30.5507868,39.1905038 30.8384292,38.9028614 30.8384292,38.5480365 L30.8384292,34.0507656 C30.838935,33.619222 30.7958857,33.1887291 30.7099358,32.765831 L36.6206347,32.765831 C36.9754596,32.765831 37.263102,32.4781886 37.263102,32.1233638 Z M30.8384292,13.4918128 C32.9673785,13.4918128 34.6932329,15.2176672 34.6932329,17.3466164 C34.6932329,19.4755657 32.9673785,21.2014201 30.8384292,21.2014201 C28.7094799,21.2014201 26.9836256,19.4755657 26.9836256,17.3466164 C26.9857504,15.2185479 28.7103607,13.4939377 30.8384292,13.4918128 L30.8384292,13.4918128 Z M28.2685681,23.7712892 C28.2685681,25.9002384 26.5427057,27.6260928 24.4137565,27.6260928 C22.2848072,27.6260928 20.5589528,25.9002384 20.5589528,23.7712892 C20.5589528,23.7308137 20.5660199,23.6909808 20.5673049,23.6505053 C21.3304595,23.3767408 21.8406968,22.6546536 21.8438874,21.8438874 L21.8438874,21.0832061 C22.2681656,20.9317376 22.6258202,20.6361553 22.8544884,20.2479986 C24.0462538,19.7172183 25.4257785,19.826368 26.519246,20.5379588 C27.6127135,21.2495496 28.2712078,22.4666721 28.2685681,23.7712892 Z M16.7041492,12.2068782 L16.0616819,12.2068782 C15.706857,12.2068782 15.4192146,11.9192358 15.4192146,11.564411 C15.4192146,11.2095861 15.706857,10.9219437 16.0616819,10.9219437 C16.4165068,10.9219437 16.7041492,11.2095861 16.7041492,11.564411 L16.7041492,12.2068782 Z M19.2740183,17.3466164 L17.9890837,17.3466164 L17.9890837,13.4918128 L19.2740183,13.4918128 L19.2740183,17.3466164 Z M21.8438874,18.631551 L21.8438874,19.2740183 C21.8438874,19.6288431 21.556245,19.9164855 21.2014201,19.9164855 L16.0616819,19.9164855 C15.706857,19.9164855 15.4192146,19.6288431 15.4192146,19.2740183 L15.4192146,18.631551 L21.8438874,18.631551 Z M20.5589528,21.2014201 L20.5589528,21.8438874 C20.5589528,22.1987122 20.2713104,22.4863546 19.9164855,22.4863546 L17.3466164,22.4863546 C16.9917915,22.4863546 16.7041492,22.1987122 16.7041492,21.8438874 L16.7041492,21.2014201 L20.5589528,21.2014201 Z M17.9890837,23.7712892 L19.2740183,23.7712892 C19.2768131,25.5861224 20.2364956,27.2649563 21.7989146,28.1882517 C20.4136349,28.8106011 19.2921134,29.9014116 18.631551,31.2688823 C17.9715976,29.9002076 16.8500052,28.8081906 15.4641873,28.1850394 C17.0256222,27.2623284 17.9851558,25.5849757 17.9890837,23.7712892 L17.9890837,23.7712892 Z M12.9065251,10.7388405 C13.2908145,8.15063171 15.3564503,6.13784632 17.953748,5.82075351 C18.18136,5.79519484 18.4102182,5.78232559 18.6392606,5.78217949 C20.0578882,5.77793112 21.427452,6.30116356 22.4818574,7.2502432 C23.7745,8.40309741 24.4813134,10.0753583 24.4073638,11.8058292 C24.3334142,13.5363 23.486514,15.1421648 22.1002318,16.1805383 C21.9384548,16.3018711 21.8432449,16.4922909 21.8432449,16.6945121 L21.8432449,17.3466164 L20.5589528,17.3466164 L20.5589528,13.4918128 L21.2014201,13.4918128 C22.2658947,13.4918128 23.1288219,12.6288856 23.1288219,11.564411 C23.1288219,10.4999363 22.2658947,9.63700913 21.2014201,9.63700913 C20.1369454,9.63700913 19.2740183,10.4999363 19.2740183,11.564411 L19.2740183,12.2068782 L17.9890837,12.2068782 L17.9890837,11.564411 C17.9890837,10.4999363 17.1261565,9.63700913 16.0616819,9.63700913 C14.9972072,9.63700913 14.1342801,10.4999363 14.1342801,11.564411 C14.1342801,12.6288856 14.9972072,13.4918128 16.0616819,13.4918128 L16.7041492,13.4918128 L16.7041492,17.3466164 L15.4192146,17.3466164 L15.4192146,16.6951546 C15.4192146,16.4929333 15.3240047,16.3025136 15.1622277,16.1811808 C13.4661344,14.9203698 12.5996596,12.8298236 12.9065251,10.7388405 Z M20.5589528,12.2068782 L20.5589528,11.564411 C20.5589528,11.2095861 20.8465952,10.9219437 21.2014201,10.9219437 C21.556245,10.9219437 21.8438874,11.2095861 21.8438874,11.564411 C21.8438874,11.9192358 21.556245,12.2068782 21.2014201,12.2068782 L20.5589528,12.2068782 Z M14.410541,20.2524959 C14.6397792,20.6384034 14.9965181,20.9322017 15.4192146,21.0832061 L15.4192146,21.8438874 C15.4224052,22.6546536 15.9326424,23.3767408 16.6957971,23.6505053 C16.6957971,23.6909808 16.7041492,23.7308137 16.7041492,23.7712892 C16.7041492,25.9002384 14.9782948,27.6260928 12.8493455,27.6260928 C10.7203962,27.6260928 8.99454185,25.9002384 8.99454185,23.7712892 C8.99454185,21.6423399 10.7203962,19.9164855 12.8493455,19.9164855 C13.3876462,19.9168624 13.9197481,20.0313848 14.410541,20.2524959 L14.410541,20.2524959 Z M2.5698691,17.3466164 C2.5698691,15.2176672 4.29572348,13.4918128 6.42467275,13.4918128 C8.55362202,13.4918128 10.2794764,15.2176672 10.2794764,17.3466164 C10.2794764,19.4755657 8.55362202,21.2014201 6.42467275,21.2014201 C4.29660426,21.1992952 2.57199398,19.4746849 2.5698691,17.3466164 Z M1.28493249,31.4808965 L1.28493249,27.6260928 C1.28349146,26.014463 2.03872588,24.4956396 3.32462825,23.5241419 C4.61053063,22.5526442 6.27792134,22.2411771 7.82782128,22.6829496 C7.35467198,24.8454516 8.3258295,27.0669809 10.2345037,28.1882517 C8.77435035,28.8427984 7.60922549,30.0161655 6.96498773,31.4808965 L1.28493249,31.4808965 Z M7.7096073,34.0507656 C7.7096073,31.2121666 10.0107465,28.9110274 12.8493455,28.9110274 C15.6879445,28.9110274 17.9890837,31.2121666 17.9890837,34.0507656 L17.9890837,37.9055692 L7.7096073,37.9055692 L7.7096073,34.0507656 Z M29.5534947,37.9055692 L19.2740183,37.9055692 L19.2740183,34.0507656 C19.2740183,31.2121666 21.5751574,28.9110274 24.4137565,28.9110274 C27.2523555,28.9110274 29.5534947,31.2121666 29.5534947,34.0507656 L29.5534947,37.9055692 Z M35.9781695,31.4808965 L30.2981142,31.4808965 C29.6538765,30.0161655 28.4887516,28.8427984 27.0285983,28.1882517 C28.9372725,27.0669809 29.90843,24.8454516 29.4352807,22.6829496 C30.9851806,22.2411771 32.6525713,22.5526442 33.9384737,23.5241419 C35.2243761,24.4956396 35.9796105,26.014463 35.9781695,27.6260928 L35.9781695,31.4808965 Z" id="Shape"></path>
                    </g>
                </g>
            </g>
        </g>
    </g>
</svg>