<?xml version="1.0" encoding="UTF-8"?>
<svg width="56px" height="55px" viewBox="0 0 56 55" version="1.1" xmlns="http://www.w3.org/2000/svg" xmlns:xlink="http://www.w3.org/1999/xlink">
    <title>team</title>
    <g id="Page-1" stroke="none" stroke-width="1" fill="none" fill-rule="evenodd">
        <g id="Home" transform="translate(-443.000000, -3422.000000)" fill="#0D76BD" fill-rule="nonzero">
            <g id="What-is-AARO" transform="translate(103.000000, 3193.000000)">
                <g id="team" transform="translate(340.300000, 229.000000)">
                    <path d="M50.0107608,44.9432717 C50.8896091,44.1324269 51.45053,42.9811312 51.45053,41.6938284 L51.45053,39.9196722 C51.45053,37.4741434 49.4606683,35.4842817 47.0151395,35.4842817 C44.8736775,35.4842817 43.0817624,37.0111129 42.6689766,39.0325941 L39.7552195,39.0325941 C39.3879138,38.0025786 38.4120412,37.2584379 37.2572803,37.2584379 C36.1020864,37.2584379 35.1262138,38.0025786 34.758908,39.0325941 L31.8451511,39.0325941 C31.4912727,37.2974208 30.1212395,35.9278208 28.3864993,35.5739423 L28.3864993,33.5840807 C29.9128975,33.1877542 31.0477336,31.8107907 31.0477336,30.1618131 L31.9348117,30.1618131 C32.4251304,30.1618131 32.8218898,29.7654866 32.8218898,29.274735 L32.8218898,26.6135007 L34.596046,26.6135007 L34.596046,24.8393444 L32.8218898,24.8393444 L32.8218898,24.8298152 C32.8218898,23.1327586 33.6262376,21.4647226 35.0287565,20.2566851 C37.5721758,18.0628128 39.0314365,14.8835386 39.0314365,11.5331729 C39.0314365,8.36472737 37.7722882,5.41068798 35.4865893,3.21508307 C33.20219,1.01947805 30.1827459,-0.126619875 27.0238296,0.0111197365 C21.0360524,0.252380808 16.0761249,5.32709129 15.9691385,11.3230983 C15.9076321,14.7167783 17.3387385,17.9493291 19.8951522,20.1921466 C21.3020026,21.4248734 22.1197777,23.1115346 22.1678566,24.8393444 L20.4027963,24.8393444 L20.4027963,26.6135007 L22.1769526,26.6135007 L22.1769526,29.274735 C22.1769526,29.7654866 22.573279,30.1618131 23.0640307,30.1618131 L23.9511088,30.1618131 C23.9511088,31.8107907 25.0855119,33.1877542 26.6123431,33.5840807 L26.6123431,35.5739423 C24.8771699,35.9278208 23.5075697,37.2974208 23.1532583,39.0325941 L20.2395012,39.0325941 C19.8721955,38.0025786 18.8963229,37.2584379 17.741562,37.2584379 C16.5863681,37.2584379 15.6104955,38.0025786 15.2431897,39.0325941 L12.3294328,39.0325941 C11.9166468,37.0111129 10.1255981,35.4842817 7.98370289,35.4842817 C5.53774103,35.4842817 3.54831236,37.4741434 3.54831236,39.9196722 L3.54831236,41.6938284 C3.54831236,42.9811312 4.10880024,44.1324269 4.98764859,44.9432717 C2.06652812,46.1309515 0,48.9961965 0,52.3387657 L0,54.1129219 C0,54.6036736 0.396326372,55 0.887078049,55 L15.0803277,55 C15.5706464,55 15.9674058,54.6036736 15.9674058,54.1129219 L15.9674058,52.3387657 C15.9674058,48.9961965 13.9004447,46.1309515 10.9793242,44.9432717 C11.8581725,44.1324269 12.4190934,42.9811312 12.4190934,41.6938284 L12.4190934,40.8067503 L15.2431897,40.8067503 C15.6104955,41.8367658 16.5863681,42.5809065 17.741562,42.5809065 C18.8963229,42.5809065 19.8721955,41.8367658 20.2395012,40.8067503 L23.0640307,40.8067503 L23.0640307,41.6938284 C23.0640307,42.9811312 23.6245185,44.1324269 24.5033669,44.9432717 C21.5822464,46.1309515 19.5157182,48.9961965 19.5157182,52.3387657 L19.5157182,54.1129219 C19.5157182,54.6036736 19.9120447,55 20.4027963,55 L34.596046,55 C35.0863647,55 35.4831241,54.6036736 35.4831241,54.1129219 L35.4831241,52.3387657 C35.4831241,48.9961965 33.416163,46.1309515 30.4950425,44.9432717 C31.3738908,44.1324269 31.9348117,42.9811312 31.9348117,41.6938284 L31.9348117,40.8067503 L34.758908,40.8067503 C35.1262138,41.8367658 36.1020864,42.5809065 37.2572803,42.5809065 C38.4120412,42.5809065 39.3879138,41.8367658 39.7552195,40.8067503 L42.579749,40.8067503 L42.579749,41.6938284 C42.579749,42.9811312 43.1402368,44.1324269 44.0190852,44.9432717 C41.0979647,46.1309515 39.0314365,48.9961965 39.0314365,52.3387657 L39.0314365,54.1129219 C39.0314365,54.6036736 39.427763,55 39.9185147,55 L54.1117643,55 C54.602083,55 54.9988424,54.6036736 54.9988424,54.1129219 L54.9988424,52.3387657 C54.9988424,48.9961965 52.9318813,46.1309515 50.0107608,44.9432717 Z M14.1932496,52.3387657 L14.1932496,53.2258438 L12.4190934,53.2258438 L12.4190934,51.4516876 L10.6449372,51.4516876 L10.6449372,53.2258438 L5.32246857,53.2258438 L5.32246857,51.4516876 L3.54831236,51.4516876 L3.54831236,53.2258438 L1.77415615,53.2258438 L1.77415615,52.3387657 C1.77415615,48.9156317 4.56013583,46.129219 7.98370289,46.129219 C11.4068368,46.129219 14.1932496,48.9156317 14.1932496,52.3387657 Z M5.32246857,41.6938284 L5.32246857,39.9196722 C5.32246857,38.4526148 6.51621246,37.2584379 7.98370289,37.2584379 C9.45076031,37.2584379 10.6449372,38.4526148 10.6449372,39.9196722 L10.6449372,41.6938284 C10.6449372,43.1608859 9.45076031,44.3550627 7.98370289,44.3550627 C6.51621246,44.3550627 5.32246857,43.1608859 5.32246857,41.6938284 Z M17.741562,40.8067503 C17.2516767,40.8067503 16.8544839,40.4095577 16.8544839,39.9196722 C16.8544839,39.4302199 17.2516767,39.0325941 17.741562,39.0325941 C18.2310144,39.0325941 18.6286401,39.4302199 18.6286401,39.9196722 C18.6286401,40.4095577 18.2310144,40.8067503 17.741562,40.8067503 Z M21.0642067,18.8576312 C18.9015207,16.9604622 17.6908843,14.2255935 17.7432947,11.3538514 C17.8346879,6.28087346 22.0296838,1.98755404 27.0948651,1.78311026 C29.8011464,1.68478663 32.3250742,2.6385689 34.2568947,4.49502234 C36.1917472,6.35190901 37.2572803,8.85244713 37.2572803,11.5331729 C37.2572803,14.3672314 36.022388,17.0570533 33.8700975,18.9117742 C32.0764497,20.4589631 31.0477336,22.6155851 31.0477336,24.8298152 L31.0477336,24.8393444 L23.9420128,24.8393444 C23.8939339,22.6012914 22.8561217,20.4277767 21.0642067,18.8576312 L21.0642067,18.8576312 Z M31.0477336,26.6135007 L31.0477336,28.3876569 L23.9511088,28.3876569 L23.9511088,26.6135007 L31.0477336,26.6135007 Z M25.725265,30.1618131 L29.2735774,30.1618131 C29.2735774,31.1402845 28.4774595,31.9359693 27.4994212,31.9359693 C26.5209499,31.9359693 25.725265,31.1402845 25.725265,30.1618131 Z M33.7089679,52.3387657 L33.7089679,53.2258438 L31.9348117,53.2258438 L31.9348117,51.4516876 L30.1606555,51.4516876 L30.1606555,53.2258438 L24.8381869,53.2258438 L24.8381869,51.4516876 L23.0640307,51.4516876 L23.0640307,53.2258438 L21.2898745,53.2258438 L21.2898745,52.3387657 C21.2898745,48.9156317 24.0758541,46.129219 27.4994212,46.129219 C30.9225551,46.129219 33.7089679,48.9156317 33.7089679,52.3387657 Z M24.8381869,41.6938284 L24.8381869,39.9196722 C24.8381869,38.4526148 26.0319308,37.2584379 27.4994212,37.2584379 C28.9664786,37.2584379 30.1606555,38.4526148 30.1606555,39.9196722 L30.1606555,41.6938284 C30.1606555,43.1608859 28.9664786,44.3550627 27.4994212,44.3550627 C26.0319308,44.3550627 24.8381869,43.1608859 24.8381869,41.6938284 Z M37.2572803,40.8067503 C36.767395,40.8067503 36.3702022,40.4095577 36.3702022,39.9196722 C36.3702022,39.4302199 36.767395,39.0325941 37.2572803,39.0325941 C37.7467327,39.0325941 38.1443584,39.4302199 38.1443584,39.9196722 C38.1443584,40.4095577 37.7467327,40.8067503 37.2572803,40.8067503 Z M44.3539052,41.6938284 L44.3539052,39.9196722 C44.3539052,38.4526148 45.5476491,37.2584379 47.0151395,37.2584379 C48.4821969,37.2584379 49.6763738,38.4526148 49.6763738,39.9196722 L49.6763738,41.6938284 C49.6763738,43.1608859 48.4821969,44.3550627 47.0151395,44.3550627 C45.5476491,44.3550627 44.3539052,43.1608859 44.3539052,41.6938284 Z M53.2246862,53.2258438 L51.45053,53.2258438 L51.45053,51.4516876 L49.6763738,51.4516876 L49.6763738,53.2258438 L44.3539052,53.2258438 L44.3539052,51.4516876 L42.579749,51.4516876 L42.579749,53.2258438 L40.8055928,53.2258438 L40.8055928,52.3387657 C40.8055928,48.9156317 43.5915724,46.129219 47.0151395,46.129219 C50.4382734,46.129219 53.2246862,48.9156317 53.2246862,52.3387657 L53.2246862,53.2258438 Z" id="Shape"></path>
                    <polygon id="Path" points="25.725265 21.291032 29.2735774 21.291032 29.2735774 23.0651882 25.725265 23.0651882"></polygon>
                    <path d="M26.6123431,15.8789026 L26.6123431,17.7427196 L28.3864993,17.7427196 L28.3864993,15.8789026 C28.9513186,15.7636864 29.4767218,15.5384517 29.9414849,15.2296204 L31.3076198,16.5957553 L32.5615705,15.3413715 L31.1958688,13.9752365 C31.504267,13.5104734 31.7295017,12.9855034 31.8451511,12.420251 L33.7089679,12.420251 L33.7089679,10.6460948 L31.8451511,10.6460948 C31.7295017,10.0808423 31.504267,9.55587234 31.1958688,9.09110917 L32.5615705,7.72497429 L31.3076198,6.47059041 L29.9414849,7.83672529 C29.4767218,7.52789393 28.9513186,7.30265925 28.3864993,7.187443 L28.3864993,5.32362614 L26.6123431,5.32362614 L26.6123431,7.187443 C26.0470907,7.30265925 25.5221207,7.52789393 25.0569245,7.83672529 L23.6907895,6.47059041 L22.4368387,7.72497429 L23.8029737,9.09110917 C23.4941423,9.55587234 23.2689077,10.0808423 23.1532583,10.6460948 L21.2898745,10.6460948 L21.2898745,12.420251 L23.1532583,12.420251 C23.2689077,12.9855034 23.4941423,13.5104734 23.8029737,13.9752365 L22.4368387,15.3413715 L23.6907895,16.5957553 L25.0569245,15.2296204 C25.5221207,15.5384517 26.0470907,15.7636864 26.6123431,15.8789026 L26.6123431,15.8789026 Z M27.4994212,8.87193856 C28.9664786,8.87193856 30.1606555,10.0661155 30.1606555,11.5331729 C30.1606555,13.0002303 28.9664786,14.1944072 27.4994212,14.1944072 C26.0319308,14.1944072 24.8381869,13.0002303 24.8381869,11.5331729 C24.8381869,10.0661155 26.0319308,8.87193856 27.4994212,8.87193856 Z" id="Shape"></path>
                </g>
            </g>
        </g>
    </g>
</svg>