<?xml version="1.0" encoding="UTF-8"?>
<svg width="47px" height="55px" viewBox="0 0 47 55" version="1.1" xmlns="http://www.w3.org/2000/svg" xmlns:xlink="http://www.w3.org/1999/xlink">
    <title>infographic</title>
    <g id="Page-1" stroke="none" stroke-width="1" fill="none" fill-rule="evenodd">
        <g id="Home" transform="translate(-733.000000, -3422.000000)" fill="#0D76BD" fill-rule="nonzero">
            <g id="What-is-AARO" transform="translate(103.000000, 3193.000000)">
                <g id="infographic" transform="translate(630.535391, 229.000000)">
                    <path d="M45.2409833,54.9988425 C45.730903,54.9988425 46.1280614,54.6016841 46.1280614,54.1117644 L46.1280614,0.887078105 C46.1280614,0.397158396 45.730903,0 45.2409833,0 L0.887078105,0 C0.397158396,0 0,0.397158396 0,0.887078105 L0,54.1117644 C0,54.6016841 0.397158396,54.9988425 0.887078105,54.9988425 L45.2409833,54.9988425 Z M1.77415621,1.77415621 L44.3539052,1.77415621 L44.3539052,53.2246863 L1.77415621,53.2246863 L1.77415621,1.77415621 Z" id="Shape"></path>
                    <path d="M39.0314366,38.1443585 C37.0717578,38.1443585 35.4831242,39.7329921 35.4831242,41.6926709 C35.4831242,41.8026686 35.5061882,41.9073438 35.5159461,42.0146803 L26.3559776,46.5946645 C25.8208858,45.2366372 24.5064893,44.3468257 23.0468651,44.3544831 C21.587241,44.3621405 20.2822528,45.2656938 19.7614389,46.6292606 L10.5748581,42.3890272 C10.6207804,42.1597357 10.6442511,41.9265149 10.6449373,41.6926709 C10.6655859,39.9487664 9.43021188,38.4421719 7.71605645,38.120768 C6.00190103,37.7993642 4.30465437,38.7560928 3.69214687,40.3890239 C3.07963937,42.0219549 3.72899266,43.8588862 5.23166316,44.744104 C6.73433367,45.6293218 8.65578726,45.3068437 9.78713273,43.9795583 L19.5760396,48.4974471 C19.8616957,50.2047566 21.341411,51.4542381 23.0724471,51.4498483 C24.8034831,51.4454354 26.2768255,50.1884455 26.553796,48.4797055 L36.1111755,43.7010157 C37.0664901,45.0924722 38.8697502,45.6184182 40.4233152,44.9587115 C41.9768802,44.2990048 42.8507291,42.6362498 42.5129519,40.9825619 C42.1751748,39.328874 40.719267,38.1419878 39.0314366,38.1443585 L39.0314366,38.1443585 Z M7.09662484,43.4668271 C6.11678542,43.4668271 5.32246863,42.6725103 5.32246863,41.6926709 C5.32246863,40.7128315 6.11678542,39.9185147 7.09662484,39.9185147 C8.07646425,39.9185147 8.87078105,40.7128315 8.87078105,41.6926709 C8.87078105,42.6725103 8.07646425,43.4668271 7.09662484,43.4668271 Z M23.0640307,49.6763739 C22.0841913,49.6763739 21.2898745,48.8820571 21.2898745,47.9022176 C21.2898745,46.9223782 22.0841913,46.1280614 23.0640307,46.1280614 C24.0438701,46.1280614 24.8381869,46.9223782 24.8381869,47.9022176 C24.8381869,48.8820571 24.0438701,49.6763739 23.0640307,49.6763739 Z M39.0314366,43.4668271 C38.0515972,43.4668271 37.2572804,42.6725103 37.2572804,41.6926709 C37.2572804,40.7128315 38.0515972,39.9185147 39.0314366,39.9185147 C40.011276,39.9185147 40.8055928,40.7128315 40.8055928,41.6926709 C40.8055928,42.6725103 40.011276,43.4668271 39.0314366,43.4668271 Z" id="Shape"></path>
                    <rect id="Rectangle" x="33.708968" y="3.54831242" width="8.87078105" height="1.77415621"></rect>
                    <rect id="Rectangle" x="31.9348118" y="7.09662484" width="10.6449373" height="1.77415621"></rect>
                    <path d="M5.0723126,18.59227 L8.04313717,19.466929 C5.50378457,26.5245302 8.20127072,34.3992236 14.5346636,38.4174546 C20.8680565,42.4356856 29.1416075,41.5215839 34.4450438,36.21766 C39.7484802,30.913736 40.6618213,22.6401011 36.643008,16.3070776 C32.6241948,9.97405416 24.7492534,7.27729197 17.6918857,9.81729338 L16.8181138,6.84646881 C16.7297114,6.54626918 16.489672,6.31486035 16.1864379,6.23750472 C15.8832038,6.16014909 15.5616458,6.24829327 15.3402417,6.46946062 L4.69530441,17.1143979 C4.47413706,17.335802 4.38599288,17.6573601 4.46334851,17.9605941 C4.54070415,18.2638282 4.77211297,18.5038676 5.0723126,18.59227 Z M13.1553683,20.9696393 C12.785669,21.9255454 12.5553333,22.929642 12.4714311,23.9511088 L8.91513495,23.9511088 C8.99778867,22.590111 9.27808622,21.2483882 9.74721421,19.9681281 L13.1553683,20.9696393 Z M21.2535043,21.9267966 L19.6993435,16.6415852 C20.7655588,16.1974544 21.9090128,15.9683415 23.0640307,15.9674059 C27.9632278,15.9674059 31.9348118,19.9389898 31.9348118,24.8381869 C31.9348118,29.737384 27.9632278,33.708968 23.0640307,33.708968 C18.1648336,33.708968 14.1932497,29.737384 14.1932497,24.8381869 C14.1939741,23.6832355 14.4227823,22.5397973 14.866542,21.4734997 L20.1526404,23.0276605 C20.2337861,23.0520077 20.3180771,23.0642627 20.4027964,23.0640307 C20.6822713,23.0639149 20.9453501,22.9321019 21.1127556,22.7083126 C21.2801612,22.4845234 21.3323163,22.1949289 21.2535043,21.9267966 Z M8.91602203,25.725265 L12.4643344,25.725265 C12.9027304,30.8969413 17.0052763,34.9994873 22.1769526,35.4378832 L22.1769526,38.9861956 C15.0499387,38.5315735 9.37064412,32.8522789 8.91602203,25.725265 L8.91602203,25.725265 Z M23.9511088,38.9861956 L23.9511088,35.4378832 C29.1227851,34.9994873 33.2253311,30.8969413 33.663727,25.725265 L37.2120394,25.725265 C36.7574173,32.8522789 31.0781227,38.5315735 23.9511088,38.9861956 Z M37.2120394,23.9511088 L33.663727,23.9511088 C33.2253311,18.7794325 29.1227851,14.6768866 23.9511088,14.2384907 L23.9511088,10.6901782 C31.0781227,11.1448003 36.7574173,16.8240949 37.2120394,23.9511088 Z M22.1769526,10.6892912 L22.1769526,14.2447002 C21.1550571,14.3252459 20.1505228,14.5553832 19.1954831,14.9277503 L18.1930848,11.5213704 C19.4736273,11.0521583 20.8156549,10.7718595 22.1769526,10.6892912 L22.1769526,10.6892912 Z M15.5380601,8.78207324 L19.092582,20.8685124 L7.00791703,17.3122163 L15.5380601,8.78207324 Z" id="Shape"></path>
                </g>
            </g>
        </g>
    </g>
</svg>