<?xml version="1.0" encoding="UTF-8"?>
<svg width="40px" height="40px" viewBox="0 0 40 40" version="1.1" xmlns="http://www.w3.org/2000/svg" xmlns:xlink="http://www.w3.org/1999/xlink">
    <title>success</title>
    <g id="Page-1" stroke="none" stroke-width="1" fill="none" fill-rule="evenodd">
        <g id="About" transform="translate(-250.000000, -4757.000000)" fill="#0D76BD" fill-rule="nonzero">
            <g id="Values" transform="translate(149.000000, 4311.000000)">
                <g id="success" transform="translate(101.000000, 446.000000)">
                    <path d="M26.0199246,8.99491565 C27.613886,8.99491565 28.9110274,7.69777422 28.9110274,6.10381291 C28.9110274,4.5098516 27.613886,3.21271017 26.0199246,3.21271017 C24.4259633,3.21271017 23.1288219,4.5098516 23.1288219,6.10381291 C23.1288219,7.69777422 24.4259633,8.99491565 26.0199246,8.99491565 Z M26.0199246,4.49764472 C26.9052445,4.49764472 27.6260928,5.218493 27.6260928,6.10381291 C27.6260928,6.98913282 26.9052445,7.7099811 26.0199246,7.7099811 C25.1346047,7.7099811 24.4137565,6.98913282 24.4137565,6.10381291 C24.4137565,5.218493 25.1346047,4.49764472 26.0199246,4.49764472 Z" id="Shape"></path>
                    <path d="M39.60875,4.01001206 L35.1114791,0.15520841 C34.9476499,0.0151505437 34.7240713,-0.0349619037 34.5178393,0.0247875529 C34.3109648,0.0832520749 34.1471357,0.241941492 34.0809615,0.446888553 L31.1403888,9.63738292 L24.6797379,9.63738292 L22.940579,7.89822401 C22.8204376,7.77744016 22.6566085,7.7099811 22.4863546,7.7099811 L21.6190238,7.7099811 L19.2187661,2.30940118 C19.0851329,2.00744156 18.7439828,1.85774669 18.4285313,1.96118392 L16.5011295,2.6036512 C16.3283058,2.66147325 16.1882479,2.78932424 16.1156491,2.95636573 C16.0430503,3.12340722 16.0443353,3.31357753 16.1195039,3.47869162 L19.3318403,10.5458317 C19.43592,10.7751925 19.6646384,10.9223175 19.9164855,10.9223175 L20.2267972,10.9223175 L18.6835908,14.523989 C18.670099,14.5554699 18.6591771,14.5882357 18.650825,14.6210016 L18.0449784,17.0437457 L14.2891147,21.426015 C14.1888898,21.5423015 14.1342801,21.6907115 14.1342801,21.8442612 L14.1342801,23.771663 C14.1342801,24.1263049 14.4221054,24.4141303 14.7767473,24.4141303 L17.3466164,24.4141303 C17.7012584,24.4141303 17.9890837,24.1263049 17.9890837,23.771663 L17.9890837,22.1102426 L21.0131772,19.0861491 C21.095413,19.0039133 21.1538775,18.9004761 21.1821461,18.7880443 L21.703187,16.7045229 L22.272413,16.7045229 L24.4137565,18.3106911 L24.4137565,23.771663 C24.4137565,24.1263049 24.7015818,24.4141303 25.0562237,24.4141303 L26.9836256,24.4141303 C27.3382675,24.4141303 27.6260928,24.1263049 27.6260928,23.771663 L27.6260928,17.3469902 C27.6260928,17.1767364 27.5586338,17.0129072 27.4378499,16.8927659 L24.5981446,14.0530605 L25.3999437,12.8497193 L30.1124412,12.8497193 L28.9412233,16.5085704 L30.1651235,16.899833 L31.4616225,12.8497193 L33.4082983,12.8497193 C33.7629402,12.8497193 34.0507656,12.561894 34.0507656,12.207252 L34.0507656,10.2798502 C34.0507656,9.92520826 33.7629402,9.63738292 33.4082983,9.63738292 L32.4895701,9.63738292 L33.9286968,5.140112 L39.1905038,5.140112 C39.4590551,5.140112 39.6993379,4.97242804 39.7931381,4.72058087 C39.8862958,4.46873369 39.8130546,4.18476316 39.60875,4.01001206 L39.60875,4.01001206 Z M25.0562237,11.5647847 C24.8416397,11.5647847 24.6411899,11.6720768 24.521691,11.8506827 L23.2367564,13.7780845 C23.0665026,14.0325016 23.1005533,14.3723667 23.3170648,14.5888782 L26.3411583,17.6129717 L26.3411583,23.1291957 L25.698691,23.1291957 L25.698691,17.9894575 C25.698691,17.7870803 25.6036058,17.59691 25.4417041,17.4754837 L22.871835,15.5480819 C22.7606882,15.4645611 22.6251276,15.4195884 22.4863546,15.4195884 L21.2014201,15.4195884 C20.9065276,15.4195884 20.6495407,15.6200382 20.5782268,15.9059361 L19.9788049,18.3029815 L16.8923921,21.3893943 C16.7716082,21.5101782 16.7041492,21.6740073 16.7041492,21.8442612 L16.7041492,23.1291957 L15.4192146,23.1291957 L15.4192146,22.081974 L19.1191836,17.7652364 C19.1840728,17.6894253 19.2303305,17.5994799 19.2547442,17.5031098 L19.8843622,14.9833531 L21.791205,10.5336248 C21.8766532,10.3351024 21.8560942,10.1070265 21.7372378,9.92713566 C21.6190238,9.74595989 21.4172891,9.63738292 21.2014201,9.63738292 L20.3302345,9.63738292 L17.5843293,3.5969056 L18.2814063,3.36433245 L20.614205,8.61329009 C20.7176422,8.84522077 20.9476455,8.99491565 21.2014201,8.99491565 L22.2203732,8.99491565 L23.9595321,10.7340746 C24.0796735,10.8548584 24.2435026,10.9223175 24.4137565,10.9223175 L30.7292098,10.9223175 L30.5236202,11.5647847 L25.0562237,11.5647847 Z M32.765831,10.9223175 L32.765831,11.5647847 L31.8728015,11.5647847 L32.078391,10.9223175 L32.765831,10.9223175 Z M34.3398759,3.85517745 L35.0099692,1.76073413 L37.4539147,3.85517745 L34.3398759,3.85517745 Z" id="Shape"></path>
                    <path d="M26.3411583,25.6990648 L14.7767473,25.6990648 C14.4221054,25.6990648 14.1342801,25.9868901 14.1342801,26.3415321 L14.1342801,39.1908776 C14.1342801,39.5455195 14.4221054,39.8333449 14.7767473,39.8333449 L26.3411583,39.8333449 C26.6958002,39.8333449 26.9836256,39.5455195 26.9836256,39.1908776 L26.9836256,26.3415321 C26.9836256,25.9868901 26.6958002,25.6990648 26.3411583,25.6990648 Z M25.698691,38.5484103 L15.4192146,38.5484103 L15.4192146,26.9839994 L25.698691,26.9839994 L25.698691,38.5484103 Z" id="Shape"></path>
                    <path d="M12.2068782,32.1237376 L0.642467275,32.1237376 C0.287825339,32.1237376 0,32.4115629 0,32.7662048 L0,39.1908776 C0,39.5455195 0.287825339,39.8333449 0.642467275,39.8333449 L12.2068782,39.8333449 C12.5615202,39.8333449 12.8493455,39.5455195 12.8493455,39.1908776 L12.8493455,32.7662048 C12.8493455,32.4115629 12.5615202,32.1237376 12.2068782,32.1237376 Z M11.564411,38.5484103 L1.28493455,38.5484103 L1.28493455,33.4086721 L11.564411,33.4086721 L11.564411,38.5484103 Z" id="Shape"></path>
                </g>
            </g>
        </g>
    </g>
</svg>