<?xml version="1.0" encoding="UTF-8"?>
<svg width="55px" height="55px" viewBox="0 0 55 55" version="1.1" xmlns="http://www.w3.org/2000/svg" xmlns:xlink="http://www.w3.org/1999/xlink">
    <title>team (1)</title>
    <g id="Page-1" stroke="none" stroke-width="1" fill="none" fill-rule="evenodd">
        <g id="Home" transform="translate(-150.000000, -3422.000000)" fill="#0D76BD" fill-rule="nonzero">
            <g id="What-is-AARO" transform="translate(103.000000, 3193.000000)">
                <g id="team-(1)" transform="translate(47.000000, 229.000000)">
                    <path d="M54.9988425,19.5157183 L45.2409833,19.5157183 C44.7502317,19.5157183 44.3539052,19.9133442 44.3539052,20.4027964 L44.3539052,21.2898745 L42.0599767,21.2898745 L38.7715504,18.0014483 L37.5171666,19.2558321 L40.8055928,22.5442584 L40.8055928,32.4545841 L37.7770527,35.4831242 L37.2572804,35.4831242 L37.2572804,20.4027964 C37.2572804,18.935739 36.0631035,17.7415621 34.5960461,17.7415621 C34.2837496,17.7415621 33.9874793,17.8052342 33.708968,17.9048572 L33.708968,16.854484 C33.708968,15.3874266 32.5147911,14.1932497 31.0477337,14.1932497 C30.6973205,14.1932497 30.3646662,14.2651516 30.0575673,14.3885975 C29.751768,13.2572264 28.7260839,12.4190935 27.4994212,12.4190935 C26.0323638,12.4190935 24.8381869,13.6132704 24.8381869,15.0803278 L24.8381869,16.130701 C24.5596756,16.031078 24.2634053,15.9674059 23.9511088,15.9674059 C22.4840514,15.9674059 21.2898745,17.1615828 21.2898745,18.6286402 L21.2898745,25.8885601 C21.0113631,25.7889372 20.7150929,25.725265 20.4027964,25.725265 C18.935739,25.725265 17.7415621,26.9194419 17.7415621,28.3864993 L17.7415621,35.4831242 L17.2217898,35.4831242 L14.1932497,32.4545841 L14.1932497,22.5442584 L17.2217898,19.5157183 L17.7415621,19.5157183 L17.7415621,23.9511088 L19.5157183,23.9511088 L19.5157183,13.6734773 L22.5442584,10.6449373 L32.4545841,10.6449373 L35.4831242,13.6734773 L35.4831242,15.9674059 L37.2572804,15.9674059 L37.2572804,13.3061716 C37.2572804,13.0709746 37.1641545,12.8448737 36.9973942,12.6789796 L33.708968,9.39055337 L33.708968,7.09662484 L34.5960461,7.09662484 C35.0867978,7.09662484 35.4831242,6.69899895 35.4831242,6.20954673 L35.4831242,0 L33.708968,0 L33.708968,5.32246863 L21.2898745,5.32246863 L21.2898745,0 L19.5157183,0 L19.5157183,6.20954673 C19.5157183,6.69899895 19.9120447,7.09662484 20.4027964,7.09662484 L21.2898745,7.09662484 L21.2898745,9.39055337 L18.0014483,12.6789796 C17.834688,12.8448737 17.7415621,13.0709746 17.7415621,13.3061716 L17.7415621,17.7415621 L16.854484,17.7415621 C16.6184207,17.7415621 16.3931861,17.834688 16.227292,18.0014483 L12.9388658,21.2898745 L10.6449373,21.2898745 L10.6449373,20.4027964 C10.6449373,19.9133442 10.2486108,19.5157183 9.75785915,19.5157183 L0,19.5157183 L0,21.2898745 L8.87078105,21.2898745 L8.87078105,33.708968 L0,33.708968 L0,35.4831242 L9.75785915,35.4831242 C10.2486108,35.4831242 10.6449373,35.0854983 10.6449373,34.5960461 L10.6449373,33.708968 L12.9388658,33.708968 L16.227292,36.9973942 C16.3931861,37.1641545 16.6184207,37.2572804 16.854484,37.2572804 L17.7415621,37.2572804 L17.7415621,38.1443585 C17.7415621,38.3795555 17.834688,38.6056564 18.0014483,38.7715504 L21.2898745,42.0599767 L21.2898745,44.3539052 L20.4027964,44.3539052 C19.9120447,44.3539052 19.5157183,44.7515311 19.5157183,45.2409833 L19.5157183,54.9988425 L21.2898745,54.9988425 L21.2898745,46.1280614 L33.708968,46.1280614 L33.708968,54.9988425 L35.4831242,54.9988425 L35.4831242,45.2409833 C35.4831242,44.7515311 35.0867978,44.3539052 34.5960461,44.3539052 L33.708968,44.3539052 L33.708968,42.0599767 L36.9973942,38.7715504 C37.1641545,38.6056564 37.2572804,38.3795555 37.2572804,38.1443585 L37.2572804,37.2572804 L38.1443585,37.2572804 C38.3804217,37.2572804 38.6056564,37.1641545 38.7715504,36.9973942 L42.0599767,33.708968 L44.3539052,33.708968 L44.3539052,34.5960461 C44.3539052,35.0854983 44.7502317,35.4831242 45.2409833,35.4831242 L54.9988425,35.4831242 L54.9988425,33.708968 L46.1280614,33.708968 L46.1280614,21.2898745 L54.9988425,21.2898745 L54.9988425,19.5157183 Z M31.9348118,7.09662484 L31.9348118,8.87078105 L23.0640307,8.87078105 L23.0640307,7.09662484 L31.9348118,7.09662484 Z M10.6449373,23.0640307 L12.4190935,23.0640307 L12.4190935,31.9348118 L10.6449373,31.9348118 L10.6449373,23.0640307 Z M23.0640307,44.3539052 L23.0640307,42.579749 L31.9348118,42.579749 L31.9348118,44.3539052 L23.0640307,44.3539052 Z M35.4831242,37.7770527 L32.4545841,40.8055928 L22.5442584,40.8055928 L19.5157183,37.7770527 L19.5157183,28.3864993 C19.5157183,27.8979134 19.9133442,27.4994212 20.4027964,27.4994212 C20.8922486,27.4994212 21.2898745,27.8979134 21.2898745,28.3864993 L21.2898745,31.0477337 L23.0640307,31.0477337 L23.0640307,18.6286402 C23.0640307,18.1400542 23.4616566,17.7415621 23.9511088,17.7415621 C24.440561,17.7415621 24.8381869,18.1400542 24.8381869,18.6286402 L24.8381869,27.4994212 L26.6123431,27.4994212 L26.6123431,15.0803278 C26.6123431,14.5917418 27.009969,14.1932497 27.4994212,14.1932497 C27.9888735,14.1932497 28.3864993,14.5917418 28.3864993,15.0803278 L28.3864993,27.4994212 L30.1606556,27.4994212 L30.1606556,16.854484 C30.1606556,16.365898 30.5582814,15.9674059 31.0477337,15.9674059 C31.5371859,15.9674059 31.9348118,16.365898 31.9348118,16.854484 L31.9348118,27.4994212 L33.708968,27.4994212 L33.708968,20.4027964 C33.708968,19.9142104 34.1065939,19.5157183 34.5960461,19.5157183 C35.0854983,19.5157183 35.4831242,19.9142104 35.4831242,20.4027964 L35.4831242,37.7770527 Z M42.579749,31.9348118 L42.579749,23.0640307 L44.3539052,23.0640307 L44.3539052,31.9348118 L42.579749,31.9348118 Z" id="Shape"></path>
                    <polygon id="Path" points="23.0640307 47.9022176 24.8381869 47.9022176 24.8381869 49.6763739 23.0640307 49.6763739"></polygon>
                    <polygon id="Path" points="30.1606556 47.9022176 31.9348118 47.9022176 31.9348118 49.6763739 30.1606556 49.6763739"></polygon>
                    <polygon id="Path" points="47.9022176 30.1606556 49.6763739 30.1606556 49.6763739 31.9348118 47.9022176 31.9348118"></polygon>
                    <polygon id="Path" points="47.9022176 23.0640307 49.6763739 23.0640307 49.6763739 24.8381869 47.9022176 24.8381869"></polygon>
                    <polygon id="Path" points="23.0640307 1.77415621 24.8381869 1.77415621 24.8381869 3.54831242 23.0640307 3.54831242"></polygon>
                    <polygon id="Path" points="30.1606556 1.77415621 31.9348118 1.77415621 31.9348118 3.54831242 30.1606556 3.54831242"></polygon>
                    <polygon id="Path" points="5.32246863 23.0640307 7.09662484 23.0640307 7.09662484 24.8381869 5.32246863 24.8381869"></polygon>
                    <polygon id="Path" points="5.32246863 30.1606556 7.09662484 30.1606556 7.09662484 31.9348118 5.32246863 31.9348118"></polygon>
                </g>
            </g>
        </g>
    </g>
</svg>