<?xml version="1.0" encoding="UTF-8"?>
<svg width="56px" height="55px" viewBox="0 0 56 55" version="1.1" xmlns="http://www.w3.org/2000/svg" xmlns:xlink="http://www.w3.org/1999/xlink">
    <title>management</title>
    <g id="Page-1" stroke="none" stroke-width="1" fill="none" fill-rule="evenodd">
        <g id="Home" transform="translate(-1025.000000, -3422.000000)" fill="#0D76BD" fill-rule="nonzero">
            <g id="What-is-AARO" transform="translate(103.000000, 3193.000000)">
                <g id="management" transform="translate(922.600000, 229.000000)">
                    <rect id="Rectangle" x="18.6286402" y="23.0640307" width="1.77415621" height="3.54831242"></rect>
                    <rect id="Rectangle" x="18.6286402" y="44.3539052" width="1.77415621" height="3.54831242"></rect>
                    <rect id="Rectangle" x="28.3864993" y="34.5960461" width="3.54831242" height="1.77415621"></rect>
                    <rect id="Rectangle" x="7.09662484" y="34.5960461" width="3.54831242" height="1.77415621"></rect>
                    <path d="M23.0640307,35.4831242 C23.0588792,35.324905 23.0428742,35.1672259 23.0161285,35.0111986 L26.3524293,31.6748979 C26.4496371,31.5774352 26.5228295,31.4586874 26.5662151,31.3280503 L27.4532932,28.666816 C27.5593993,28.348228 27.4765202,27.9970355 27.2391727,27.7595002 C27.0018252,27.5219649 26.6506983,27.4388081 26.3320265,27.5446622 L23.6707921,28.4317403 C23.5401551,28.4751259 23.4214073,28.5483183 23.3239446,28.6455262 L19.9876439,31.9818269 C19.831596,31.9553786 19.6739171,31.93967 19.5157183,31.9348118 C19.3574991,31.9399633 19.1998201,31.9559683 19.0437927,31.982714 L17.4816482,30.4205694 C17.3841855,30.3233616 17.2654377,30.2501692 17.1348007,30.2067836 L14.4735664,29.3197055 C14.1550921,29.2140562 13.8042627,29.2971422 13.5669995,29.5344054 C13.3297363,29.7716686 13.2466503,30.122498 13.3522996,30.4409722 L14.2393777,33.1022066 C14.2827633,33.2328436 14.3559557,33.3515914 14.4531636,33.4490541 L16.0153081,35.0111986 C15.9885624,35.1672259 15.9725574,35.324905 15.9674059,35.4831242 C15.9674059,37.442803 17.5560395,39.0314366 19.5157183,39.0314366 C20.1471542,39.0283466 20.7660021,38.8545542 21.306729,38.5284633 L26.872257,44.0939913 L28.1265855,42.8396629 L22.5610574,37.2741349 C22.8871483,36.733408 23.0609407,36.11456 23.0640307,35.4831242 L23.0640307,35.4831242 Z M24.430131,30.0488837 L25.2098727,29.7889698 L24.9499588,30.5687115 L22.2585638,33.2601065 C22.1039507,33.069122 21.9297205,32.8948918 21.738736,32.7402787 L24.430131,30.0488837 Z M15.855634,32.3428677 L15.5957202,31.563126 L16.3754618,31.8230399 L17.2927006,32.7402787 C17.1017161,32.8948918 16.9274859,33.069122 16.7728728,33.2601065 L15.855634,32.3428677 Z M17.7415621,35.4831242 C17.7415621,34.5032848 18.5358789,33.708968 19.5157183,33.708968 C20.4955577,33.708968 21.2898745,34.5032848 21.2898745,35.4831242 C21.2898745,36.4629636 20.4955577,37.2572804 19.5157183,37.2572804 C18.5358789,37.2572804 17.7415621,36.4629636 17.7415621,35.4831242 Z" id="Shape"></path>
                    <path d="M54.1117644,12.4190935 L52.7811472,12.4190935 C52.4494615,11.1340312 51.9375678,9.90238051 51.2606954,8.76078336 L52.2045465,7.81338395 C52.5508457,7.46698008 52.5508457,6.90545937 52.2045465,6.55905551 L48.439787,2.79518311 C48.0933831,2.44888384 47.5318624,2.44888384 47.1854585,2.79518311 L46.237172,3.7434696 C45.0962014,3.06576573 43.8647648,2.55353825 42.579749,2.22213065 L42.579749,0.887078105 C42.579749,0.397158396 42.1825906,0 41.6926709,0 L36.3702023,0 C35.8802826,0 35.4831242,0.397158396 35.4831242,0.887078105 L35.4831242,2.22213065 C34.1981084,2.55353825 32.9666718,3.06576573 31.8257012,3.7434696 L30.8774147,2.79518311 C30.5310108,2.44888384 29.9694901,2.44888384 29.6230862,2.79518311 L25.8583267,6.55905551 C25.5120275,6.90545937 25.5120275,7.46698008 25.8583267,7.81338395 L26.8066132,8.76078336 C26.1297408,9.90238051 25.6178471,11.1340312 25.2861614,12.4190935 L23.9511088,12.4190935 C23.4611891,12.4190935 23.0640307,12.8162519 23.0640307,13.3061716 L23.0640307,16.2911894 C14.6667426,14.7441402 6.2395869,18.8400387 2.26803982,26.3987835 C-1.70350726,33.9575284 -0.295671132,43.2209692 5.74220695,49.2585049 C11.780085,55.2960406 21.0436057,56.7033515 28.6021253,52.7313758 C36.1606449,48.7594001 40.2560656,40.3320122 38.7085402,31.9348118 L41.6926709,31.9348118 C42.1825906,31.9348118 42.579749,31.5376534 42.579749,31.0477337 L42.579749,29.7126811 C43.8646961,29.3810686 45.0961045,28.8688529 46.237172,28.1913422 L47.1854585,29.1405157 C47.5318624,29.486815 48.0933831,29.486815 48.439787,29.1405157 L52.2045465,25.3757563 C52.5508457,25.0293524 52.5508457,24.4678317 52.2045465,24.1214278 L51.25626,23.1740284 C51.9346763,22.0326771 52.4480676,20.8010157 52.7811472,19.5157183 L54.1117644,19.5157183 C54.6016841,19.5157183 54.9988425,19.1185599 54.9988425,18.6286402 L54.9988425,13.3061716 C54.9988425,12.8162519 54.6016841,12.4190935 54.1117644,12.4190935 Z M37.2572903,35.4831242 C37.2651831,42.9962546 32.5446619,49.7015476 25.4690022,52.2278554 C18.3933426,54.7541632 10.4935089,52.5548673 5.74121531,46.7356838 C0.988921719,40.9165003 0.412424635,32.7365292 4.30156327,26.3083264 C8.1907019,19.8801236 15.7039811,16.5945628 23.0640307,18.10349 L23.0640307,18.6286402 C23.0640307,19.1185599 23.4611891,19.5157183 23.9511088,19.5157183 L25.281726,19.5157183 C25.3908366,19.9370804 25.5256725,20.3504588 25.6729274,20.7576276 C18.6272155,17.8077076 10.4789851,20.2546245 6.22408993,26.5981213 C1.96919476,32.9416181 2.79667729,41.4089868 8.19919035,46.8087033 C13.6017034,52.2084197 22.0694995,53.0315179 28.4107923,48.7733387 C34.7520852,44.5151595 37.1947826,36.3656632 34.2412148,29.3214797 C34.6492708,29.4687346 35.0626492,29.6035705 35.4831242,29.7126811 L35.4831242,31.0477337 C35.4831242,31.5376534 35.8802826,31.9348118 36.3702023,31.9348118 L36.8953525,31.9348118 C37.1342531,33.1025182 37.2555019,34.2912313 37.2572903,35.4831242 Z M31.7378804,28.28005 C35.3743758,34.4442508 33.8594425,42.3509212 28.2019942,46.7343844 C22.5445459,51.1178476 14.5100744,50.6101781 9.44936942,45.5494731 C4.38866441,40.488768 3.88099485,32.4542965 8.26445805,26.7968483 C12.6479212,21.1394 20.5545917,19.6244666 26.7187925,23.2609621 L25.8583267,24.1214278 C25.5120275,24.4678317 25.5120275,25.0293524 25.8583267,25.3757563 L29.6230862,29.1405157 C29.974986,29.4732792 30.5255148,29.4732792 30.8774147,29.1405157 L31.7378804,28.28005 Z M53.2246863,17.7415621 L52.0714847,17.7415621 C51.6498844,17.741476 51.2864683,18.0381422 51.2021482,18.4512246 C50.8856323,20.0076389 50.2704872,21.4879636 49.3907347,22.8103264 C49.1575386,23.1622413 49.20466,23.629745 49.5033936,23.9280448 L50.3239409,24.747705 L47.8135098,27.258136 L46.9938497,26.4375888 C46.6956845,26.1393261 46.2287442,26.0922241 45.8770183,26.3249298 C44.5539638,27.2053901 43.0726863,27.8208568 41.5152553,28.1372304 C41.102173,28.2215505 40.8055068,28.5849666 40.8055928,29.0065669 L40.8055928,30.1606556 L37.2572804,30.1606556 L37.2572804,29.007454 C37.2573664,28.5858536 36.9607002,28.2224375 36.5476179,28.1381175 C34.9908045,27.8215255 33.5101488,27.2060668 32.187629,26.3258169 C31.8359031,26.0931112 31.3689629,26.1402132 31.0707977,26.4384758 L30.2511375,27.2590231 L27.7398194,24.7494791 L28.5603667,23.9298189 C28.8591003,23.6315192 28.9062217,23.1640155 28.6730256,22.8121005 C27.7930629,21.4892029 27.1779098,20.0082564 26.8616121,18.4512246 C26.777292,18.0381422 26.4138759,17.741476 25.9922755,17.7415621 L24.8381869,17.7415621 L24.8381869,14.1932497 L25.9913885,14.1932497 C26.4129888,14.1933357 26.7764049,13.8966695 26.860725,13.4835872 C27.1773902,11.9269432 27.7925193,10.4463558 28.6721385,9.12359831 C28.9048442,8.77187239 28.8577422,8.30493214 28.5594796,8.00676697 L27.7398194,7.18533265 L30.2493634,4.67667577 L31.0690235,5.49722301 C31.3671887,5.79548564 31.834129,5.84258763 32.1858549,5.60988193 C33.5090262,4.72964053 34.9902596,4.11419215 36.5476179,3.79758137 C36.9610271,3.7131949 37.2577884,3.34929132 37.2572804,2.92735775 L37.2572804,1.77415621 L40.8055928,1.77415621 L40.8055928,2.92735775 C40.8055068,3.34895813 41.102173,3.71237422 41.5152553,3.79669429 C43.0719961,4.11352327 44.5526076,4.72896363 45.8752442,5.60899486 C46.2263426,5.84311222 46.6937698,5.79748242 46.9929626,5.49988425 L47.8126228,4.679337 L50.3230538,7.18533265 L49.5025065,8.00499282 C49.2042439,8.30315799 49.1571419,8.77009824 49.3898476,9.12182415 C50.2696769,10.4451165 50.884814,11.9263257 51.2012611,13.4835872 C51.2855812,13.8966695 51.6489973,14.1933357 52.0705977,14.1932497 L53.2246863,14.1932497 L53.2246863,17.7415621 Z" id="Shape"></path>
                    <path d="M39.0314366,6.20954673 C33.6423198,6.20954673 29.2735775,10.5782891 29.2735775,15.9674059 C29.2735775,21.3565227 33.6423198,25.725265 39.0314366,25.725265 C44.4205534,25.725265 48.7892958,21.3565227 48.7892958,15.9674059 C48.7829412,10.5809234 44.417919,6.21590132 39.0314366,6.20954673 Z M39.0314366,23.9511088 C34.6221592,23.9511088 31.0477337,20.3766833 31.0477337,15.9674059 C31.0477337,11.5581285 34.6221592,7.98370294 39.0314366,7.98370294 C43.440714,7.98370294 47.0151395,11.5581285 47.0151395,15.9674059 C47.0102507,20.3746567 43.4386874,23.94622 39.0314366,23.9511088 L39.0314366,23.9511088 Z" id="Shape"></path>
                    <path d="M41.9525848,11.7919292 L37.2572804,16.4872337 L36.1102884,15.3402417 C35.7638845,14.9939424 35.2023638,14.9939424 34.85596,15.3402417 L33.0818038,17.1143979 C32.7355045,17.4608017 32.7355045,18.0223224 33.0818038,18.3687263 L36.6301162,21.9170387 C36.97652,22.263338 37.5380407,22.263338 37.8844446,21.9170387 L44.9810694,14.8204139 C45.3273687,14.47401 45.3273687,13.9124893 44.9810694,13.5660855 L43.2069132,11.7919292 C42.8605094,11.44563 42.2989887,11.44563 41.9525848,11.7919292 Z M37.2572804,20.0355461 L34.9632964,17.7415621 L35.4831242,17.2217343 L36.6301162,18.3687263 C36.97652,18.7150256 37.5380407,18.7150256 37.8844446,18.3687263 L42.579749,13.6734219 L43.0995768,14.1932497 L37.2572804,20.0355461 Z" id="Shape"></path>
                    <path d="M54.1117644,37.2572804 L48.7892958,37.2572804 C48.299376,37.2572804 47.9022176,37.6544388 47.9022176,38.1443585 L47.9022176,43.4668271 C47.9022176,44.4466665 47.1079009,45.2409833 46.1280614,45.2409833 L43.4668271,45.2409833 L43.4668271,43.4668271 C43.4667505,43.1080964 43.2506218,42.7847226 42.9191935,42.6474526 C42.5877652,42.5101827 42.206284,42.5860403 41.9525848,42.8396629 L36.6301162,48.1621315 C36.2838169,48.5085354 36.2838169,49.0700561 36.6301162,49.41646 L41.9525848,54.7389286 C42.1189055,54.9052995 42.3445005,54.9988471 42.579749,54.9988471 C42.6963589,54.9992191 42.8118692,54.976298 42.9194999,54.9314245 C43.2509041,54.7940194 43.4669174,54.4705246 43.4668271,54.1117644 L43.4668271,52.3376082 L47.0151395,52.3376082 C51.4223903,52.3327194 54.9939537,48.761156 54.9988425,44.3539052 L54.9988425,38.1443585 C54.9988425,37.6544388 54.6016841,37.2572804 54.1117644,37.2572804 Z M53.2246863,44.3539052 C53.2202878,47.7815196 50.442754,50.5590535 47.0151395,50.563452 L42.579749,50.563452 C42.0898293,50.563452 41.6926709,50.9606104 41.6926709,51.4505301 L41.6926709,51.9703578 L38.5116088,48.7892958 L41.6926709,45.6082337 L41.6926709,46.1280614 C41.6926709,46.6179811 42.0898293,47.0151395 42.579749,47.0151395 L46.1280614,47.0151395 C48.0877403,47.0151395 49.6763739,45.426506 49.6763739,43.4668271 L49.6763739,39.0314366 L53.2246863,39.0314366 L53.2246863,44.3539052 Z" id="Shape"></path>
                    <path d="M0.887078105,17.7415621 L6.20954673,17.7415621 C6.69946644,17.7415621 7.09662484,17.3444037 7.09662484,16.854484 L7.09662484,11.5320154 C7.09662484,10.5521759 7.89094163,9.75785915 8.87078105,9.75785915 L12.4190935,9.75785915 L12.4190935,11.5320154 C12.4191701,11.8907461 12.6352988,12.2141199 12.9667271,12.3513899 C13.2981554,12.4886598 13.6796365,12.4128022 13.9333358,12.1591796 L19.2558044,6.83671095 C19.6021037,6.49030708 19.6021037,5.92878638 19.2558044,5.58238251 L13.9333358,0.259913885 C13.6796365,0.00629123281 13.2981554,-0.0695663557 12.9667271,0.0677035945 C12.6352988,0.204973545 12.4191701,0.528347358 12.4190935,0.887078105 L12.4190935,2.66123431 L7.98370294,2.66123431 C3.57645216,2.66612312 0.00488880183,6.23768647 0,10.6449373 L0,16.854484 C0,17.3444037 0.397158396,17.7415621 0.887078105,17.7415621 Z M1.77415621,10.6449373 C1.77806701,7.21712051 4.55588619,4.43930133 7.98370294,4.43539052 L13.3061716,4.43539052 C13.7960913,4.43539052 14.1932497,4.03823213 14.1932497,3.54831242 L14.1932497,3.02848465 L17.3743118,6.20954673 L14.1932497,9.39060881 L14.1932497,8.87078105 C14.1932497,8.38086134 13.7960913,7.98370294 13.3061716,7.98370294 L8.87078105,7.98370294 C6.91110221,7.98370294 5.32246863,9.57233652 5.32246863,11.5320154 L5.32246863,15.9674059 L1.77415621,15.9674059 L1.77415621,10.6449373 Z" id="Shape"></path>
                </g>
            </g>
        </g>
    </g>
</svg>