<?xml version="1.0" encoding="UTF-8"?>
<svg width="54px" height="55px" viewBox="0 0 54 55" version="1.1" xmlns="http://www.w3.org/2000/svg" xmlns:xlink="http://www.w3.org/1999/xlink">
    <title>tap</title>
    <g id="Page-1" stroke="none" stroke-width="1" fill="none" fill-rule="evenodd">
        <g id="About" transform="translate(-856.000000, -2456.000000)" fill="#0D76BD" fill-rule="nonzero">
            <g id="Priorities" transform="translate(247.000000, 1892.000000)">
                <g id="tap" transform="translate(609.000000, 564.000000)">
                    <path d="M33.0873016,42.7777778 C33.0873016,46.1825397 30.3809524,48.8888889 26.9761905,48.8888889 L26.9761905,50.6349206 C31.3412698,50.6349206 34.8333333,47.1428571 34.8333333,42.7777778 L33.0873016,42.7777778 Z" id="Path"></path>
                    <path d="M53.1666667,3.49206349 L53.1666667,1.74603175 L46.1825397,1.74603175 L46.1825397,0.873015873 C46.1825397,0.349206349 45.8333333,0 45.3095238,0 L36.5793651,0 C36.0555556,0 35.7063492,0.349206349 35.7063492,0.873015873 L35.7063492,1.74603175 L31.3412698,1.74603175 C26.015873,1.74603175 21.7380952,6.02380952 21.7380952,11.3492063 L21.7380952,17.4603175 L20.8650794,17.4603175 C20.3412698,17.4603175 19.9920635,17.8095238 19.9920635,18.3333333 L19.9920635,21.8253968 C19.9920635,22.3492063 20.3412698,22.6984127 20.8650794,22.6984127 L33.0873016,22.6984127 C33.6111111,22.6984127 33.9603175,22.3492063 33.9603175,21.8253968 L33.9603175,18.3333333 C33.9603175,17.8095238 33.6111111,17.4603175 33.0873016,17.4603175 L32.2142857,17.4603175 L32.2142857,12.2222222 L35.7063492,12.2222222 L35.7063492,13.0952381 C35.7063492,13.6190476 36.0555556,13.968254 36.5793651,13.968254 L45.3095238,13.968254 C45.8333333,13.968254 46.1825397,13.6190476 46.1825397,13.0952381 L46.1825397,12.2222222 L53.1666667,12.2222222 L53.1666667,10.4761905 L49.6746032,10.4761905 L49.6746032,3.49206349 L53.1666667,3.49206349 Z M23.484127,15.7142857 L30.468254,15.7142857 L30.468254,17.4603175 L23.484127,17.4603175 L23.484127,15.7142857 L23.484127,15.7142857 Z M32.2142857,20.952381 L21.7380952,20.952381 L21.7380952,19.2063492 L32.2142857,19.2063492 L32.2142857,20.952381 Z M32.2142857,10.4761905 C31.2539683,10.4761905 30.468254,11.2619048 30.468254,12.2222222 L30.468254,13.968254 L23.484127,13.968254 L23.484127,11.3492063 C23.484127,6.98412698 26.9761905,3.49206349 31.3412698,3.49206349 L32.2142857,3.49206349 L32.2142857,10.4761905 Z M35.7063492,10.4761905 L33.9603175,10.4761905 L33.9603175,3.49206349 L35.7063492,3.49206349 L35.7063492,10.4761905 Z M44.4365079,12.2222222 L37.452381,12.2222222 L37.452381,1.74603175 L44.4365079,1.74603175 L44.4365079,12.2222222 Z M47.9285714,10.4761905 L46.1825397,10.4761905 L46.1825397,3.49206349 L47.9285714,3.49206349 L47.9285714,10.4761905 Z" id="Shape"></path>
                    <path d="M18.8571429,9.95238095 L18.1587302,9.25396825 C17.3730159,8.46825397 16.2380952,7.94444444 15.1031746,7.94444444 L14.4920635,7.94444444 C13.3571429,7.94444444 12.2222222,8.38095238 11.4365079,9.25396825 L10.3888889,10.1269841 L10.3888889,6.8968254 C12.3968254,6.46031746 13.8809524,4.71428571 13.8809524,2.61904762 L13.8809524,0.873015873 C13.8809524,0.349206349 13.531746,0 13.0079365,0 C11.1746032,0 9.51587302,1.13492063 8.9047619,2.88095238 C8.11904762,2.18253968 7.07142857,1.74603175 6.02380952,1.74603175 C5.5,1.74603175 5.15079365,2.0952381 5.15079365,2.61904762 L5.15079365,4.36507937 C5.15079365,6.46031746 6.63492063,8.20634921 8.64285714,8.64285714 L8.64285714,14.4920635 L7.68253968,13.531746 C6.80952381,12.6587302 5.76190476,12.2222222 4.53968254,12.2222222 L4.01587302,12.2222222 C2.88095238,12.2222222 1.74603175,12.6587302 0.96031746,13.531746 L0.261904762,14.2301587 C-0.0873015873,14.5793651 -0.0873015873,15.1031746 0.261904762,15.452381 L2.61904762,17.8968254 C3.49206349,18.7698413 4.53968254,19.2063492 5.76190476,19.2063492 L6.37301587,19.2063492 C7.15873016,19.2063492 8.03174603,18.9444444 8.73015873,18.5079365 L8.73015873,21.4761905 L5.15079365,26.1904762 C4.01587302,27.6746032 3.4047619,29.5079365 3.4047619,31.4285714 C3.4047619,34.8333333 6.11111111,37.5396825 9.51587302,37.5396825 C12.9206349,37.5396825 15.6269841,34.8333333 15.6269841,31.4285714 C15.6269841,29.5079365 15.015873,27.6746032 13.8809524,26.1904762 L10.3888889,21.5634921 L10.3888889,14.2301587 C11.0873016,14.6666667 11.8730159,14.9285714 12.7460317,14.9285714 L13.3571429,14.9285714 C14.4920635,14.9285714 15.6269841,14.4920635 16.4126984,13.6190476 L18.8571429,11.1746032 C19.2063492,10.8253968 19.2063492,10.3015873 18.8571429,9.95238095 Z M10.3888889,4.36507937 C10.3888889,3.23015873 11.0873016,2.26984127 12.1349206,1.92063492 L12.1349206,2.61904762 C12.1349206,3.75396825 11.4365079,4.71428571 10.3888889,5.06349206 L10.3888889,4.36507937 Z M8.20634921,16.6746032 C7.68253968,17.1984127 6.98412698,17.4603175 6.28571429,17.4603175 L5.76190476,17.4603175 C5.06349206,17.4603175 4.36507937,17.1984127 3.92857143,16.6746032 L2.00793651,14.8412698 L2.0952381,14.7539683 C2.61904762,14.2301587 3.31746032,13.968254 4.01587302,13.968254 L4.62698413,13.968254 C5.32539683,13.968254 6.02380952,14.2301587 6.46031746,14.7539683 L8.29365079,16.5873016 L8.20634921,16.6746032 Z M8.64285714,6.80952381 C7.5952381,6.46031746 6.8968254,5.5 6.8968254,4.36507937 L6.8968254,3.66666667 C7.94444444,4.01587302 8.64285714,5.06349206 8.64285714,6.11111111 L8.64285714,6.80952381 Z M12.484127,27.2380952 C13.3571429,28.4603175 13.8809524,29.9444444 13.8809524,31.4285714 C13.8809524,33.8730159 11.9603175,35.7936508 9.51587302,35.7936508 C7.07142857,35.7936508 5.15079365,33.8730159 5.15079365,31.4285714 C5.15079365,29.9444444 5.67460317,28.4603175 6.54761905,27.2380952 L9.51587302,23.3095238 L12.484127,27.2380952 Z M15.1031746,12.3095238 C14.5793651,12.8333333 13.968254,13.0952381 13.2698413,13.0952381 L12.6587302,13.0952381 C11.9603175,13.0952381 11.2619048,12.8333333 10.8253968,12.3095238 L10.7380952,12.2222222 L12.5714286,10.3888889 C13.0952381,9.86507937 13.7063492,9.6031746 14.4047619,9.6031746 L15.015873,9.6031746 C15.7142857,9.6031746 16.4126984,9.86507937 16.8492063,10.3888889 L16.9365079,10.4761905 L15.1031746,12.3095238 Z" id="Shape"></path>
                    <path d="M10.3888889,31.4285714 C10.3888889,31.952381 10.0396825,32.3015873 9.51587302,32.3015873 C8.99206349,32.3015873 8.64285714,31.952381 8.64285714,31.4285714 L6.8968254,31.4285714 C6.8968254,32.9126984 8.03174603,34.047619 9.51587302,34.047619 C11,34.047619 12.1349206,32.9126984 12.1349206,31.4285714 L10.3888889,31.4285714 Z" id="Path"></path>
                    <path d="M48.8015873,26.1904762 L45.1349206,21.3015873 C44.7857143,20.952381 44.2619048,20.8650794 43.8253968,21.2142857 C43.8253968,21.2142857 43.7380952,21.2142857 43.7380952,21.3015873 L40.0714286,26.1904762 C38.9365079,27.6746032 38.3253968,29.5079365 38.3253968,31.4285714 C38.3253968,34.8333333 41.031746,37.5396825 44.4365079,37.5396825 C47.8412698,37.5396825 50.547619,34.8333333 50.547619,31.4285714 C50.547619,29.5079365 49.9365079,27.6746032 48.8015873,26.1904762 Z M44.4365079,35.7936508 C41.9920635,35.7936508 40.0714286,33.8730159 40.0714286,31.4285714 C40.0714286,29.9444444 40.5952381,28.4603175 41.468254,27.2380952 L44.4365079,23.3095238 L47.4047619,27.2380952 C48.2777778,28.4603175 48.8015873,29.9444444 48.8015873,31.4285714 C48.8015873,33.8730159 46.8809524,35.7936508 44.4365079,35.7936508 Z" id="Shape"></path>
                    <path d="M45.3095238,31.4285714 C45.3095238,31.952381 44.9603175,32.3015873 44.4365079,32.3015873 L44.4365079,34.047619 C45.9206349,34.047619 47.0555556,32.9126984 47.0555556,31.4285714 L45.3095238,31.4285714 Z" id="Path"></path>
                    <path d="M15.6269841,50.8968254 L14.6666667,52.1190476 C14.4920635,52.2936508 14.3174603,52.3809524 14.0555556,52.3809524 L13.7936508,52.3809524 C13.531746,52.3809524 13.3571429,52.2936508 13.1825397,52.1190476 L12.484127,51.4206349 C11.8730159,50.8968254 11.2619048,50.6349206 10.5634921,50.6349206 L10.3015873,50.6349206 C9.6031746,50.6349206 8.9047619,50.8968254 8.46825397,51.4206349 L7.76984127,52.1190476 C7.50793651,52.2936508 7.24603175,52.3809524 7.07142857,52.3809524 L6.72222222,52.3809524 C6.46031746,52.3809524 6.28571429,52.2936508 6.11111111,52.1190476 L5.41269841,51.4206349 C4.88888889,50.8968254 4.27777778,50.6349206 3.57936508,50.6349206 L3.23015873,50.6349206 C2.53174603,50.6349206 1.83333333,50.8968254 1.3968254,51.4206349 L0.174603175,52.6428571 L1.3968254,53.8650794 L2.61904762,52.6428571 C2.79365079,52.468254 3.05555556,52.3809524 3.23015873,52.3809524 L3.49206349,52.3809524 C3.75396825,52.3809524 3.92857143,52.468254 4.1031746,52.6428571 L4.8015873,53.3412698 C5.41269841,53.8650794 6.02380952,54.1269841 6.72222222,54.1269841 L6.98412698,54.1269841 C7.68253968,54.1269841 8.38095238,53.8650794 8.81746032,53.3412698 L9.51587302,52.6428571 C9.69047619,52.468254 9.86507937,52.3809524 10.1269841,52.3809524 L10.3888889,52.3809524 C10.6507937,52.3809524 10.8253968,52.468254 11,52.6428571 L11.6984127,53.3412698 C12.2222222,53.8650794 12.8333333,54.1269841 13.531746,54.1269841 L13.7936508,54.1269841 C14.4920635,54.1269841 15.1904762,53.8650794 15.6269841,53.3412698 L16.8492063,52.1190476 L15.6269841,50.8968254 Z" id="Path"></path>
                    <path d="M52.3809524,51.4206349 C52.031746,50.8968254 51.4206349,50.6349206 50.7222222,50.6349206 L50.4603175,50.6349206 C49.7619048,50.6349206 49.0634921,50.8968254 48.6269841,51.4206349 L47.9285714,52.1190476 C47.7539683,52.2936508 47.5793651,52.3809524 47.3174603,52.3809524 L47.0555556,52.3809524 C46.7936508,52.3809524 46.6190476,52.2936508 46.4444444,52.1190476 L45.7460317,51.4206349 C45.047619,50.8968254 44.4365079,50.6349206 43.7380952,50.6349206 L43.4761905,50.6349206 C42.7777778,50.6349206 42.0793651,50.8968254 41.6428571,51.4206349 L40.9444444,52.1190476 C40.7698413,52.2936508 40.5952381,52.3809524 40.3333333,52.3809524 L40.0714286,52.3809524 C39.8095238,52.3809524 39.6349206,52.2936508 39.4603175,52.1190476 L38.2380952,50.8968254 L37.015873,52.1190476 L38.2380952,53.3412698 C38.7619048,53.8650794 39.3730159,54.1269841 40.0714286,54.1269841 L40.3333333,54.1269841 C41.031746,54.1269841 41.7301587,53.8650794 42.1666667,53.3412698 L42.8650794,52.6428571 C43.0396825,52.468254 43.2142857,52.3809524 43.4761905,52.3809524 L43.7380952,52.3809524 C44,52.3809524 44.1746032,52.468254 44.3492063,52.6428571 L45.047619,53.3412698 C45.5714286,53.8650794 46.1825397,54.1269841 46.8809524,54.1269841 L47.1428571,54.1269841 C47.8412698,54.1269841 48.5396825,53.8650794 48.9761905,53.3412698 L49.6746032,52.6428571 C49.8492063,52.468254 50.0238095,52.3809524 50.2857143,52.3809524 L50.547619,52.3809524 C50.8095238,52.3809524 50.984127,52.468254 51.1587302,52.6428571 L52.3809524,53.8650794 L53.6031746,52.6428571 L52.3809524,51.4206349 Z" id="Path"></path>
                    <path d="M52.2063492,46.1825397 C52.031746,45.6587302 51.4206349,45.3968254 50.7222222,45.3968254 L50.4603175,45.3968254 C49.7619048,45.3968254 49.0634921,45.6587302 48.6269841,46.1825397 L47.9285714,46.8809524 C47.7539683,47.0555556 47.5793651,47.1428571 47.3174603,47.1428571 L47.0555556,47.1428571 C46.7936508,47.1428571 46.6190476,47.0555556 46.4444444,46.8809524 L45.7460317,46.1825397 C45.047619,45.6587302 44.4365079,45.3968254 43.7380952,45.3968254 L43.4761905,45.3968254 C42.7777778,45.3968254 42.0793651,45.6587302 41.6428571,46.1825397 L40.9444444,46.8809524 C40.7698413,47.0555556 40.5952381,47.1428571 40.3333333,47.1428571 L40.0714286,47.1428571 C39.8095238,47.1428571 39.6349206,47.0555556 39.4603175,46.8809524 L38.2380952,45.6587302 L38.1507937,45.5714286 C38.4126984,44.6984127 38.5,43.7380952 38.5,42.7777778 L38.5,42.6031746 C38.5,39.7222222 37.452381,36.8412698 35.531746,34.6587302 L27.7619048,25.5793651 C27.4126984,25.2301587 26.8888889,25.2301587 26.452381,25.4920635 C26.452381,25.4920635 26.452381,25.4920635 26.3650794,25.5793651 L18.5952381,34.6587302 C16.6746032,36.8412698 15.6269841,39.7222222 15.6269841,42.6031746 L15.6269841,42.7777778 C15.6269841,43.7380952 15.7142857,44.6984127 15.9761905,45.5714286 L15.8888889,45.6587302 L14.6666667,46.8809524 C14.4920635,47.0555556 14.3174603,47.1428571 14.0555556,47.1428571 L13.7936508,47.1428571 C13.531746,47.1428571 13.3571429,47.0555556 13.1825397,46.8809524 L12.484127,46.1825397 C11.8730159,45.6587302 11.2619048,45.3968254 10.5634921,45.3968254 L10.3015873,45.3968254 C9.6031746,45.3968254 8.9047619,45.6587302 8.46825397,46.1825397 L7.76984127,46.8809524 C7.50793651,47.0555556 7.24603175,47.1428571 7.07142857,47.1428571 L6.72222222,47.1428571 C6.46031746,47.1428571 6.28571429,47.0555556 6.11111111,46.8809524 L5.41269841,46.1825397 C4.88888889,45.6587302 4.27777778,45.3968254 3.57936508,45.3968254 L3.23015873,45.3968254 C2.53174603,45.3968254 1.83333333,45.6587302 1.3968254,46.1825397 L0.174603175,47.4047619 L1.3968254,48.6269841 L2.61904762,47.4047619 C2.79365079,47.2301587 3.05555556,47.1428571 3.23015873,47.1428571 L3.49206349,47.1428571 C3.75396825,47.1428571 3.92857143,47.2301587 4.1031746,47.4047619 L4.8015873,48.1031746 C5.41269841,48.6269841 6.02380952,48.8888889 6.72222222,48.8888889 L6.98412698,48.8888889 C7.68253968,48.8888889 8.38095238,48.6269841 8.81746032,48.1031746 L9.51587302,47.4047619 C9.69047619,47.2301587 9.86507937,47.1428571 10.1269841,47.1428571 L10.3888889,47.1428571 C10.6507937,47.1428571 10.8253968,47.2301587 11,47.4047619 L11.6984127,48.1031746 C12.2222222,48.6269841 12.8333333,48.8888889 13.531746,48.8888889 L13.7936508,48.8888889 C14.4920635,48.8888889 15.1904762,48.6269841 15.6269841,48.1031746 L16.3253968,47.4047619 C18.8571429,53.1666667 25.5793651,55.6984127 31.2539683,53.1666667 C33.7857143,52.031746 35.8809524,49.9365079 37.015873,47.4047619 L38.0634921,48.1031746 C38.5873016,48.6269841 39.1984127,48.8888889 39.8968254,48.8888889 L40.1587302,48.8888889 C40.8571429,48.8888889 41.5555556,48.6269841 41.9920635,48.1031746 L42.6904762,47.4047619 C42.8650794,47.2301587 43.0396825,47.1428571 43.3015873,47.1428571 L43.5634921,47.1428571 C43.8253968,47.1428571 44,47.2301587 44.1746032,47.4047619 L44.8730159,48.1031746 C45.3968254,48.6269841 46.0079365,48.8888889 46.7063492,48.8888889 L46.968254,48.8888889 C47.6666667,48.8888889 48.3650794,48.6269841 48.8015873,48.1031746 L49.5,47.4047619 C49.6746032,47.2301587 49.8492063,47.1428571 50.1111111,47.1428571 L50.3730159,47.1428571 C50.6349206,47.1428571 50.8095238,47.2301587 50.984127,47.4047619 L52.2063492,48.6269841 L53.4285714,47.4047619 L52.2063492,46.1825397 Z M30.468254,31.6031746 L34.047619,35.7936508 C34.6587302,36.4920635 35.1825397,37.2777778 35.6190476,38.1507937 L34.484127,39.2857143 L33.4365079,39.2857143 L32.2142857,38.0634921 L32.2142857,36.6666667 C32.2142857,36.4047619 32.1269841,36.2301587 31.952381,36.0555556 L30.468254,34.5714286 L30.468254,31.6031746 Z M19.9047619,35.7936508 L23.484127,31.6031746 L23.484127,33.1746032 C23.484127,33.4365079 23.5714286,33.6111111 23.7460317,33.7857143 L25.2301587,35.2698413 L25.2301587,37.1904762 L24.0079365,38.4126984 L22.6111111,38.4126984 C22.3492063,38.4126984 22.1746032,38.5 22,38.6746032 L20.515873,40.1587302 L19.468254,40.1587302 L18.0714286,38.7619048 C18.5079365,37.7142857 19.1190476,36.6666667 19.9047619,35.7936508 Z M17.7222222,45.3968254 L19.6428571,45.3968254 L21.1269841,46.8809524 C21.3015873,47.0555556 21.4761905,47.1428571 21.7380952,47.1428571 L23.1349206,47.1428571 L23.484127,47.4920635 L23.484127,49.3253968 L21.4761905,50.6349206 C19.6428571,49.3253968 18.3333333,47.4920635 17.7222222,45.3968254 Z M36.5793651,42.7777778 C36.5793651,48.1031746 32.3015873,52.3809524 26.9761905,52.3809524 C25.6666667,52.3809524 24.3571429,52.1190476 23.2222222,51.5952381 L24.8809524,50.4603175 C25.1428571,50.2857143 25.2301587,50.0238095 25.2301587,49.7619048 L25.2301587,47.1428571 C25.2301587,46.8809524 25.1428571,46.7063492 24.968254,46.531746 L24.0952381,45.6587302 C23.9206349,45.484127 23.7460317,45.3968254 23.484127,45.3968254 L22.0873016,45.3968254 L20.6031746,43.9126984 C20.4285714,43.7380952 20.2539683,43.6507937 19.9920635,43.6507937 L17.4603175,43.6507937 C17.4603175,43.3888889 17.3730159,43.0396825 17.3730159,42.7777778 L17.3730159,42.6031746 C17.3730159,41.9920635 17.4603175,41.2936508 17.547619,40.6825397 L18.5079365,41.6428571 C18.6825397,41.8174603 18.8571429,41.9047619 19.1190476,41.9047619 L20.8650794,41.9047619 C21.1269841,41.9047619 21.3015873,41.8174603 21.4761905,41.6428571 L22.9603175,40.1587302 L24.3571429,40.1587302 C24.6190476,40.1587302 24.7936508,40.0714286 24.968254,39.8968254 L26.7142857,38.1507937 C26.8888889,37.9761905 26.9761905,37.8015873 26.9761905,37.5396825 L26.9761905,34.9206349 C26.9761905,34.6587302 26.8888889,34.484127 26.7142857,34.3095238 L25.2301587,32.8253968 L25.2301587,29.6825397 L25.1428571,29.6825397 L26.9761905,27.5 L28.8095238,29.6825397 L28.7222222,29.6825397 L28.7222222,34.9206349 C28.7222222,35.1825397 28.8095238,35.3571429 28.984127,35.531746 L30.468254,37.015873 L30.468254,38.4126984 C30.468254,38.6746032 30.5555556,38.8492063 30.7301587,39.0238095 L32.4761905,40.7698413 C32.6507937,40.9444444 32.8253968,41.031746 33.0873016,41.031746 L34.8333333,41.031746 C35.0952381,41.031746 35.2698413,40.9444444 35.4444444,40.7698413 L36.2301587,39.984127 C36.4920635,40.8571429 36.5793651,41.7301587 36.5793651,42.6031746 L36.5793651,42.7777778 L36.5793651,42.7777778 Z" id="Shape"></path>
                </g>
            </g>
        </g>
    </g>
</svg>