<?xml version="1.0" encoding="UTF-8"?>
<svg width="55px" height="55px" viewBox="0 0 55 55" version="1.1" xmlns="http://www.w3.org/2000/svg" xmlns:xlink="http://www.w3.org/1999/xlink">
    <title>road</title>
    <g id="Page-1" stroke="none" stroke-width="1" fill="none" fill-rule="evenodd">
        <g id="About" transform="translate(-529.000000, -2455.000000)" fill="#0D76BD" fill-rule="nonzero">
            <g id="Priorities" transform="translate(247.000000, 1892.000000)">
                <g id="road" transform="translate(282.601593, 563.873016)">
                    <path d="M53.2413331,27.7924603 C53.1714918,27.3725397 52.8074442,27.0634921 52.3805395,27.0634921 L52.3805395,22.6984127 C52.3805395,21.2544444 51.2054601,20.0793651 49.7614918,20.0793651 L48.888476,20.0793651 L48.888476,16.5873016 C48.888476,15.6243651 48.1053807,14.8412698 47.1424442,14.8412698 L44.6473649,14.8412698 L42.7695077,0.757777778 C42.7118887,0.323888889 42.3417299,0 41.904349,0 L12.2218093,0 C11.7844283,0 11.4142696,0.323888889 11.3566506,0.757777778 L9.47879342,14.8412698 L6.98371406,14.8412698 C6.02077755,14.8412698 5.23768231,15.6243651 5.23768231,16.5873016 L5.23768231,20.0793651 L4.36466644,20.0793651 C2.92069819,20.0793651 1.74561882,21.2544444 1.74561882,22.6984127 L1.74561882,27.0634921 C1.31871406,27.0634921 0.954666439,27.3725397 0.884825169,27.7924603 L0.0118092961,33.0305556 C-0.0300954658,33.2837302 0.0406188199,33.5421429 0.206491836,33.7385714 C0.372364852,33.935 0.61593628,34.047619 0.872602947,34.047619 L4.36466644,34.047619 C4.62133311,34.047619 4.86490453,33.935 5.03077755,33.7385714 C5.19665057,33.5421429 5.26736485,33.2837302 5.22546009,33.0305556 L4.35244422,27.7924603 C4.28260295,27.3725397 3.91855533,27.0634921 3.49165057,27.0634921 L3.49165057,22.6984127 C3.49165057,22.217381 3.88363469,21.8253968 4.36466644,21.8253968 L5.23768231,21.8253968 L5.23768231,25.3174603 C5.23768231,26.2803968 6.02077755,27.0634921 6.98371406,27.0634921 L7.84887279,27.0634921 L4.37252358,53.1387302 C4.33934898,53.3884127 4.41530136,53.6398413 4.58117438,53.8292857 C4.74704739,54.0187302 4.98625374,54.1269841 5.23768231,54.1269841 L48.888476,54.1269841 C49.1399045,54.1269841 49.3791109,54.0178571 49.5449839,53.8292857 C49.7108569,53.6407143 49.7868093,53.3884127 49.7536347,53.1387302 L46.2772855,27.0634921 L47.1424442,27.0634921 C48.1053807,27.0634921 48.888476,26.2803968 48.888476,25.3174603 L48.888476,21.8253968 L49.7614918,21.8253968 C50.2425236,21.8253968 50.6345077,22.217381 50.6345077,22.6984127 L50.6345077,27.0634921 C50.2076029,27.0634921 49.8435553,27.3725397 49.7737141,27.7924603 L48.9006982,33.0305556 C48.8587934,33.2837302 48.9295077,33.5421429 49.0953807,33.7385714 C49.2612537,33.935 49.5048252,34.047619 49.7614918,34.047619 L53.2535553,34.047619 C53.510222,34.047619 53.7537934,33.935 53.9196664,33.7385714 C54.0855395,33.5421429 54.1562537,33.2837302 54.114349,33.0305556 L53.2413331,27.7924603 Z M1.90363469,32.3015873 L2.48593628,28.8095238 L2.75307914,28.8095238 L3.33538072,32.3015873 L1.90363469,32.3015873 Z M42.8856188,14.8412698 L41.793476,14.8412698 L40.2656982,1.74603175 L41.1395871,1.74603175 L42.8856188,14.8412698 Z M20.5861744,5.30444444 L20.8821268,1.74603175 L23.5561744,1.74603175 L23.3379204,14.8412698 L14.0900633,14.8412698 L15.617841,1.74603175 L19.1299839,1.74603175 L18.8453807,5.15952381 L20.5861744,5.30444444 Z M25.3030791,1.74603175 L26.1900633,1.74603175 L26.1900633,14.8412698 L25.0848252,14.8412698 L25.3030791,1.74603175 Z M27.936095,1.74603175 L28.8230791,1.74603175 L29.0413331,14.8412698 L27.936095,14.8412698 L27.936095,1.74603175 Z M30.7882379,14.8412698 L30.5699839,1.74603175 L33.2440315,1.74603175 L33.5408569,5.30444444 L35.2807776,5.15952381 L34.9961744,1.74603175 L38.5083172,1.74603175 L40.036095,14.8412698 L30.7882379,14.8412698 Z M12.9856982,1.74603175 L13.8595871,1.74603175 L12.3318093,14.8412698 L11.2396664,14.8412698 L12.9856982,1.74603175 Z M9.61061882,27.0634921 L10.9061744,27.0634921 L7.95276168,52.3809524 L6.23466644,52.3809524 L9.61061882,27.0634921 Z M18.4027617,31.5010317 L18.7729204,27.0634921 L23.1345077,27.0634921 L22.712841,52.3809524 L16.662841,52.3809524 L16.9448252,48.9971429 L15.2049045,48.8522222 L14.9106982,52.3809524 L9.71101565,52.3809524 L12.6644283,27.0634921 L17.0207776,27.0634921 L16.662841,31.3561111 L18.4027617,31.5010317 Z M35.3532379,27.0634921 L35.7233966,31.5010317 L37.4633172,31.3561111 L37.1053807,27.0634921 L41.4617299,27.0634921 L44.4151426,52.3809524 L39.2154601,52.3809524 L38.9212537,48.8522222 L37.1813331,48.9971429 L37.4633172,52.3809524 L31.4133172,52.3809524 L30.9916506,27.0634921 L35.3532379,27.0634921 Z M29.2456188,27.0634921 L29.6672855,52.3809524 L27.936095,52.3809524 L27.936095,27.0634921 L29.2456188,27.0634921 Z M26.1900633,52.3809524 L24.4588728,52.3809524 L24.8805395,27.0634921 L26.1900633,27.0634921 L26.1900633,52.3809524 Z M47.8914918,52.3809524 L46.1733966,52.3809524 L43.2199839,27.0634921 L44.5155395,27.0634921 L47.8914918,52.3809524 Z M6.98371406,25.3174603 L6.98371406,16.5873016 L47.1424442,16.5873016 L47.1433172,25.3174603 L6.98371406,25.3174603 Z M50.7925236,32.3015873 L51.3748252,28.8095238 L51.641968,28.8095238 L52.2242696,32.3015873 L50.7925236,32.3015873 Z" id="Shape"></path>
                    <polygon id="Path" transform="translate(19.284548, 10.456845) rotate(-85.241114) translate(-19.284548, -10.456845) " points="17.5495238 9.58343711 21.0195728 9.58343711 21.0195728 11.3302527 17.5495238 11.3302527"></polygon>
                    <polygon id="Path" transform="translate(17.115803, 36.621510) rotate(-85.241114) translate(-17.115803, -36.621510) " points="15.3724808 35.7481022 18.8591246 35.7481022 18.8591246 37.4949177 15.3724808 37.4949177"></polygon>
                    <polygon id="Path" transform="translate(16.533542, 43.657914) rotate(-85.241114) translate(-16.533542, -43.657914) " points="14.783233 42.7845062 18.2838513 42.7845062 18.2838513 44.5313217 14.783233 44.5313217"></polygon>
                    <polygon id="Path" transform="translate(34.862863, 10.471395) rotate(-4.758886) translate(-34.862863, -10.471395) " points="33.9894549 8.73637003 35.7362704 8.73637003 35.7362704 12.2064191 33.9894549 12.2064191"></polygon>
                    <polygon id="Path" transform="translate(37.041891, 36.649073) rotate(-4.758886) translate(-37.041891, -36.649073) " points="36.1684829 34.9057509 37.9152984 34.9057509 37.9152984 38.3923947 36.1684829 38.3923947"></polygon>
                    <polygon id="Path" transform="translate(37.631072, 43.685622) rotate(-4.758886) translate(-37.631072, -43.685622) " points="36.7576647 41.9353126 38.5044802 41.9353126 38.5044802 45.4359309 36.7576647 45.4359309"></polygon>
                    <path d="M16.5868887,18.3333333 L9.60276168,18.3333333 C9.12085692,18.3333333 8.7297458,18.7244444 8.7297458,19.2063492 L8.7297458,22.6984127 C8.7297458,23.1803175 9.12085692,23.5714286 9.60276168,23.5714286 L16.5868887,23.5714286 C17.0687934,23.5714286 17.4599045,23.1803175 17.4599045,22.6984127 L17.4599045,19.2063492 C17.4599045,18.7244444 17.0687934,18.3333333 16.5868887,18.3333333 Z M15.7138728,21.8253968 L10.4757776,21.8253968 L10.4757776,20.0793651 L15.7138728,20.0793651 L15.7138728,21.8253968 Z" id="Shape"></path>
                    <path d="M44.5233966,18.3333333 L37.5392696,18.3333333 C37.0573649,18.3333333 36.6662537,18.7244444 36.6662537,19.2063492 L36.6662537,22.6984127 C36.6662537,23.1803175 37.0573649,23.5714286 37.5392696,23.5714286 L44.5233966,23.5714286 C45.0053014,23.5714286 45.3964125,23.1803175 45.3964125,22.6984127 L45.3964125,19.2063492 C45.3964125,18.7244444 45.0053014,18.3333333 44.5233966,18.3333333 Z M43.6503807,21.8253968 L38.4122855,21.8253968 L38.4122855,20.0793651 L43.6503807,20.0793651 L43.6503807,21.8253968 Z" id="Shape"></path>
                    <path d="M30.5551426,18.3333333 L23.5710156,18.3333333 C23.0891109,18.3333333 22.6979998,18.7244444 22.6979998,19.2063492 L22.6979998,22.6984127 C22.6979998,23.1803175 23.0891109,23.5714286 23.5710156,23.5714286 L30.5551426,23.5714286 C31.0370474,23.5714286 31.4281585,23.1803175 31.4281585,22.6984127 L31.4281585,19.2063492 C31.4281585,18.7244444 31.0370474,18.3333333 30.5551426,18.3333333 Z M29.6821268,21.8253968 L24.4440315,21.8253968 L24.4440315,20.0793651 L29.6821268,20.0793651 L29.6821268,21.8253968 Z" id="Shape"></path>
                </g>
            </g>
        </g>
    </g>
</svg>