<?xml version="1.0" encoding="UTF-8"?>
<svg width="44px" height="55px" viewBox="0 0 44 55" version="1.1" xmlns="http://www.w3.org/2000/svg" xmlns:xlink="http://www.w3.org/1999/xlink">
    <title>medical</title>
    <g id="Page-1" stroke="none" stroke-width="1" fill="none" fill-rule="evenodd">
        <g id="About" transform="translate(-699.000000, -2121.000000)" fill="#0D76BD" fill-rule="nonzero">
            <g id="Priorities" transform="translate(247.000000, 1892.000000)">
                <g id="medical" transform="translate(452.000000, 229.000000)">
                    <path d="M16.9365079,50.677512 L21.3015873,53.9521945 C21.6119929,54.1849988 22.0388007,54.1849988 22.3492063,53.9521945 L26.7142857,50.677512 C37.3510998,42.6611451 43.6192393,30.1255123 43.6507937,16.8062421 L43.6507937,9.60298817 C43.6507937,9.12083482 43.2599311,8.7299723 42.7777778,8.7299723 L38.5113492,8.7299723 C33.6462207,8.74304108 28.9780162,6.80942991 25.5470635,3.36005167 L22.442619,0.255607222 C22.1017065,-0.0852024072 21.5490872,-0.0852024072 21.2081746,0.255607222 L17.8479365,3.61584532 C14.5801264,6.90121461 10.1337967,8.74274455 5.5,8.7299723 L0.873015873,8.7299723 C0.39086252,8.7299723 0,9.12083482 0,9.60298817 L0,16.8062421 C0.0315543323,30.1255123 6.2996938,42.6611451 16.9365079,50.677512 Z M1.74603175,10.476004 L5.5,10.476004 C10.5971229,10.4901282 15.4880254,8.46435528 19.082381,4.85028976 L21.8253968,2.10727389 L24.312619,4.59449611 C28.0701171,8.37257055 33.1828944,10.4904247 38.5113492,10.476004 L41.9047619,10.476004 L41.9047619,16.8062421 C41.8751193,29.576874 35.8653866,41.5963394 25.6666667,49.2824326 L21.8253968,52.162512 L17.984127,49.2815596 C7.78565152,41.5956516 1.77594748,29.5765666 1.74603175,16.8062421 L1.74603175,10.476004 Z" id="Shape"></path>
                    <path d="M34.9206349,27.0633056 C34.9206349,19.8310053 29.0576971,13.9680675 21.8253968,13.9680675 C14.5930965,13.9680675 8.73015873,19.8310053 8.73015873,27.0633056 C8.73015873,34.2956059 14.5930965,40.1585437 21.8253968,40.1585437 C29.0543066,40.1503649 34.9124561,34.2922154 34.9206349,27.0633056 Z M10.4761905,27.0633056 C10.4761905,20.795312 15.5574032,15.7140993 21.8253968,15.7140993 C28.0933904,15.7140993 33.1746032,20.795312 33.1746032,27.0633056 C33.1746032,33.3312992 28.0933904,38.412512 21.8253968,38.412512 C15.5603948,38.4052956 10.4834068,33.3283077 10.4761905,27.0633056 Z" id="Shape"></path>
                    <path d="M25.3174603,34.9204485 L25.3174603,30.5553691 L29.6825397,30.5553691 C30.164693,30.5553691 30.5555556,30.1645066 30.5555556,29.6823533 L30.5555556,24.444258 C30.5555556,23.9621047 30.164693,23.5712421 29.6825397,23.5712421 L25.3174603,23.5712421 L25.3174603,19.2061628 C25.3174603,18.7240094 24.9265978,18.3331469 24.4444444,18.3331469 L19.2063492,18.3331469 C18.7241959,18.3331469 18.3333333,18.7240094 18.3333333,19.2061628 L18.3333333,23.5712421 L13.968254,23.5712421 C13.4861006,23.5712421 13.0952381,23.9621047 13.0952381,24.444258 L13.0952381,29.6823533 C13.0952381,30.1645066 13.4861006,30.5553691 13.968254,30.5553691 L18.3333333,30.5553691 L18.3333333,34.9204485 C18.3333333,35.4026018 18.7241959,35.7934644 19.2063492,35.7934644 L24.4444444,35.7934644 C24.9265978,35.7934644 25.3174603,35.4026018 25.3174603,34.9204485 Z M23.5714286,29.6823533 L23.5714286,34.0474326 L20.0793651,34.0474326 L20.0793651,29.6823533 C20.0793651,29.2001999 19.6885026,28.8093374 19.2063492,28.8093374 L14.8412698,28.8093374 L14.8412698,25.3172739 L19.2063492,25.3172739 C19.6885026,25.3172739 20.0793651,24.9264114 20.0793651,24.444258 L20.0793651,20.0791787 L23.5714286,20.0791787 L23.5714286,24.444258 C23.5714286,24.9264114 23.9622911,25.3172739 24.4444444,25.3172739 L28.8095238,25.3172739 L28.8095238,28.8093374 L24.4444444,28.8093374 C23.9622911,28.8093374 23.5714286,29.2001999 23.5714286,29.6823533 Z" id="Shape"></path>
                </g>
            </g>
        </g>
    </g>
</svg>