<?xml version="1.0" encoding="UTF-8"?>
<svg width="55px" height="55px" viewBox="0 0 55 55" version="1.1" xmlns="http://www.w3.org/2000/svg" xmlns:xlink="http://www.w3.org/1999/xlink">
    <title>equity</title>
    <g id="Page-1" stroke="none" stroke-width="1" fill="none" fill-rule="evenodd">
        <g id="About" transform="translate(-1019.000000, -2121.000000)" fill="#0D76BD" fill-rule="nonzero">
            <g id="Priorities" transform="translate(247.000000, 1892.000000)">
                <g id="equity" transform="translate(772.000000, 229.000000)">
                    <path d="M51.5079365,19.2213641 L47.683254,19.2213641 C51.7646434,16.522626 53.4328961,11.3571492 51.7010345,6.78095174 C49.9691729,2.20475432 45.2989898,-0.561941825 40.4534758,0.117706032 C35.6079617,0.79735389 31.8791507,4.74212079 31.4730952,9.61818954 L29.6825397,9.61818954 L29.6825397,11.3642213 L31.4730952,11.3642213 C31.7410328,14.5570298 33.4553088,17.4516796 36.1262698,19.2213641 L31.2679365,19.2213641 C30.8993016,18.1786769 29.9154476,17.479917 28.8095238,17.4753324 L25.3174603,17.4753324 C24.2115365,17.479917 23.2276825,18.1786769 22.8590476,19.2213641 L18.0007143,19.2213641 C20.6716754,17.4516796 22.3859513,14.5570298 22.6538889,11.3642213 L24.4444444,11.3642213 L24.4444444,9.61818954 L22.6538889,9.61818954 C22.2524319,4.73658397 18.5220555,0.784731896 13.6716863,0.102705891 C8.82131711,-0.579320115 4.14577784,2.19054912 2.41366936,6.7721472 C0.681560894,11.3537453 2.35527551,16.5239989 6.44373016,19.2213641 L2.61904762,19.2213641 C1.17258756,19.2213641 0,20.3939517 0,21.8404118 C0,23.2868718 1.17258756,24.4594594 2.61904762,24.4594594 L10.4761905,24.4594594 L10.4761905,26.2500149 C5.36367067,26.716722 1.52238264,31.1219247 1.75597811,36.2503852 C1.98957359,41.3788457 6.21542857,45.4165993 11.3492063,45.4165993 C16.4829841,45.4165993 20.7088391,41.3788457 20.9424346,36.2503852 C21.1760301,31.1219247 17.334742,26.716722 12.2222222,26.2500149 L12.2222222,24.4594594 L22.8590476,24.4594594 C23.1231617,25.1988471 23.7050568,25.7807421 24.4444444,26.0448562 L24.4444444,43.6658086 L20.0793651,43.6658086 C18.632905,43.6658086 17.4603175,44.8383962 17.4603175,46.2848562 L17.4603175,47.2451737 C15.4293187,47.662853 13.9708715,49.4494507 13.968254,51.5229514 L13.968254,53.2689832 C13.968254,53.7511365 14.3591165,54.1419991 14.8412698,54.1419991 L39.2857143,54.1419991 C39.7678676,54.1419991 40.1587302,53.7511365 40.1587302,53.2689832 L40.1587302,51.5229514 C40.1561126,49.4494507 38.6976655,47.662853 36.6666667,47.2451737 L36.6666667,46.2848562 C36.6666667,44.8383962 35.4940791,43.6658086 34.047619,43.6658086 L29.6825397,43.6658086 L29.6825397,26.0448562 C30.4219274,25.7807421 31.0038224,25.1988471 31.2679365,24.4594594 L41.9047619,24.4594594 L41.9047619,26.2500149 C36.7922421,26.716722 32.9509541,31.1219247 33.1845495,36.2503852 C33.418145,41.3788457 37.644,45.4165993 42.7777778,45.4165993 C47.9115556,45.4165993 52.1374105,41.3788457 52.371006,36.2503852 C52.6046015,31.1219247 48.7633135,26.716722 43.6507937,26.2500149 L43.6507937,24.4594594 L51.5079365,24.4594594 C52.9543966,24.4594594 54.1269841,23.2868718 54.1269841,21.8404118 C54.1269841,20.3939517 52.9543966,19.2213641 51.5079365,19.2213641 Z M13.5029365,31.5562054 C12.7905556,31.4846181 12.0668254,31.4435864 11.3492063,31.4435864 C10.6315873,31.4435864 9.90785714,31.4846181 9.19547619,31.5562054 C9.73674603,29.2828721 10.6507937,27.9515229 11.3492063,27.9515229 C12.047619,27.9515229 12.9616667,29.2828721 13.5029365,31.5562054 Z M19.2063492,35.8086657 C19.2063492,36.5070784 17.875,37.4211261 15.6016667,37.9623959 C15.673254,37.2500149 15.7142857,36.5262848 15.7142857,35.8086657 C15.7142857,35.0910467 15.673254,34.3673165 15.6016667,33.6549356 C17.875,34.1962054 19.2063492,35.110253 19.2063492,35.8086657 Z M13.9682877,35.8086657 C13.9697617,36.6350106 13.9207815,37.4606757 13.8215873,38.2810467 C12.1791336,38.4765999 10.5192791,38.4765999 8.8768254,38.2810467 C8.68127219,36.638593 8.68127219,34.9787385 8.8768254,33.3362848 C10.5192791,33.1407316 12.1791336,33.1407316 13.8215873,33.3362848 C13.9207815,34.1566558 13.9697617,34.9823209 13.9682877,35.8086657 L13.9682877,35.8086657 Z M11.3492063,43.6658086 C10.6507937,43.6658086 9.73674603,42.3344594 9.19547619,40.0611261 C9.90785714,40.1327134 10.6315873,40.1737451 11.3492063,40.1737451 C12.0668254,40.1737451 12.7905556,40.1327134 13.5029365,40.0611261 C12.9616667,42.3344594 12.0519841,43.6658086 11.3492063,43.6658086 Z M3.49206349,35.8086657 C3.49206349,35.110253 4.8234127,34.1962054 7.09674603,33.6549356 C7.02515873,34.3673165 6.98412698,35.0910467 6.98412698,35.8086657 C6.98412698,36.5262848 7.02515873,37.2500149 7.09674603,37.9623959 C4.8234127,37.4211261 3.49206349,36.5114435 3.49206349,35.8086657 Z M8.4481746,28.5137451 C7.93856382,29.5634489 7.57464798,30.6778127 7.36650794,31.8259673 C6.21661546,32.0338691 5.10048941,32.397785 4.04904762,32.907634 C4.85231242,30.9026887 6.44227374,29.3146206 8.4481746,28.5137451 L8.4481746,28.5137451 Z M4.0534127,38.7096975 C5.10485449,39.2195465 6.22098054,39.5834623 7.37087302,39.7913641 C7.57901306,40.9395188 7.9429289,42.0538825 8.45253968,43.1035864 C6.44663882,42.3027109 4.8566775,40.7146427 4.0534127,38.7096975 L4.0534127,38.7096975 Z M14.2502381,43.1044594 C14.7600871,42.0530176 15.124003,40.9368915 15.3319048,39.7869991 C16.4803023,39.5787136 17.594935,39.2148058 18.645,38.7053324 C17.8438368,40.7113468 16.2554562,42.3013051 14.2502381,43.1044594 L14.2502381,43.1044594 Z M18.645,32.907634 C17.594935,32.3981606 16.4803023,32.0342528 15.3319048,31.8259673 C15.124003,30.6760748 14.7600871,29.5599488 14.2502381,28.508507 C16.2554562,29.3116613 17.8438368,30.9016196 18.645,32.907634 Z M50.6349206,35.8086657 C50.6349206,40.1480459 47.117158,43.6658086 42.7777778,43.6658086 C38.4383976,43.6658086 34.9206349,40.1480459 34.9206349,35.8086657 C34.9206349,31.4692856 38.4383976,27.9515229 42.7777778,27.9515229 C47.1151635,27.9563342 50.6301093,31.47128 50.6349206,35.8086657 L50.6349206,35.8086657 Z M33.1745964,10.4912054 C33.1696802,6.52772403 35.8353661,3.05827335 39.6663559,2.04204205 C43.4973457,1.02581075 47.532196,2.71783707 49.4924385,6.16263868 C51.452681,9.60744029 50.8463641,13.9404934 48.015873,16.7149356 L48.015873,15.7293007 C48.0041366,13.6771356 46.967185,11.76672 45.2527778,10.6387451 C45.9054877,9.86420512 46.2654534,8.88503643 46.2698413,7.8721578 C46.2698413,5.46139103 44.3155287,3.50707843 41.9047619,3.50707843 C39.4939951,3.50707843 37.5396825,5.46139103 37.5396825,7.8721578 C37.5440704,8.88503643 37.9040361,9.86420512 38.556746,10.6387451 C36.8423389,11.76672 35.8053872,13.6771356 35.7936508,15.7293007 L35.7936508,16.7149356 C34.1182115,15.0776518 33.173966,12.8338097 33.1745964,10.4912054 L33.1745964,10.4912054 Z M39.2857143,7.8721578 C39.2857143,6.42569774 40.4583018,5.25311018 41.9047619,5.25311018 C43.351222,5.25311018 44.5238095,6.42569774 44.5238095,7.8721578 C44.5238095,9.31861786 43.351222,10.4912054 41.9047619,10.4912054 C40.4583018,10.4912054 39.2857143,9.31861786 39.2857143,7.8721578 Z M37.5396825,18.0401737 L37.5396825,15.7293007 C37.5496054,14.0502706 38.5179601,12.5245016 40.0330159,11.8007292 C41.2124242,12.3851249 42.5970996,12.3851249 43.7765079,11.8007292 C45.2915637,12.5245016 46.2599184,14.0502706 46.2698413,15.7293007 L46.2698413,18.0401737 C43.5728865,19.6151364 40.2366373,19.6151364 37.5396825,18.0401737 L37.5396825,18.0401737 Z M3.49205668,10.4912054 C3.4871405,6.52772403 6.15282645,3.05827335 9.98381625,2.04204205 C13.814806,1.02581075 17.8496563,2.71783707 19.8098988,6.16263868 C21.7701414,9.60744029 21.1638244,13.9404934 18.3333333,16.7149356 L18.3333333,15.7293007 C18.321597,13.6771356 17.2846453,11.76672 15.5702381,10.6387451 C16.222948,9.86420512 16.5829138,8.88503643 16.5873016,7.8721578 C16.5873016,5.46139103 14.632989,3.50707843 12.2222222,3.50707843 C9.81145546,3.50707843 7.85714286,5.46139103 7.85714286,7.8721578 C7.86153069,8.88503643 8.22149646,9.86420512 8.87420635,10.6387451 C7.15979917,11.76672 6.12284749,13.6771356 6.11111111,15.7293007 L6.11111111,16.7149356 C4.43567181,15.0776518 3.49142629,12.8338097 3.49205668,10.4912054 L3.49205668,10.4912054 Z M9.6031746,7.8721578 C9.6031746,6.42569774 10.7757622,5.25311018 12.2222222,5.25311018 C13.6686823,5.25311018 14.8412698,6.42569774 14.8412698,7.8721578 C14.8412698,9.31861786 13.6686823,10.4912054 12.2222222,10.4912054 C10.7757622,10.4912054 9.6031746,9.31861786 9.6031746,7.8721578 Z M7.85714286,18.0401737 L7.85714286,15.7293007 C7.86706571,14.0502706 8.83542039,12.5245016 10.3504762,11.8007292 C11.5298845,12.3851249 12.91456,12.3851249 14.0939683,11.8007292 C15.609024,12.5245016 16.5773787,14.0502706 16.5873016,15.7293007 L16.5873016,18.0401737 C13.8903468,19.6151364 10.5540976,19.6151364 7.85714286,18.0401737 L7.85714286,18.0401737 Z M1.74603175,21.8404118 C1.74603175,21.3582584 2.13689427,20.9673959 2.61904762,20.9673959 L22.6984127,20.9673959 L22.6984127,22.7134276 L2.61904762,22.7134276 C2.13689427,22.7134276 1.74603175,22.3225651 1.74603175,21.8404118 Z M38.4126984,51.5229514 L38.4126984,52.3959673 L15.7142857,52.3959673 L15.7142857,51.5229514 C15.7142857,50.0764914 16.8868733,48.9039038 18.3333333,48.9039038 L35.7936508,48.9039038 C37.2401109,48.9039038 38.4126984,50.0764914 38.4126984,51.5229514 Z M34.9206349,46.2848562 L34.9206349,47.1578721 L19.2063492,47.1578721 L19.2063492,46.2848562 C19.2063492,45.8027029 19.5972117,45.4118403 20.0793651,45.4118403 L34.047619,45.4118403 C34.5297724,45.4118403 34.9206349,45.8027029 34.9206349,46.2848562 Z M26.1904762,43.6658086 L26.1904762,26.2054911 L27.9365079,26.2054911 L27.9365079,43.6658086 L26.1904762,43.6658086 Z M29.6825397,23.5864435 C29.6825397,24.0685969 29.2916772,24.4594594 28.8095238,24.4594594 L25.3174603,24.4594594 C24.835307,24.4594594 24.4444444,24.0685969 24.4444444,23.5864435 L24.4444444,20.09438 C24.4444444,19.6122267 24.835307,19.2213641 25.3174603,19.2213641 L28.8095238,19.2213641 C29.2916772,19.2213641 29.6825397,19.6122267 29.6825397,20.09438 L29.6825397,23.5864435 Z M51.5079365,22.7134276 L31.4285714,22.7134276 L31.4285714,20.9673959 L51.5079365,20.9673959 C51.9900899,20.9673959 52.3809524,21.3582584 52.3809524,21.8404118 C52.3809524,22.3225651 51.9900899,22.7134276 51.5079365,22.7134276 Z" id="Shape"></path>
                    <path d="M41.9047619,28.8245387 L41.9047619,29.8215229 C40.2038876,30.2592929 39.0945236,31.8943075 39.3162412,33.6365639 C39.5379587,35.3788203 41.0214716,36.6838683 42.7777778,36.6816816 C43.7420845,36.6816816 44.5238095,37.4634066 44.5238095,38.4277134 C44.5238095,39.3920201 43.7420845,40.1737451 42.7777778,40.1737451 C41.8134711,40.1737451 41.031746,39.3920201 41.031746,38.4277134 L39.2857143,38.4277134 C39.2916637,40.0152156 40.3676558,41.3989414 41.9047619,41.7958086 L41.9047619,42.7927927 L43.6507937,42.7927927 L43.6507937,41.7958086 C45.351668,41.3580385 46.4610319,39.723024 46.2393144,37.9807676 C46.0175969,36.2385111 44.5340839,34.9334631 42.7777778,34.9356499 C41.8134711,34.9356499 41.031746,34.1539248 41.031746,33.1896181 C41.031746,32.2253114 41.8134711,31.4435864 42.7777778,31.4435864 C43.7420845,31.4435864 44.5238095,32.2253114 44.5238095,33.1896181 L46.2698413,33.1896181 C46.2638918,31.6021159 45.1878997,30.2183901 43.6507937,29.8215229 L43.6507937,28.8245387 L41.9047619,28.8245387 Z" id="Path"></path>
                    <rect id="Rectangle" x="26.1904762" y="9.61818954" width="1.74603175" height="1.74603175"></rect>
                </g>
            </g>
        </g>
    </g>
</svg>