<?xml version="1.0" encoding="UTF-8"?>
<svg width="250px" height="187px" viewBox="0 0 250 187" version="1.1" xmlns="http://www.w3.org/2000/svg" xmlns:xlink="http://www.w3.org/1999/xlink">
    <title>Group 120</title>
    <defs>
        <polygon id="path-1" points="0 0 27.1251203 0 27.1251203 24.9713504 0 24.9713504"></polygon>
        <polygon id="path-3" points="0 186.33987 250 186.33987 250 0 0 0"></polygon>
    </defs>
    <g id="Page-1" stroke="none" stroke-width="1" fill="none" fill-rule="evenodd">
        <g id="Mobile_Home" transform="translate(-55.000000, -7436.000000)">
            <g id="Visionary" transform="translate(25.000000, 6904.000000)">
                <g id="Group-120" transform="translate(30.000000, 532.000000)">
                    <path d="M148.914096,70.581197 L146.486715,70.581197 C146.085015,70.581197 145.758602,70.254784 145.758602,69.8530838 C145.758602,69.4508784 146.085015,69.1249707 146.486715,69.1249707 L148.914096,69.1249707 C149.316301,69.1249707 149.642209,69.4508784 149.642209,69.8530838 C149.642209,70.254784 149.316301,70.581197 148.914096,70.581197" id="Fill-1" fill="#0D76BD"></path>
                    <path d="M157.175982,70.581197 L153.044786,70.581197 C152.643086,70.581197 152.316673,70.254784 152.316673,69.8530838 C152.316673,69.4508784 152.643086,69.1249707 153.044786,69.1249707 L157.175982,69.1249707 C157.578188,69.1249707 157.904095,69.4508784 157.904095,69.8530838 C157.904095,70.254784 157.578188,70.581197 157.175982,70.581197 M165.436858,70.581197 L161.306673,70.581197 C160.904972,70.581197 160.578559,70.254784 160.578559,69.8530838 C160.578559,69.4508784 160.904972,69.1249707 161.306673,69.1249707 L165.436858,69.1249707 C165.839063,69.1249707 166.164971,69.4508784 166.164971,69.8530838 C166.164971,70.254784 165.839063,70.581197 165.436858,70.581197 M173.698744,70.581197 L169.567548,70.581197 C169.165848,70.581197 168.839435,70.254784 168.839435,69.8530838 C168.839435,69.4508784 169.165848,69.1249707 169.567548,69.1249707 L173.698744,69.1249707 C174.10095,69.1249707 174.426857,69.4508784 174.426857,69.8530838 C174.426857,70.254784 174.10095,70.581197 173.698744,70.581197" id="Fill-3" fill="#0D76BD"></path>
                    <path d="M180.256765,70.581197 L177.829384,70.581197 C177.427684,70.581197 177.101271,70.254784 177.101271,69.8530838 C177.101271,69.4508784 177.427684,69.1249707 177.829384,69.1249707 L179.528652,69.1249707 L179.528652,67.4257032 C179.528652,67.024003 179.854559,66.69759 180.256765,66.69759 C180.65897,66.69759 180.984878,67.024003 180.984878,67.4257032 L180.984878,69.8530838 C180.984878,70.254784 180.65897,70.581197 180.256765,70.581197" id="Fill-5" fill="#0D76BD"></path>
                    <path d="M180.256765,34.6553059 C179.854559,34.6553059 179.528652,34.3293982 179.528652,33.9271927 L179.528652,29.1421604 C179.528652,28.739955 179.854559,28.4140473 180.256765,28.4140473 C180.65897,28.4140473 180.984878,28.739955 180.984878,29.1421604 L180.984878,33.9271927 C180.984878,34.3293982 180.65897,34.6553059 180.256765,34.6553059 M180.256765,44.226381 C179.854559,44.226381 179.528652,43.9004733 179.528652,43.4982679 L179.528652,38.7132356 C179.528652,38.3110301 179.854559,37.9851224 180.256765,37.9851224 C180.65897,37.9851224 180.984878,38.3110301 180.984878,38.7132356 L180.984878,43.4982679 C180.984878,43.9004733 180.65897,44.226381 180.256765,44.226381 M180.256765,53.7969509 C179.854559,53.7969509 179.528652,53.4705379 179.528652,53.0683325 L179.528652,48.2833002 C179.528652,47.8816 179.854559,47.555187 180.256765,47.555187 C180.65897,47.555187 180.984878,47.8816 180.984878,48.2833002 L180.984878,53.0683325 C180.984878,53.4705379 180.65897,53.7969509 180.256765,53.7969509 M180.256765,63.3680261 C179.854559,63.3680261 179.528652,63.0416131 179.528652,62.6399129 L179.528652,57.8548806 C179.528652,57.4526752 179.854559,57.1262622 180.256765,57.1262622 C180.65897,57.1262622 180.984878,57.4526752 180.984878,57.8548806 L180.984878,62.6399129 C180.984878,63.0416131 180.65897,63.3680261 180.256765,63.3680261" id="Fill-7" fill="#0D76BD"></path>
                    <path d="M180.256765,25.0850897 C179.854559,25.0850897 179.528652,24.7586767 179.528652,24.3569765 L179.528652,21.9295959 C179.528652,21.5278957 179.854559,21.2014827 180.256765,21.2014827 C180.65897,21.2014827 180.984878,21.5278957 180.984878,21.9295959 L180.984878,24.3569765 C180.984878,24.7586767 180.65897,25.0850897 180.256765,25.0850897" id="Fill-9" fill="#0D76BD"></path>
                    <path d="M180.256765,1.45627683 C174.814359,1.45627683 170.388078,5.88306331 170.388078,11.3249638 C170.388078,16.7709066 174.814359,21.2017353 180.256765,21.2017353 C185.699171,21.2017353 190.125452,16.7709066 190.125452,11.3249638 C190.125452,5.88306331 185.699171,1.45627683 180.256765,1.45627683 M180.256765,22.6579616 C174.012474,22.6579616 168.931346,17.574307 168.931346,11.3249638 C168.931346,5.08067352 174.012474,5.05283241e-05 180.256765,5.05283241e-05 C186.501055,5.05283241e-05 191.582183,5.08067352 191.582183,11.3249638 C191.582183,17.574307 186.501055,22.6579616 180.256765,22.6579616" id="Fill-11" fill="#0D76BD"></path>
                    <path d="M180.256765,1.45627683 C178.57973,1.45627683 176.704118,5.67640246 176.704118,11.3249638 C176.704118,16.9780727 178.57973,21.2017353 180.256765,21.2017353 C181.936832,21.2017353 183.809411,17.1458268 183.809411,11.3249638 C183.809411,5.67640246 181.9338,1.45627683 180.256765,1.45627683 M180.256765,22.6579616 C177.400904,22.6579616 175.247892,17.7855153 175.247892,11.3249638 C175.247892,4.86845456 177.400904,5.05283241e-05 180.256765,5.05283241e-05 C183.112626,5.05283241e-05 185.265638,4.86845456 185.265638,11.3249638 C185.265638,17.7855153 183.112626,22.6579616 180.256765,22.6579616" id="Fill-13" fill="#0D76BD"></path>
                    <path d="M189.213567,7.05011601 L170.968294,7.05011601 C170.566089,7.05011601 170.240181,6.72420832 170.240181,6.32200286 C170.240181,5.9197974 170.566089,5.59388971 170.968294,5.59388971 L189.213567,5.59388971 C189.615773,5.59388971 189.94168,5.9197974 189.94168,6.32200286 C189.94168,6.72420832 189.615773,7.05011601 189.213567,7.05011601" id="Fill-15" fill="#0D76BD"></path>
                    <path d="M190.853818,12.0571192 L169.659712,12.0571192 C169.257506,12.0571192 168.931599,11.7307063 168.931599,11.3290061 C168.931599,10.9268006 169.257506,10.6008929 169.659712,10.6008929 L190.853818,10.6008929 C191.256023,10.6008929 191.581931,10.9268006 191.581931,11.3290061 C191.581931,11.7307063 191.256023,12.0571192 190.853818,12.0571192" id="Fill-17" fill="#0D76BD"></path>
                    <path d="M189.213567,17.0631624 L170.968294,17.0631624 C170.566089,17.0631624 170.240181,16.7372547 170.240181,16.3350493 C170.240181,15.9328438 170.566089,15.6069361 170.968294,15.6069361 L189.213567,15.6069361 C189.615773,15.6069361 189.94168,15.9328438 189.94168,16.3350493 C189.94168,16.7372547 189.615773,17.0631624 189.213567,17.0631624" id="Fill-19" fill="#0D76BD"></path>
                    <path d="M91.2717878,67.5756712 L88.8444071,67.5756712 C88.4427069,67.5756712 88.116294,67.2492582 88.116294,66.8475581 C88.116294,66.4453526 88.4427069,66.1194449 88.8444071,66.1194449 L91.2717878,66.1194449 C91.6739933,66.1194449 91.999901,66.4453526 91.999901,66.8475581 C91.999901,67.2492582 91.6739933,67.5756712 91.2717878,67.5756712" id="Fill-21" fill="#0D76BD"></path>
                    <path d="M73.5363966,67.5756712 L68.4335411,67.5756712 C68.0318409,67.5756712 67.705428,67.2492582 67.705428,66.8475581 C67.705428,66.4453526 68.0318409,66.1194449 68.4335411,66.1194449 L73.5363966,66.1194449 C73.938602,66.1194449 74.2645097,66.4453526 74.2645097,66.8475581 C74.2645097,67.2492582 73.938602,67.5756712 73.5363966,67.5756712 M83.7421075,67.5756712 L78.639252,67.5756712 C78.2370466,67.5756712 77.9111389,67.2492582 77.9111389,66.8475581 C77.9111389,66.4453526 78.2370466,66.1194449 78.639252,66.1194449 L83.7421075,66.1194449 C84.1438077,66.1194449 84.4702206,66.4453526 84.4702206,66.8475581 C84.4702206,67.2492582 84.1438077,67.5756712 83.7421075,67.5756712" id="Fill-23" fill="#0D76BD"></path>
                    <path d="M63.3309383,67.5756712 L60.9035576,67.5756712 C60.5018574,67.5756712 60.1754444,67.2492582 60.1754444,66.8475581 L60.1754444,64.4201774 C60.1754444,64.0184772 60.5018574,63.6920642 60.9035576,63.6920642 C61.3057631,63.6920642 61.632176,64.0184772 61.632176,64.4201774 L61.632176,66.1194449 L63.3309383,66.1194449 C63.7331438,66.1194449 64.0590514,66.4453526 64.0590514,66.8475581 C64.0590514,67.2492582 63.7331438,67.5756712 63.3309383,67.5756712" id="Fill-25" fill="#0D76BD"></path>
                    <path d="M60.9037597,34.6353977 C60.5015543,34.6353977 60.1756466,34.30949 60.1756466,33.9072846 L60.1756466,29.5487113 C60.1756466,29.1470111 60.5015543,28.8205982 60.9037597,28.8205982 C61.3059652,28.8205982 61.6318729,29.1470111 61.6318729,29.5487113 L61.6318729,33.9072846 C61.6318729,34.30949 61.3059652,34.6353977 60.9037597,34.6353977 M60.9037597,43.3535548 C60.5015543,43.3535548 60.1756466,43.0271418 60.1756466,42.6249363 L60.1756466,38.2668684 C60.1756466,37.8646629 60.5015543,37.5387552 60.9037597,37.5387552 C61.3059652,37.5387552 61.6318729,37.8646629 61.6318729,38.2668684 L61.6318729,42.6249363 C61.6318729,43.0271418 61.3059652,43.3535548 60.9037597,43.3535548 M60.9037597,52.0712065 C60.5015543,52.0712065 60.1756466,51.7447936 60.1756466,51.3430934 L60.1756466,46.9845201 C60.1756466,46.5823147 60.5015543,46.256407 60.9037597,46.256407 C61.3059652,46.256407 61.6318729,46.5823147 61.6318729,46.9845201 L61.6318729,51.3430934 C61.6318729,51.7447936 61.3059652,52.0712065 60.9037597,52.0712065 M60.9037597,60.7888583 C60.5015543,60.7888583 60.1756466,60.4629506 60.1756466,60.0607452 L60.1756466,55.7026772 C60.1756466,55.3004717 60.5015543,54.9740588 60.9037597,54.9740588 C61.3059652,54.9740588 61.6318729,55.3004717 61.6318729,55.7026772 L61.6318729,60.0607452 C61.6318729,60.4629506 61.3059652,60.7888583 60.9037597,60.7888583" id="Fill-27" fill="#0D76BD"></path>
                    <path d="M60.9037597,25.9185039 C60.5015543,25.9185039 60.1756466,25.5925962 60.1756466,25.1903907 L60.1756466,22.76301 C60.1756466,22.3613099 60.5015543,22.0348969 60.9037597,22.0348969 C61.3059652,22.0348969 61.6318729,22.3613099 61.6318729,22.76301 L61.6318729,25.1903907 C61.6318729,25.5925962 61.3059652,25.9185039 60.9037597,25.9185039" id="Fill-29" fill="#0D76BD"></path>
                    <g id="Group-33" transform="translate(54.488128, 0.000000)">
                        <mask id="mask-2" fill="white">
                            <use xlink:href="#path-1"></use>
                        </mask>
                        <g id="Clip-32"></g>
                        <path d="M13.3425093,18.5355578 L15.4409506,18.5355578 C15.6056729,18.5355578 15.7648371,18.5916442 15.8936844,18.6937114 L20.9717809,22.7339562 L20.9717809,19.2636709 C20.9717809,18.8614655 21.2981939,18.5355578 21.6998941,18.5355578 L23.6760569,18.5355578 C24.7750479,18.5355578 25.668894,17.6412065 25.668894,16.5427207 L25.668894,3.44830548 C25.668894,2.350325 24.7750479,1.45647894 23.6760569,1.45647894 L3.44805284,1.45647894 C2.35007236,1.45647894 1.4562263,2.350325 1.4562263,3.44830548 L1.4562263,3.55441496 L9.89445644,3.55441496 C11.795332,3.55441496 13.3425093,5.10159225 13.3425093,7.00347837 L13.3425093,18.5355578 Z M21.6998941,24.9713504 C21.5387087,24.9713504 21.3775234,24.9172851 21.2471603,24.8131968 L15.1867931,19.9917841 L12.6143961,19.9917841 C12.2121907,19.9917841 11.886283,19.6658764 11.886283,19.2636709 L11.886283,7.00347837 C11.886283,5.9049926 10.9919316,5.01064127 9.89445644,5.01064127 L0.728113151,5.01064127 C0.325907691,5.01064127 0,4.68473357 0,4.28252811 L0,3.44830548 C0,1.54742993 1.54717729,-0.000252641621 3.44805284,-0.000252641621 L23.6760569,-0.000252641621 C25.577943,-0.000252641621 27.1251203,1.54742993 27.1251203,3.44830548 L27.1251203,16.5427207 C27.1251203,18.4446068 25.577943,19.9917841 23.6760569,19.9917841 L22.4285125,19.9917841 L22.4285125,24.2432373 C22.4285125,24.5226589 22.2678325,24.777827 22.0167067,24.8990949 C21.9161553,24.9476021 21.8080247,24.9713504 21.6998941,24.9713504 L21.6998941,24.9713504 Z" id="Fill-31" fill="#0D76BD" mask="url(#mask-2)"></path>
                    </g>
                    <path d="M44.1544287,5.01074232 C43.0554377,5.01074232 42.1615916,5.90458838 42.1615916,7.00357943 L42.1615916,20.0969841 C42.1615916,21.1959751 43.0554377,22.0898212 44.1544287,22.0898212 L46.1300862,22.0898212 C46.5322916,22.0898212 46.8581993,22.4162341 46.8581993,22.8179343 L46.8581993,26.2882196 L51.9362959,22.2484801 C52.0656484,22.1459076 52.2248126,22.0898212 52.389535,22.0898212 L64.3824327,22.0898212 C65.4804132,22.0898212 66.3742593,21.1959751 66.3742593,20.0969841 L66.3742593,7.00357943 C66.3742593,5.90458838 65.4804132,5.01074232 64.3824327,5.01074232 L44.1544287,5.01074232 Z M46.1300862,28.5266244 C46.0219556,28.5266244 45.9143302,28.5028761 45.8137789,28.4548742 C45.5621478,28.3331009 45.401973,28.0784381 45.401973,27.7985112 L45.401973,23.5465528 L44.1544287,23.5465528 C42.2525426,23.5465528 40.7053653,21.9988702 40.7053653,20.0969841 L40.7053653,7.00357943 C40.7053653,5.10169331 42.2525426,3.55451602 44.1544287,3.55451602 L64.3824327,3.55451602 C66.2833083,3.55451602 67.8304856,5.10169331 67.8304856,7.00357943 L67.8304856,20.0969841 C67.8304856,21.9988702 66.2833083,23.5465528 64.3824327,23.5465528 L52.6436924,23.5465528 L46.5833252,28.3684707 C46.4524569,28.4725591 46.2912715,28.5266244 46.1300862,28.5266244 L46.1300862,28.5266244 Z" id="Fill-34" fill="#0D76BD"></path>
                    <path d="M62.0187682,10.1352744 L46.5161731,10.1352744 C46.1139676,10.1352744 45.78806,9.80936674 45.78806,9.40716128 C45.78806,9.00495582 46.1139676,8.67904813 46.5161731,8.67904813 L62.0187682,8.67904813 C62.4209737,8.67904813 62.7468814,9.00495582 62.7468814,9.40716128 C62.7468814,9.80936674 62.4209737,10.1352744 62.0187682,10.1352744" id="Fill-36" fill="#0D76BD"></path>
                    <path d="M62.0187682,14.4795482 L46.5161731,14.4795482 C46.1139676,14.4795482 45.78806,14.1531352 45.78806,13.751435 C45.78806,13.3492295 46.1139676,13.0233219 46.5161731,13.0233219 L62.0187682,13.0233219 C62.4209737,13.0233219 62.7468814,13.3492295 62.7468814,13.751435 C62.7468814,14.1531352 62.4209737,14.4795482 62.0187682,14.4795482" id="Fill-38" fill="#0D76BD"></path>
                    <path d="M62.0187682,18.8247314 L50.1986774,18.8247314 C49.7964719,18.8247314 49.4705642,18.4983184 49.4705642,18.0966182 C49.4705642,17.6944128 49.7964719,17.3685051 50.1986774,17.3685051 L62.0187682,17.3685051 C62.4209737,17.3685051 62.7468814,17.6944128 62.7468814,18.0966182 C62.7468814,18.4983184 62.4209737,18.8247314 62.0187682,18.8247314" id="Fill-40" fill="#0D76BD"></path>
                    <path d="M72.2280161,184.631406 L178.877139,184.631406 C177.640711,183.550605 176.858533,181.961489 176.858533,180.194009 L176.858533,171.728493 L170.344421,171.728493 C169.942216,171.728493 169.616308,171.402585 169.616308,171.00038 L169.616308,155.088 L80.3741926,155.088 L80.3741926,171.00038 C80.3741926,171.402585 80.0477796,171.728493 79.6460794,171.728493 L69.9279668,171.728493 L69.9279668,180.612383 L71.499903,180.612383 C71.9016032,180.612383 72.2280161,180.938291 72.2280161,181.340496 L72.2280161,184.631406 Z M182.752157,186.087632 L71.499903,186.087632 C71.0976975,186.087632 70.7717898,185.761725 70.7717898,185.359519 L70.7717898,182.068609 L69.1998537,182.068609 C68.7976482,182.068609 68.4717405,181.742702 68.4717405,181.340496 L68.4717405,171.00038 C68.4717405,170.598175 68.7976482,170.272267 69.1998537,170.272267 L78.9179663,170.272267 L78.9179663,154.359887 C78.9179663,153.958187 79.2438739,153.631774 79.6460794,153.631774 L170.344421,153.631774 C170.746121,153.631774 171.072534,153.958187 171.072534,154.359887 L171.072534,170.272267 L177.586646,170.272267 C177.988851,170.272267 178.315264,170.598175 178.315264,171.00038 L178.315264,180.194009 C178.315264,182.641095 180.30507,184.631406 182.752157,184.631406 C183.154362,184.631406 183.48027,184.957314 183.48027,185.359519 C183.48027,185.761725 183.154362,186.087632 182.752157,186.087632 L182.752157,186.087632 Z" id="Fill-42" fill="#0D76BD"></path>
                    <path d="M84.6473224,153.634806 L165.349646,153.634806 L165.349646,136.572401 C165.349646,129.359483 161.088087,122.828697 154.491614,119.934434 L135.29742,111.5245 L125.506041,121.03292 C125.223588,121.307794 124.774391,121.307794 124.491938,121.03292 L114.682369,111.5245 L95.4861532,119.934434 C88.9023126,122.831729 84.6473224,129.362009 84.6473224,136.572401 L84.6473224,153.634806 Z M166.077759,155.091032 L83.9192093,155.091032 C83.5170038,155.091032 83.1910961,154.765124 83.1910961,154.362919 L83.1910961,136.572401 C83.1910961,128.784976 87.7876577,121.730716 94.9010352,118.600992 L114.545942,109.993997 C114.815258,109.872729 115.132071,109.931545 115.3453,110.138508 L124.998737,119.496354 L134.633478,110.138508 C134.846202,109.932353 135.16352,109.87475 135.432836,109.993997 L155.076732,118.600992 C162.201731,121.727179 166.805872,128.781944 166.805872,136.572401 L166.805872,154.362919 C166.805872,154.765124 166.479965,155.091032 166.077759,155.091032 L166.077759,155.091032 Z" id="Fill-44" fill="#0D76BD"></path>
                    <path d="M122.67888,127.185299 L127.309296,127.185299 L128.433046,124.796826 L124.993078,121.513495 L121.545025,124.789246 L122.67888,127.185299 Z M127.771125,128.641526 L122.218062,128.641526 C121.936619,128.641526 121.680441,128.47933 121.560183,128.225172 L120.006943,124.943863 C119.960457,124.846343 119.937214,124.740234 119.937214,124.632103 C119.937214,124.432011 120.018564,124.230908 120.16358,124.093471 L124.43474,120.035542 C124.570156,119.907705 124.749531,119.835449 124.936486,119.835449 L125.052701,119.835449 C125.239656,119.835449 125.420042,119.907705 125.555458,120.036552 L129.818027,124.105093 C130.044899,124.321859 130.10806,124.658378 129.974665,124.941842 L128.430014,128.223657 C128.309757,128.478319 128.052568,128.641526 127.771125,128.641526 L127.771125,128.641526 Z" id="Fill-46" fill="#0D76BD"></path>
                    <path d="M118.924424,153.626266 L131.071433,153.626266 L127.150435,128.637989 L122.844916,128.637989 L118.924424,153.626266 Z M131.922835,155.082493 L118.073022,155.082493 C117.860803,155.082493 117.657679,154.98952 117.519231,154.827325 C117.380783,154.666139 117.320149,154.451899 117.353498,154.241701 L121.502379,127.796692 C121.558465,127.442489 121.863656,127.181763 122.221902,127.181763 L127.772944,127.181763 C128.131695,127.181763 128.436886,127.442489 128.492973,127.796692 L132.642864,154.241701 C132.675707,154.451899 132.615073,154.666139 132.476626,154.827325 C132.338178,154.98952 132.135559,155.082493 131.922835,155.082493 L131.922835,155.082493 Z" id="Fill-48" fill="#0D76BD"></path>
                    <path d="M126.044724,120.50111 L132.441609,126.601394 L141.996516,114.464491 L135.286859,111.524248 L126.044724,120.50111 Z M132.519423,128.408287 C132.333479,128.408287 132.153598,128.337042 132.017677,128.207184 L124.550601,121.090775 C124.545548,121.086228 124.483904,121.024583 124.480367,121.020541 C124.34293,120.883104 124.266127,120.695644 124.267127,120.500099 C124.269158,120.30607 124.347477,120.119115 124.487946,119.9837 L134.623423,110.138256 C134.835641,109.932569 135.152454,109.874498 135.422275,109.99425 L143.442636,113.509 C143.649297,113.598941 143.801893,113.779832 143.856968,113.998114 C143.912044,114.216902 143.861516,114.448322 143.722058,114.625676 L133.090898,128.130381 C132.965083,128.291567 132.776107,128.392118 132.571467,128.406266 C132.554288,128.407276 132.536603,128.408287 132.519423,128.408287 L132.519423,128.408287 Z" id="Fill-50" fill="#0D76BD"></path>
                    <path d="M107.984132,114.464491 L117.539038,126.601394 L120.095266,124.169466 C120.115983,124.142686 120.13872,124.117422 120.163479,124.093673 L123.944514,120.50111 L114.693788,111.524248 L107.984132,114.464491 Z M117.461225,128.408287 C117.44455,128.408287 117.42636,128.407276 117.40918,128.406266 C117.204541,128.392118 117.01607,128.291567 116.889749,128.130381 L106.25859,114.625676 C106.119132,114.448322 106.069109,114.216902 106.124184,113.998114 C106.178755,113.779832 106.331856,113.598941 106.538517,113.509 L114.557362,109.99425 C114.827688,109.872982 115.144501,109.931657 115.35672,110.138256 L125.502302,119.9837 C125.642771,120.120126 125.722606,120.307586 125.723121,120.503131 C125.724121,120.699181 125.645803,120.887146 125.506344,121.024583 L125.447226,121.082185 L121.235185,125.084029 C121.213963,125.110809 121.191225,125.136578 121.166467,125.159316 L117.962971,128.207184 C117.827555,128.337042 117.647169,128.408287 117.461225,128.408287 L117.461225,128.408287 Z" id="Fill-52" fill="#0D76BD"></path>
                    <path d="M115.577579,110.352546 L124.995048,119.491604 L134.402412,110.352546 L134.402412,107.677071 C131.504107,109.55723 128.165701,110.544049 124.665098,110.544049 C121.436844,110.544049 118.322278,109.695678 115.577579,108.079782 L115.577579,110.352546 Z M124.995048,121.233821 C124.812136,121.233821 124.629223,121.165608 124.487744,121.028171 L114.342162,111.183232 C114.200682,111.046805 114.121353,110.857829 114.121353,110.660769 L114.121353,106.748866 C114.121353,106.477529 114.271927,106.229435 114.511937,106.103114 C114.751946,105.978814 115.041979,105.995994 115.264809,106.150611 C118.027698,108.072203 121.27869,109.087822 124.665098,109.087822 C128.324865,109.087822 131.790097,107.91506 134.687897,105.69434 C134.907695,105.527597 135.203286,105.49728 135.452895,105.619558 C135.701495,105.742847 135.858638,105.995994 135.858638,106.272889 L135.858638,110.660769 C135.858638,110.857829 135.778803,111.045795 135.637829,111.183232 L125.502353,121.028171 C125.361379,121.165608 125.177961,121.233821 124.995048,121.233821 L124.995048,121.233821 Z" id="Fill-54" fill="#0D76BD"></path>
                    <path d="M109.626252,70.9812803 C108.823357,70.9812803 108.170026,71.6346115 108.170026,72.4375066 L108.170026,92.5932551 C108.170026,97.0144834 109.886978,101.153764 113.003565,104.251655 C113.669023,104.926714 114.429475,105.564381 115.267739,106.152531 C118.027597,108.072607 121.278589,109.087721 124.664997,109.087721 C128.324764,109.087721 131.790501,107.914959 134.687796,105.694239 C138.80737,102.54683 141.170074,97.7708925 141.170074,92.5932551 L141.170074,72.4375066 C141.170074,71.6346115 140.516743,70.9812803 139.713848,70.9812803 L109.626252,70.9812803 Z M124.664997,110.543948 C120.979967,110.543948 117.441468,109.438388 114.434022,107.34702 C113.520975,106.706321 112.693321,106.011052 111.971777,105.279401 C108.583347,101.912699 106.713799,97.4050674 106.713799,92.5932551 L106.713799,72.4375066 C106.713799,70.8317164 108.019957,69.525054 109.626252,69.525054 L139.713848,69.525054 C141.319638,69.525054 142.626301,70.8317164 142.626301,72.4375066 L142.626301,92.5932551 C142.626301,98.2291844 140.054914,103.425517 135.572041,106.851338 C132.419579,109.267097 128.647134,110.543948 124.664997,110.543948 L124.664997,110.543948 Z" id="Fill-56" fill="#0D76BD"></path>
                    <path d="M118.981925,87.590951 C118.981925,88.8086836 117.984496,89.7914595 116.766763,89.7914595 C115.549031,89.7914595 114.566255,88.8086836 114.566255,87.590951 C114.566255,86.3732184 115.549031,85.3904425 116.766763,85.3904425 C117.984496,85.3904425 118.981925,86.3732184 118.981925,87.590951" id="Fill-58" fill="#0D76BD"></path>
                    <path d="M135.430764,87.590951 C135.430764,88.8086836 134.433335,89.7914595 133.215602,89.7914595 C131.99787,89.7914595 131.015094,88.8086836 131.015094,87.590951 C131.015094,86.3732184 131.99787,85.3904425 133.215602,85.3904425 C134.433335,85.3904425 135.430764,86.3732184 135.430764,87.590951" id="Fill-60" fill="#0D76BD"></path>
                    <path d="M136.557344,83.2043345 L129.888615,83.2043345 C129.48641,83.2043345 129.159997,82.8784268 129.159997,82.4762214 C129.159997,82.0740159 129.48641,81.7481082 129.888615,81.7481082 L136.557344,81.7481082 C136.959549,81.7481082 137.285457,82.0740159 137.285457,82.4762214 C137.285457,82.8784268 136.959549,83.2043345 136.557344,83.2043345" id="Fill-62" fill="#0D76BD"></path>
                    <path d="M120.108606,83.2043345 L113.439372,83.2043345 C113.037672,83.2043345 112.711259,82.8784268 112.711259,82.4762214 C112.711259,82.0740159 113.037672,81.7481082 113.439372,81.7481082 L120.108606,81.7481082 C120.510811,81.7481082 120.836719,82.0740159 120.836719,82.4762214 C120.836719,82.8784268 120.510811,83.2043345 120.108606,83.2043345" id="Fill-64" fill="#0D76BD"></path>
                    <path d="M124.668029,101.092321 C123.170875,101.092321 121.67271,100.698706 120.186167,99.9119797 C119.830952,99.723509 119.695031,99.2834073 119.882997,98.9276879 C120.070457,98.5724738 120.51258,98.4375632 120.867288,98.624518 C123.425032,99.9781718 125.911026,99.9781718 128.468769,98.624518 C128.823478,98.4375632 129.265601,98.5724738 129.453061,98.9276879 C129.641027,99.2834073 129.505105,99.723509 129.149891,99.9119797 C127.663348,100.698706 126.165183,101.092321 124.668029,101.092321" id="Fill-66" fill="#0D76BD"></path>
                    <path d="M90.0458696,69.5249529 L102.975057,69.5249529 C103.377263,69.5249529 103.70317,69.8513659 103.70317,70.2530661 L103.70317,81.8826651 C104.582363,81.2399449 105.613646,80.8357183 106.713648,80.7119239 L106.713648,72.4374055 C106.713648,70.8316154 108.02031,69.5249529 109.626101,69.5249529 L139.713696,69.5249529 C141.319487,69.5249529 142.626149,70.8316154 142.626149,72.4374055 L142.626149,80.4405868 C143.773647,80.5744868 144.858996,81.0191361 145.765474,81.7159217 L145.761432,70.2530661 C145.761432,69.5628492 145.195514,69.0014795 144.499739,69.0014795 L142.354307,69.0014795 C142.073369,69.0014795 141.818201,68.8402941 141.696933,68.5871472 C141.576676,68.3340003 141.61154,68.0343673 141.787379,67.8165903 C143.585682,65.5872806 143.491699,62.3706475 143.490183,62.3383094 C143.462393,57.1702724 139.97038,55.4861633 138.324673,54.9788589 L138.324673,59.9331611 C138.324673,60.2181409 138.157929,60.4778565 137.898214,60.5955875 C137.639003,60.7133185 137.332802,60.6698641 137.117551,60.4808882 C130.13959,54.3846459 122.801361,51.7809213 115.297905,52.7520757 C102.594074,54.390204 92.8724241,65.8414381 90.0458696,69.5249529 M102.985668,84.3211621 C102.923013,84.3211621 102.860358,84.3135828 102.798208,84.2964032 C102.513734,84.2206107 102.30303,83.9816117 102.264124,83.689558 C102.248965,83.5809221 102.246944,83.4591489 102.246944,83.350513 L102.246944,70.9811792 L88.6068229,70.9811792 C88.337507,70.9811792 88.0899182,70.8326259 87.9630921,70.5946375 C87.8367713,70.3556386 87.8529403,70.0671218 88.0045253,69.8442919 C88.4607961,69.1712546 99.3713771,53.3366884 115.111961,51.3079762 C122.604806,50.3408641 129.920802,52.7156953 136.868446,58.3667831 L136.868446,54.0592434 C136.868446,53.8480351 136.960408,53.6469323 137.119572,53.5084847 C137.280758,53.3710477 137.491461,53.3114243 137.700648,53.3387095 C137.772903,53.3493205 144.904471,54.4710493 144.94641,62.3079924 C144.950957,62.4206705 145.028771,65.1113038 143.70695,67.5452532 L144.499739,67.5452532 C145.998409,67.5452532 147.218163,68.7599541 147.218163,70.2530661 L147.218163,83.350513 C147.218163,83.4450009 147.21311,83.5420153 147.195425,83.6365033 C147.139339,83.9219883 146.91853,84.1468394 146.633045,84.2084839 C146.351097,84.2681073 146.054496,84.1544186 145.886742,83.9174408 C144.970663,82.6259368 143.479572,81.8553799 141.898036,81.8553799 C141.49583,81.8553799 141.169923,81.5289669 141.169923,81.1272667 L141.169923,72.4374055 C141.169923,71.6345104 140.516591,70.9811792 139.713696,70.9811792 L109.626101,70.9811792 C108.823205,70.9811792 108.169874,71.6345104 108.169874,72.4374055 L108.169874,81.3991091 C108.169874,81.8013145 107.843967,82.1272222 107.441761,82.1272222 C105.908732,82.1272222 104.494949,82.8229973 103.563207,84.0366876 C103.423749,84.2185896 103.208498,84.3211621 102.985668,84.3211621" id="Fill-68" fill="#0D76BD"></path>
                    <path d="M142.6262,81.9101526 L142.6262,91.626244 C144.990925,91.2735563 146.81045,89.2296856 146.81045,86.7684509 C146.81045,85.7366625 146.492627,84.7523708 145.890329,83.9242116 C145.113204,82.8277469 143.92882,82.107213 142.6262,81.9101526 M141.898086,93.1365356 C141.495881,93.1365356 141.169973,92.8106279 141.169973,92.4084225 L141.169973,81.1269635 C141.169973,80.7252634 141.495881,80.3988504 141.898086,80.3988504 C143.950547,80.3988504 145.885782,81.3993112 147.073703,83.0753357 C147.852344,84.1475467 148.266676,85.4269239 148.266676,86.7684509 C148.266676,90.2801695 145.409805,93.1365356 141.898086,93.1365356" id="Fill-70" fill="#0D76BD"></path>
                    <path d="M106.713648,82.180378 C105.467114,82.3643011 104.345385,83.0186429 103.563207,84.0367887 C102.884106,84.8993072 102.528892,85.9396854 102.528892,87.0497926 C102.528892,89.5110273 104.348922,91.5554033 106.713648,91.908091 L106.713648,82.180378 Z M107.441761,93.4183826 C103.930043,93.4183826 101.072161,90.5615112 101.072161,87.0497926 C101.072161,85.610746 101.536011,84.2596186 102.413182,83.1429426 C103.618283,81.5745434 105.452461,80.671097 107.441761,80.671097 C107.843967,80.671097 108.169874,80.9970047 108.169874,81.3992101 L108.169874,92.6902695 C108.169874,93.0919696 107.843967,93.4183826 107.441761,93.4183826 L107.441761,93.4183826 Z" id="Fill-72" fill="#0D76BD"></path>
                    <mask id="mask-4" fill="white">
                        <use xlink:href="#path-3"></use>
                    </mask>
                    <g id="Clip-75"></g>
                    <path d="M26.8057812,101.857522 L76.1446687,101.857522 L76.1446687,97.5873736 L26.8057812,97.5873736 L26.8057812,101.857522 Z M76.8727818,103.313749 L26.0776681,103.313749 C25.6759679,103.313749 25.3495549,102.987841 25.3495549,102.585635 L25.3495549,96.8592604 C25.3495549,96.457055 25.6759679,96.130642 26.0776681,96.130642 L76.8727818,96.130642 C77.2749873,96.130642 77.600895,96.457055 77.600895,96.8592604 L77.600895,102.585635 C77.600895,102.987841 77.2749873,103.313749 76.8727818,103.313749 L76.8727818,103.313749 Z" id="Fill-74" fill="#0D76BD" mask="url(#mask-4)"></path>
                    <path d="M43.9268997,163.11685 L64.4611053,163.11685 L64.4611053,161.214964 C58.9666553,158.058459 56.1234265,151.809621 54.6747795,146.789632 C52.7698617,147.449532 50.7209381,147.503598 48.7710501,146.940207 C47.76301,150.384723 45.9359058,154.868101 42.7389788,158.257036 C43.3362236,159.815329 43.7343867,161.445373 43.9268997,163.11685 M65.1892185,164.573076 L43.2669997,164.573076 C42.887532,164.573076 42.5722353,164.282033 42.5419183,163.904586 C42.3842699,161.987542 41.9386101,160.123552 41.2150445,158.364661 C41.1033769,158.093829 41.1650215,157.782575 41.3716823,157.574398 C44.7934604,154.133419 46.633702,149.283205 47.5740341,145.819489 C47.6280994,145.621418 47.76301,145.455179 47.944912,145.361702 C48.1278245,145.267719 48.3405488,145.254582 48.5325564,145.328353 C50.6052283,146.106995 52.8532334,146.043329 54.8642607,145.149988 C55.0577842,145.06409 55.2806141,145.066617 55.4741376,145.158578 C55.6661452,145.25054 55.8086351,145.422336 55.863711,145.627986 C56.9520911,149.696527 59.6553564,156.992817 65.5333164,160.144268 C65.7692836,160.2716 65.9173316,160.518178 65.9173316,160.786483 L65.9173316,163.844963 C65.9173316,164.247168 65.5914239,164.573076 65.1892185,164.573076" id="Fill-76" fill="#0D76BD" mask="url(#mask-4)"></path>
                    <path d="M69.1997526,182.068609 L35.6944209,182.068609 C35.2922154,182.068609 34.9663077,181.742702 34.9663077,181.340496 C34.9663077,180.938291 35.2922154,180.612383 35.6944209,180.612383 L68.4716395,180.612383 L68.4716395,164.573177 L43.2671008,164.573177 C42.8648953,164.573177 42.5389877,164.246764 42.5389877,163.845064 C42.5389877,163.442859 42.8648953,163.116951 43.2671008,163.116951 L69.1997526,163.116951 C69.6019581,163.116951 69.9278658,163.442859 69.9278658,163.845064 L69.9278658,181.340496 C69.9278658,181.742702 69.6019581,182.068609 69.1997526,182.068609" id="Fill-77" fill="#0D76BD" mask="url(#mask-4)"></path>
                    <path d="M65.3741016,178.243009 L39.422249,178.243009 C39.0205489,178.243009 38.6941359,177.917101 38.6941359,177.514896 C38.6941359,177.11269 39.0205489,176.786783 39.422249,176.786783 L64.6459885,176.786783 L64.6459885,168.408176 L43.2386534,168.408176 C42.8364479,168.408176 42.5105402,168.082268 42.5105402,167.680063 C42.5105402,167.277857 42.8364479,166.95195 43.2386534,166.95195 L65.3741016,166.95195 C65.7763071,166.95195 66.1022148,167.277857 66.1022148,167.680063 L66.1022148,177.514896 C66.1022148,177.917101 65.7763071,178.243009 65.3741016,178.243009" id="Fill-78" fill="#0D76BD" mask="url(#mask-4)"></path>
                    <path d="M32.7240123,184.631406 L70.7718404,184.631406 L70.7718404,182.068609 L35.9456982,182.068609 C34.9437216,182.844219 33.8629207,183.526857 32.7240123,184.104396 L32.7240123,184.631406 Z M71.4999535,186.087632 L31.9958991,186.087632 C31.5936937,186.087632 31.267786,185.761725 31.267786,185.359519 L31.267786,183.651156 C31.267786,183.370219 31.4289713,183.115556 31.6821182,182.993783 C32.9513897,182.386433 34.148911,181.638108 35.2413334,180.770537 C35.3701806,180.66847 35.5293448,180.612383 35.6945724,180.612383 L71.4999535,180.612383 C71.9016537,180.612383 72.2280667,180.938291 72.2280667,181.340496 L72.2280667,185.359519 C72.2280667,185.761725 71.9016537,186.087632 71.4999535,186.087632 L71.4999535,186.087632 Z" id="Fill-79" fill="#0D76BD" mask="url(#mask-4)"></path>
                    <path d="M68.5957876,133.143246 C67.7878397,134.705582 66.9177419,136.154229 65.9930736,137.473523 C75.8698451,133.682888 82.5870805,124.076443 82.5870805,113.361912 L82.5870805,106.195985 L75.2655263,106.195985 C75.2124716,107.049409 75.1397108,107.982161 75.0497704,108.954326 L79.1016367,108.954326 C79.5038422,108.954326 79.8297499,109.280234 79.8297499,109.68244 L79.8297499,113.361912 C79.8297499,121.432296 75.5302948,128.992344 68.5957876,133.143246 L68.5957876,133.143246 Z M63.9956889,139.633104 C63.7536583,139.633104 63.5232491,139.512846 63.3858121,139.303154 C63.2114893,139.03687 63.2311954,138.688729 63.4333087,138.442151 C64.8708395,136.694882 66.2037767,134.625242 67.3952346,132.292854 C67.4589003,132.168554 67.5559146,132.065477 67.6761721,131.995242 C74.2751712,128.128815 78.3735236,120.988657 78.3735236,113.361912 L78.3735236,110.410553 L74.2473806,110.410553 C74.0417303,110.410553 73.8456804,110.323139 73.7072328,110.170543 C73.5697958,110.017948 73.5020878,109.813813 73.5233097,109.609174 C73.6748947,108.099892 73.7875729,106.654782 73.850228,105.430986 C73.869934,105.042929 74.1897783,104.739759 74.5773306,104.739759 L83.3151937,104.739759 C83.7173991,104.739759 84.0433068,105.065667 84.0433068,105.467872 L84.0433068,113.361912 C84.0433068,125.502353 75.8809613,136.293687 64.19376,139.605818 C64.1280731,139.624514 64.061881,139.633104 63.9956889,139.633104 L63.9956889,139.633104 Z M20.3255742,106.195985 L20.3255742,113.361912 C20.3255742,124.111308 27.0685791,133.725332 36.9802151,137.491208 C36.0413989,136.158271 35.16928,134.71215 34.37548,133.172552 C27.4050977,129.028219 23.0834101,121.45756 23.0834101,113.361912 L23.0834101,109.68244 C23.0834101,109.280234 23.4098231,108.954326 23.8115233,108.954326 L27.9017911,108.954326 C27.8128613,107.990751 27.7395952,107.057998 27.6865405,106.195985 L20.3255742,106.195985 Z M38.9760839,139.642704 C38.9103971,139.642704 38.8452156,139.634114 38.7795288,139.615924 C27.055947,136.333604 18.8693479,125.537722 18.8693479,113.361912 L18.8693479,105.467872 C18.8693479,105.065667 19.1952556,104.739759 19.5974611,104.739759 L28.374231,104.739759 C28.7617832,104.739759 29.0811222,105.042929 29.1013335,105.429976 C29.1655045,106.676004 29.278688,108.120609 29.4282518,109.609174 C29.4494737,109.813813 29.3817657,110.017948 29.2443287,110.170543 C29.1058811,110.323139 28.9098312,110.410553 28.7041809,110.410553 L24.5401417,110.410553 L24.5401417,113.361912 C24.5401417,121.012911 28.6602213,128.163679 35.2935797,132.022528 C35.4148476,132.093772 35.5133779,132.19685 35.5770436,132.322161 C36.735658,134.601493 38.0685952,136.663554 39.5379589,138.451752 C39.7400722,138.697319 39.7587677,139.045965 39.5854555,139.312754 C39.449029,139.521941 39.2176093,139.642704 38.9760839,139.642704 L38.9760839,139.642704 Z" id="Fill-80" fill="#0D76BD" mask="url(#mask-4)"></path>
                    <path d="M29.0140206,103.312839 C29.0246315,103.799932 29.0483799,104.519961 29.1014346,105.425428 C29.1656056,106.676004 29.278789,108.120609 29.4283529,109.609174 C30.0826947,115.773124 31.6809055,124.720174 35.5751235,132.320139 C36.7352538,134.601493 38.0686963,136.663554 39.53806,138.451752 C41.978578,141.446565 44.8283755,143.690023 48.0121652,145.124522 C48.1677924,145.189198 48.3395887,145.261959 48.5194696,145.325625 C50.6062894,146.108814 52.8553051,146.044138 54.8643112,145.151807 C54.8860384,145.142712 54.9855792,145.104816 55.0073064,145.097237 C58.1294515,143.678907 60.9883441,141.430902 63.4323992,138.444172 C64.8704353,136.694882 66.2038777,134.625242 67.3953356,132.292854 C71.2759109,124.692889 72.8700796,115.760492 73.5229055,109.605637 C73.6749958,108.099892 73.7876739,106.654782 73.850329,105.430986 L73.850329,105.425428 C73.9043943,104.519961 73.9281427,103.799932 73.9382483,103.312839 L29.0140206,103.312839 Z M51.5072094,147.330589 C50.337984,147.330589 49.1566317,147.120391 48.020755,146.693426 C47.8272315,146.625213 47.6291605,146.542852 47.4310895,146.45948 C44.0224487,144.92443 40.9932757,142.54303 38.4117836,139.374399 C36.8767331,137.507377 35.4846778,135.355376 34.2780614,132.98206 C30.2827868,125.185035 28.6481955,116.049514 27.9797058,109.759243 C27.8281208,108.242888 27.712411,106.773524 27.6467241,105.505768 C27.5406147,103.692307 27.5490377,102.622622 27.5490377,102.578157 C27.5532467,102.178983 27.8781439,101.856613 28.2773176,101.856613 L74.6749513,101.856613 C75.0741251,101.856613 75.3995275,102.178983 75.4032285,102.578157 C75.4032285,102.622622 75.4116543,103.691296 75.3045342,105.5088 C75.2408685,106.754323 75.1261692,108.223182 74.9720578,109.7552 C74.305084,116.036376 72.6745349,125.156234 68.6923977,132.954775 C67.4534432,135.38064 66.0623984,137.538705 64.5576649,139.36783 C61.9721306,142.528377 58.9363889,144.912303 55.5383591,146.451901 C55.5125896,146.463017 55.4095119,146.501924 55.3837424,146.510514 C54.1634834,147.055715 52.842673,147.330589 51.5072094,147.330589 L51.5072094,147.330589 Z" id="Fill-81" fill="#0D76BD" mask="url(#mask-4)"></path>
                    <path d="M51.4766903,124.935475 C51.5934107,124.935475 51.7091206,124.962761 51.81523,125.018847 L56.1955305,127.319907 L55.356255,122.445945 C55.3158323,122.209472 55.3941512,121.967947 55.5659475,121.801203 L59.1130359,118.347087 L54.2117885,117.632111 C53.9748106,117.597247 53.7701709,117.448188 53.6640614,117.233948 L51.4766903,112.797561 L49.2883086,117.233948 C49.1821991,117.448188 48.9775594,117.597247 48.7405815,117.632111 L43.8408499,118.347087 L47.387433,121.801203 C47.5592293,121.967947 47.6375482,122.209472 47.5971255,122.445945 L46.7578501,127.319907 L51.1381505,125.018847 C51.24426,124.962761 51.3599698,124.935475 51.4766903,124.935475 M57.1636532,129.379441 C57.0479433,129.379441 56.9312229,129.351651 56.8251134,129.29607 L51.4766903,126.486695 L46.1282672,129.29607 C45.8837101,129.423906 45.5850877,129.402179 45.3612472,129.239983 C45.1374067,129.076777 45.0257391,128.800892 45.0722252,128.528039 L46.0969396,122.576813 L41.7681781,118.361235 C41.570107,118.167712 41.4978515,117.87869 41.5832444,117.614932 C41.6696478,117.351679 41.8970253,117.159166 42.1708888,117.119249 L48.1519265,116.246119 L50.823359,110.829483 C50.9466482,110.580884 51.1997951,110.423741 51.4766903,110.423741 C51.7535855,110.423741 52.0067324,110.580884 52.1300215,110.829483 L54.8009487,116.246119 L60.7824917,117.119249 C61.0563553,117.159166 61.2837327,117.351679 61.3701361,117.614932 C61.455529,117.87869 61.3832735,118.167712 61.1852025,118.361235 L56.8564409,122.576813 L57.8811554,128.528039 C57.9276414,128.800892 57.8159738,129.076777 57.5921333,129.239983 C57.464802,129.331945 57.3142276,129.379441 57.1636532,129.379441" id="Fill-82" fill="#0D76BD" mask="url(#mask-4)"></path>
                    <path d="M182.752207,126.127034 C180.30512,126.127034 178.31481,128.121893 178.31481,130.574032 L178.31481,180.194362 C178.31481,182.641449 180.30512,184.631254 182.752207,184.631254 L228.586955,184.631254 C231.038589,184.631254 233.033448,182.641449 233.033448,180.194362 L233.033448,169.965914 L225.661871,166.584053 C225.486537,166.503713 225.350111,166.356675 225.282403,166.175279 C225.2152,165.994387 225.222779,165.794295 225.303625,165.618962 L233.033448,148.78343 L233.033448,130.574032 C233.033448,128.121893 231.038589,126.127034 228.586955,126.127034 L225.722505,126.127034 L225.722505,129.310824 C225.722505,130.82061 224.493656,132.048954 222.984375,132.048954 C222.251714,132.048954 221.565034,131.766501 221.052172,131.253638 C220.53274,130.734207 220.246245,130.04399 220.246245,129.310824 L220.246245,126.127034 L214.178298,126.127034 L214.178298,129.310824 C214.178298,130.82061 212.95046,132.048954 211.441179,132.048954 C210.708013,132.048954 210.021838,131.766501 209.508976,131.253638 C208.989545,130.734207 208.703049,130.04399 208.703049,129.310824 L208.703049,126.127034 L202.635103,126.127034 L202.635103,129.310824 C202.635103,130.82061 201.406254,132.048954 199.896973,132.048954 C199.174418,132.048954 198.470053,131.758921 197.96477,131.253638 C197.445338,130.735217 197.159853,130.045001 197.159853,129.310824 L197.159853,126.127034 L191.091907,126.127034 L191.091907,129.310824 C191.091907,130.82061 189.863058,132.048954 188.353777,132.048954 C187.620611,132.048954 186.934436,131.766501 186.421574,131.253638 C185.901638,130.734207 185.615647,130.04399 185.615647,129.310824 L185.615647,126.127034 L182.752207,126.127034 Z M228.586955,186.087481 L182.752207,186.087481 C179.502225,186.087481 176.858583,183.444344 176.858583,180.194362 L176.858583,130.574032 C176.858583,127.318997 179.502225,124.670808 182.752207,124.670808 L186.34376,124.670808 C186.745461,124.670808 187.071874,124.997221 187.071874,125.398921 L187.071874,129.310824 C187.071874,129.659975 187.202742,129.975777 187.450836,130.223871 C187.688824,130.461859 188.009679,130.592728 188.353777,130.592728 C189.07229,130.592728 189.635681,130.029842 189.635681,129.310824 L189.635681,125.398921 C189.635681,124.997221 189.961588,124.670808 190.363794,124.670808 L197.887967,124.670808 C198.289667,124.670808 198.61608,124.997221 198.61608,125.398921 L198.61608,129.310824 C198.61608,129.660985 198.746948,129.976787 198.994537,130.223871 C199.228483,130.458322 199.557422,130.592728 199.896973,130.592728 C200.615486,130.592728 201.178876,130.029842 201.178876,129.310824 L201.178876,125.398921 C201.178876,124.997221 201.504784,124.670808 201.906989,124.670808 L209.431162,124.670808 C209.833368,124.670808 210.159275,124.997221 210.159275,125.398921 L210.159275,129.310824 C210.159275,129.659975 210.290144,129.975777 210.538743,130.223871 C210.776226,130.461859 211.097081,130.592728 211.441179,130.592728 C212.159692,130.592728 212.722072,130.029842 212.722072,129.310824 L212.722072,125.398921 C212.722072,124.997221 213.04798,124.670808 213.450185,124.670808 L220.974358,124.670808 C221.376563,124.670808 221.702471,124.997221 221.702471,125.398921 L221.702471,129.310824 C221.702471,129.659975 221.833339,129.975777 222.081939,130.223871 C222.319927,130.461859 222.640277,130.592728 222.984375,130.592728 C223.702887,130.592728 224.266278,130.029842 224.266278,129.310824 L224.266278,125.398921 C224.266278,124.997221 224.592186,124.670808 224.994391,124.670808 L228.586955,124.670808 C231.841485,124.670808 234.489674,127.318997 234.489674,130.574032 L234.489674,148.942594 C234.489674,149.047693 234.466936,149.151276 234.423482,149.245764 L226.931142,165.563886 L233.015258,168.355071 L233.09964,168.172158 C233.243646,167.861914 233.581175,167.693655 233.917188,167.765405 C234.251686,167.838671 234.489674,168.134262 234.489674,168.476339 L234.489674,180.194362 C234.489674,183.444344 231.841485,186.087481 228.586955,186.087481 L228.586955,186.087481 Z" id="Fill-83" fill="#0D76BD" mask="url(#mask-4)"></path>
                    <path d="M178.315062,137.592719 L233.033195,137.592719 L233.033195,130.57383 C233.033195,128.122196 231.038337,126.127337 228.586703,126.127337 L225.722757,126.127337 L225.722757,129.311127 C225.722757,130.820408 224.493908,132.049257 222.984627,132.049257 C222.251461,132.049257 221.565287,131.766804 221.051919,131.253436 C220.532488,130.734005 220.246497,130.043788 220.246497,129.311127 L220.246497,126.127337 L214.178551,126.127337 L214.178551,129.311127 C214.178551,130.820408 212.950713,132.049257 211.440926,132.049257 C210.708266,132.049257 210.021586,131.766804 209.508723,131.253436 C208.989292,130.734005 208.702796,130.043788 208.702796,129.311127 L208.702796,126.127337 L202.63485,126.127337 L202.63485,129.311127 C202.63485,130.820408 201.406506,132.049257 199.89672,132.049257 C199.17467,132.049257 198.4698,131.758719 197.964517,131.253436 C197.445086,130.735015 197.159601,130.044798 197.159601,129.311127 L197.159601,126.127337 L191.091654,126.127337 L191.091654,129.311127 C191.091654,130.820408 189.863311,132.049257 188.353524,132.049257 C187.620864,132.049257 186.934184,131.766804 186.421321,131.253436 C185.90189,130.734005 185.615395,130.043788 185.615395,129.311127 L185.615395,126.127337 L182.75246,126.127337 C180.305373,126.127337 178.315062,128.122196 178.315062,130.57383 L178.315062,137.592719 Z M233.761814,139.048946 L177.586949,139.048946 C177.184744,139.048946 176.858836,138.723038 176.858836,138.320833 L176.858836,130.57383 C176.858836,127.318795 179.501973,124.671111 182.75246,124.671111 L186.343508,124.671111 C186.745713,124.671111 187.071621,124.997019 187.071621,125.399224 L187.071621,129.311127 C187.071621,129.659773 187.202489,129.975575 187.451089,130.224174 C187.689077,130.462162 188.009427,130.593031 188.353524,130.593031 C189.072543,130.593031 189.635428,130.02964 189.635428,129.311127 L189.635428,125.399224 C189.635428,124.997019 189.961841,124.671111 190.363541,124.671111 L197.887714,124.671111 C198.289919,124.671111 198.615827,124.997019 198.615827,125.399224 L198.615827,129.311127 C198.615827,129.660783 198.746695,129.976585 198.994284,130.224174 C199.228736,130.45812 199.557675,130.593031 199.89672,130.593031 C200.615738,130.593031 201.178624,130.02964 201.178624,129.311127 L201.178624,125.399224 C201.178624,124.997019 201.505037,124.671111 201.906737,124.671111 L209.43091,124.671111 C209.833115,124.671111 210.159528,124.997019 210.159528,125.399224 L210.159528,129.311127 C210.159528,129.659773 210.289891,129.975575 210.53849,130.224174 C210.776479,130.462162 211.096828,130.593031 211.440926,130.593031 C212.159944,130.593031 212.721819,130.02964 212.721819,129.311127 L212.721819,125.399224 C212.721819,124.997019 213.048232,124.671111 213.449932,124.671111 L220.974611,124.671111 C221.376311,124.671111 221.702724,124.997019 221.702724,125.399224 L221.702724,129.311127 C221.702724,129.659773 221.833592,129.975575 222.081686,130.224174 C222.319675,130.462162 222.640024,130.593031 222.984627,130.593031 C223.70314,130.593031 224.266026,130.02964 224.266026,129.311127 L224.266026,125.399224 C224.266026,124.997019 224.592439,124.671111 224.994139,124.671111 L228.586703,124.671111 C231.841737,124.671111 234.489927,127.318795 234.489927,130.57383 L234.489927,138.320833 C234.489927,138.723038 234.163514,139.048946 233.761814,139.048946 L233.761814,139.048946 Z" id="Fill-84" fill="#0D76BD" mask="url(#mask-4)"></path>
                    <path d="M226.187062,175.405288 L183.531556,175.405288 C183.12935,175.405288 182.803443,175.07938 182.803443,174.677175 C182.803443,174.274969 183.12935,173.949061 183.531556,173.949061 L226.187062,173.949061 C226.589267,173.949061 226.915175,174.274969 226.915175,174.677175 C226.915175,175.07938 226.589267,175.405288 226.187062,175.405288" id="Fill-85" fill="#0D76BD" mask="url(#mask-4)"></path>
                    <path d="M221.310018,168.686082 L183.531505,168.686082 C183.129805,168.686082 182.803392,168.360174 182.803392,167.957969 C182.803392,167.555763 183.129805,167.229855 183.531505,167.229855 L221.310018,167.229855 C221.712223,167.229855 222.038131,167.555763 222.038131,167.957969 C222.038131,168.360174 221.712223,168.686082 221.310018,168.686082" id="Fill-86" fill="#0D76BD" mask="url(#mask-4)"></path>
                    <path d="M222.936019,161.965815 L183.531505,161.965815 C183.129805,161.965815 182.803392,161.639907 182.803392,161.237701 C182.803392,160.835496 183.129805,160.509588 183.531505,160.509588 L222.936019,160.509588 C223.338224,160.509588 223.664132,160.835496 223.664132,161.237701 C223.664132,161.639907 223.338224,161.965815 222.936019,161.965815" id="Fill-87" fill="#0D76BD" mask="url(#mask-4)"></path>
                    <path d="M227.812103,155.246609 L183.531606,155.246609 C183.129401,155.246609 182.803493,154.920196 182.803493,154.518495 C182.803493,154.11629 183.129401,153.790382 183.531606,153.790382 L227.812103,153.790382 C228.214309,153.790382 228.540217,154.11629 228.540217,154.518495 C228.540217,154.920196 228.214309,155.246609 227.812103,155.246609" id="Fill-88" fill="#0D76BD" mask="url(#mask-4)"></path>
                    <path d="M227.812103,148.526392 L183.531606,148.526392 C183.129401,148.526392 182.803493,148.200484 182.803493,147.798279 C182.803493,147.396073 183.129401,147.070166 183.531606,147.070166 L227.812103,147.070166 C228.214309,147.070166 228.540217,147.396073 228.540217,147.798279 C228.540217,148.200484 228.214309,148.526392 227.812103,148.526392" id="Fill-89" fill="#0D76BD" mask="url(#mask-4)"></path>
                    <path d="M222.984375,120.204357 C222.277989,120.204357 221.702471,120.779874 221.702471,121.48626 L221.702471,129.311077 C221.702471,129.659722 221.833339,129.975524 222.081939,130.224123 C222.319927,130.462112 222.640277,130.59298 222.984375,130.59298 C223.702887,130.59298 224.266278,130.029589 224.266278,129.311077 L224.266278,121.48626 C224.266278,121.046159 224.061638,120.743999 223.889842,120.567655 C223.653875,120.338257 223.327462,120.204357 222.984375,120.204357 M222.984375,132.049207 C222.251209,132.049207 221.565034,131.766753 221.052172,131.253891 C220.53274,130.733954 220.246245,130.043737 220.246245,129.311077 L220.246245,121.48626 C220.246245,119.976979 221.475094,118.74813 222.984375,118.74813 C223.709456,118.74813 224.397147,119.028563 224.919609,119.537888 C225.442072,120.073488 225.722505,120.760674 225.722505,121.48626 L225.722505,129.311077 C225.722505,130.820358 224.493656,132.049207 222.984375,132.049207" id="Fill-90" fill="#0D76BD" mask="url(#mask-4)"></path>
                    <path d="M211.441078,120.204357 C210.734692,120.204357 210.159174,120.779874 210.159174,121.48626 L210.159174,129.311077 C210.159174,129.659722 210.290043,129.975524 210.538642,130.224123 C210.77663,130.462112 211.09698,130.59298 211.441078,130.59298 C212.159591,130.59298 212.721971,130.029589 212.721971,129.311077 L212.721971,121.48626 C212.721971,121.045148 212.518342,120.742989 212.346545,120.567655 C212.183339,120.408996 211.88118,120.204357 211.441078,120.204357 M211.441078,132.049207 C210.708417,132.049207 210.021737,131.766753 209.508875,131.253891 C208.989444,130.733954 208.702948,130.043737 208.702948,129.311077 L208.702948,121.48626 C208.702948,119.976979 209.931797,118.74813 211.441078,118.74813 C212.166159,118.74813 212.85385,119.028563 213.376313,119.537888 C213.898776,120.073488 214.178197,120.760674 214.178197,121.48626 L214.178197,129.311077 C214.178197,130.820358 212.950359,132.049207 211.441078,132.049207" id="Fill-91" fill="#0D76BD" mask="url(#mask-4)"></path>
                    <path d="M199.896922,120.204357 C199.190536,120.204357 198.616029,120.779874 198.616029,121.48626 L198.616029,129.311077 C198.616029,129.660733 198.746898,129.976535 198.994486,130.224123 C199.228432,130.45807 199.557372,130.59298 199.896922,130.59298 C200.615435,130.59298 201.178826,130.029589 201.178826,129.311077 L201.178826,121.48626 C201.178826,121.045148 200.974691,120.742989 200.8034,120.567655 C200.567433,120.338257 200.24102,120.204357 199.896922,120.204357 M199.896922,132.049207 C199.174367,132.049207 198.470002,131.759174 197.964719,131.253891 C197.445288,130.734965 197.159803,130.044748 197.159803,129.311077 L197.159803,121.48626 C197.159803,119.976979 198.387641,118.74813 199.896922,118.74813 C200.622004,118.74813 201.310705,119.028563 201.833168,119.537888 C202.35563,120.073488 202.635052,120.760674 202.635052,121.48626 L202.635052,129.311077 C202.635052,130.820358 201.406203,132.049207 199.896922,132.049207" id="Fill-92" fill="#0D76BD" mask="url(#mask-4)"></path>
                    <path d="M188.353626,120.204357 C187.64724,120.204357 187.071722,120.779874 187.071722,121.48626 L187.071722,129.311077 C187.071722,129.659722 187.20259,129.975524 187.45119,130.224123 C187.689178,130.462112 188.009528,130.59298 188.353626,130.59298 C189.072138,130.59298 189.635529,130.029589 189.635529,129.311077 L189.635529,121.48626 C189.635529,121.046159 189.430889,120.743999 189.259093,120.567655 C189.095887,120.408996 188.793727,120.204357 188.353626,120.204357 M188.353626,132.049207 C187.620965,132.049207 186.934285,131.766753 186.421422,131.253891 C185.901991,130.733954 185.615496,130.043737 185.615496,129.311077 L185.615496,121.48626 C185.615496,119.976979 186.844344,118.74813 188.353626,118.74813 C189.078707,118.74813 189.766397,119.028563 190.28886,119.537888 C190.811323,120.073488 191.091755,120.760674 191.091755,121.48626 L191.091755,129.311077 C191.091755,130.820358 189.862907,132.049207 188.353626,132.049207" id="Fill-93" fill="#0D76BD" mask="url(#mask-4)"></path>
                    <path d="M226.931344,165.563937 L233.01546,168.355121 L233.099842,168.172209 L248.235601,135.202477 L248.235601,135.201467 C248.609006,134.388971 248.64286,133.478956 248.332111,132.640691 C248.021361,131.804447 247.403905,131.14 246.594441,130.770133 C246.570693,130.759016 246.547955,130.747395 246.525723,130.734257 C244.860309,130.010692 242.912948,130.755985 242.151486,132.412303 L226.931344,165.563937 Z M233.372695,170.048325 C233.270628,170.048325 233.168055,170.027609 233.069525,169.982133 L225.661567,166.584103 C225.486234,166.503763 225.349808,166.356726 225.282605,166.175329 C225.215402,165.994438 225.222981,165.794346 225.303322,165.619012 L240.827644,131.804447 C241.932193,129.397278 244.791086,128.336183 247.189665,129.436185 C247.21594,129.447301 247.24272,129.461954 247.267479,129.477113 C248.398303,130.014734 249.259305,130.956077 249.697386,132.133387 C250.144056,133.337477 250.095549,134.643129 249.558938,135.810333 L234.034616,169.624898 C233.911327,169.891182 233.647569,170.048325 233.372695,170.048325 L233.372695,170.048325 Z" id="Fill-94" fill="#0D76BD" mask="url(#mask-4)"></path>
                    <path d="M240.99277,134.930433 L247.076886,137.724649 L248.2355,135.20177 C248.607894,134.389274 248.642253,133.480775 248.332009,132.64251 C248.02126,131.804245 247.402794,131.137777 246.591309,130.765383 C245.775276,130.388947 244.864756,130.355598 244.028512,130.666853 C243.190247,130.977602 242.523779,131.596068 242.151385,132.407553 L240.99277,134.930433 Z M247.435132,139.417853 C247.331043,139.417853 247.22746,139.396126 247.131962,139.351661 L239.722994,135.949589 C239.547155,135.869249 239.411234,135.722211 239.344031,135.540815 C239.276829,135.359923 239.284408,135.158821 239.364748,134.983487 L240.827543,131.799698 C241.362638,130.634514 242.320149,129.747237 243.522218,129.301577 C244.726308,128.854907 246.029939,128.905941 247.194112,129.440025 C248.364348,129.976636 249.251625,130.934147 249.697285,132.136216 C250.142945,133.339296 250.093932,134.642926 249.558837,135.808615 L248.097053,138.99291 C248.016207,139.169254 247.86917,139.305175 247.688279,139.372378 C247.606928,139.402695 247.520525,139.417853 247.435132,139.417853 L247.435132,139.417853 Z" id="Fill-95" fill="#0D76BD" mask="url(#mask-4)"></path>
                    <path d="M226.607024,173.664587 C226.605032,173.82173 226.708615,173.892975 226.77026,173.921271 C226.832915,173.950072 226.954183,173.9814 227.071409,173.877816 L232.041375,169.514696 L226.677288,167.05144 L226.607024,173.664587 Z M226.893549,175.406298 C226.646971,175.406298 226.399382,175.353244 226.162404,175.245113 C225.531811,174.95508 225.144258,174.344193 225.150745,173.649428 L225.233188,165.913542 C225.23622,165.667469 225.363046,165.438576 225.571728,165.306192 C225.78041,165.174313 226.041136,165.157133 226.264977,165.259705 L233.669397,168.659251 C233.893238,168.762834 234.049875,168.972527 234.085751,169.216073 C234.121626,169.46063 234.030675,169.706198 233.845741,169.868394 L228.031952,174.97226 C227.705034,175.25825 227.302828,175.406298 226.893549,175.406298 L226.893549,175.406298 Z" id="Fill-96" fill="#0D76BD" mask="url(#mask-4)"></path>
                    <path d="M229.662804,168.349462 C229.560232,168.349462 229.457154,168.328745 229.359634,168.28327 C228.993304,168.115011 228.833129,167.682993 229.000883,167.317674 L243.067463,136.684372 C243.235217,136.317536 243.673298,136.159383 244.032554,136.326126 C244.398379,136.49388 244.558554,136.926402 244.3908,137.291217 L230.324725,167.924519 C230.202447,168.192319 229.937678,168.349462 229.662804,168.349462" id="Fill-97" fill="#0D76BD" mask="url(#mask-4)"></path>
                    <path d="M23.3452984,146.311584 C12.7131285,146.311584 4.06368994,154.961022 4.06368994,165.592182 C4.06368994,176.229405 12.7131285,184.883391 23.3452984,184.883391 C26.2628039,184.883391 29.0671259,184.24825 31.6809561,182.994137 C32.9517434,182.386281 34.1492647,181.638462 35.2411818,180.77089 C36.5933198,179.716364 37.8009467,178.476399 38.8372826,177.080807 C40.8988383,174.298717 42.1701309,171.022966 42.5142288,167.607251 C42.5900213,166.930172 42.6269069,166.274314 42.6269069,165.592182 C42.6269069,165.027275 42.5986111,164.464895 42.5425246,163.919189 C42.384371,161.987491 41.9387112,160.123501 41.2151456,158.365116 C38.2562069,151.04053 31.2428755,146.311584 23.3452984,146.311584 M23.3452984,186.340122 C11.9102334,186.340122 2.60746364,177.0323 2.60746364,165.592182 C2.60746364,154.158127 11.9102334,144.855358 23.3452984,144.855358 C31.839615,144.855358 39.3834938,149.943055 42.5637465,157.814862 C43.3428933,159.709169 43.8234177,161.719186 43.9921823,163.785289 C44.052311,164.365354 44.0831332,164.977757 44.0831332,165.592182 C44.0831332,166.328885 44.0437211,167.038302 43.9618653,167.761868 C43.5919979,171.429719 42.2252068,174.95508 40.0075186,177.948378 C38.8923585,179.45008 37.5917594,180.784028 36.1421018,181.914852 C34.9693394,182.847099 33.678846,183.653026 32.3095284,184.307873 C29.4986378,185.656474 26.4815915,186.340122 23.3452984,186.340122" id="Fill-98" fill="#0D76BD" mask="url(#mask-4)"></path>
                    <path d="M23.347168,153.702109 C16.7901074,153.702109 11.4558322,159.037395 11.4558322,165.594456 C11.4558322,172.157074 16.7901074,177.495897 23.347168,177.495897 C29.9042286,177.495897 35.2385038,172.157074 35.2385038,165.594456 C35.2385038,159.037395 29.9042286,153.702109 23.347168,153.702109 M23.347168,178.952123 C15.9872123,178.952123 9.99960588,172.959969 9.99960588,165.594456 C9.99960588,158.233995 15.9872123,152.245883 23.347168,152.245883 C30.7071237,152.245883 36.6947301,158.233995 36.6947301,165.594456 C36.6947301,172.959969 30.7071237,178.952123 23.347168,178.952123" id="Fill-99" fill="#0D76BD" mask="url(#mask-4)"></path>
                    <path d="M23.347168,161.088845 C20.8631956,161.088845 18.8425679,163.109978 18.8425679,165.594456 C18.8425679,168.082976 20.8631956,170.108151 23.347168,170.108151 C25.8311404,170.108151 27.8517681,168.082976 27.8517681,165.594456 C27.8517681,163.109978 25.8311404,161.088845 23.347168,161.088845 M23.347168,171.564377 C20.0603005,171.564377 17.3863416,168.885871 17.3863416,165.594456 C17.3863416,162.307083 20.0603005,159.632619 23.347168,159.632619 C26.6340355,159.632619 29.3079944,162.307083 29.3079944,165.594456 C29.3079944,168.885871 26.6340355,171.564377 23.347168,171.564377" id="Fill-100" fill="#0D76BD" mask="url(#mask-4)"></path>
                    <path d="M23.347168,166.327167 C23.1602132,166.327167 22.9747742,166.255922 22.8322844,166.113937 L2.75232835,146.033981 C2.46785388,145.749507 2.46785388,145.288689 2.75232835,145.004214 C3.03680281,144.71974 3.49762113,144.71974 3.78209559,145.004214 L23.8620516,165.08417 C24.1465261,165.368645 24.1465261,165.829463 23.8620516,166.113937 C23.7195617,166.255922 23.5341228,166.327167 23.347168,166.327167" id="Fill-101" fill="#0D76BD" mask="url(#mask-4)"></path>
                    <path d="M2.17964032,148.609764 L5.74643472,152.176558 L8.2647664,151.614178 L4.697972,148.047383 L2.17964032,148.609764 Z M5.51400443,153.702008 C5.32351265,153.702008 5.13756842,153.627226 4.99912081,153.488779 L0.213077943,148.702736 C0.0256178603,148.51477 -0.0456270767,148.239896 0.029154843,147.984728 C0.10343148,147.730066 0.310092325,147.534521 0.569807912,147.476919 L4.77174335,146.539113 C5.01175289,146.488079 5.26843677,146.557808 5.44478063,146.735163 L10.2308235,151.521206 C10.4187889,151.709171 10.4900338,151.984045 10.4147466,152.239213 C10.3409752,152.494381 10.1343144,152.689421 9.87459881,152.747528 L5.67266337,153.684829 C5.62011391,153.69645 5.56705917,153.702008 5.51400443,153.702008 L5.51400443,153.702008 Z" id="Fill-102" fill="#0D76BD" mask="url(#mask-4)"></path>
                    <path d="M5.72844664,147.017919 L9.29423047,150.584714 L9.85661072,148.065372 L6.29082689,144.498577 L5.72844664,147.017919 Z M9.71614198,152.764506 C9.5256502,152.764506 9.33970597,152.689724 9.20125836,152.551276 L4.41521549,147.765233 C4.23887164,147.588889 4.16510029,147.334732 4.2191656,147.091691 L5.15747658,142.888745 C5.21659471,142.629029 5.41062348,142.422368 5.66579152,142.348597 C5.916412,142.271794 6.19482307,142.343544 6.383799,142.53252 L11.1698419,147.318563 C11.3461857,147.494907 11.4199571,147.749064 11.3658918,147.9916 L10.4270755,152.194546 C10.3684626,152.454262 10.1739286,152.660923 9.91926584,152.735199 C9.85256846,152.754905 9.78435522,152.764506 9.71614198,152.764506 L9.71614198,152.764506 Z" id="Fill-103" fill="#0D76BD" mask="url(#mask-4)"></path>
                    <path d="M170.275905,123.535184 L172.576965,123.535184 L172.576965,106.263592 L170.275905,106.263592 L170.275905,123.535184 Z M173.305078,124.99141 L169.547792,124.99141 C169.146092,124.99141 168.819679,124.664997 168.819679,124.263297 L168.819679,105.534974 C168.819679,105.133274 169.146092,104.806861 169.547792,104.806861 L173.305078,104.806861 C173.707283,104.806861 174.033191,105.133274 174.033191,105.534974 L174.033191,124.263297 C174.033191,124.664997 173.707283,124.99141 173.305078,124.99141 L173.305078,124.99141 Z" id="Fill-104" fill="#0D76BD" mask="url(#mask-4)"></path>
                    <path d="M170.276006,104.807063 L191.201806,104.807063 L186.093393,96.5583137 C185.948376,96.3243676 185.948376,96.0277663 186.093393,95.7923043 L191.202817,87.5354709 L170.276006,87.5354709 L170.276006,104.807063 Z M192.508974,106.263289 L169.547893,106.263289 C169.145687,106.263289 168.81978,105.937381 168.81978,105.535176 L168.81978,86.8073577 C168.81978,86.4051523 169.145687,86.0792446 169.547893,86.0792446 L192.508974,86.0792446 C192.773742,86.0792446 193.016278,86.2222397 193.145631,86.4526489 C193.273467,86.6840686 193.267909,86.9655114 193.128451,87.1903624 L187.56882,96.175309 L193.128451,105.152171 C193.267909,105.377022 193.274478,105.658465 193.145631,105.889885 C193.016278,106.120294 192.773742,106.263289 192.508974,106.263289 L192.508974,106.263289 Z" id="Fill-105" fill="#0D76BD" mask="url(#mask-4)"></path>
                    <path d="M214.414367,95.1202271 L229.621876,111.764257 L244.828881,95.1202271 L214.414367,95.1202271 Z M229.621876,113.572161 C229.417237,113.572161 229.222703,113.486262 229.084255,113.335183 L212.224974,94.8832493 C212.030946,94.6700197 211.979407,94.3628075 212.096127,94.0980391 C212.212848,93.8347865 212.474584,93.6640008 212.762596,93.6640008 L246.480652,93.6640008 C246.768663,93.6640008 247.0304,93.8347865 247.14712,94.0980391 C247.263335,94.3628075 247.212302,94.6700197 247.017768,94.8832493 L230.159498,113.335183 C230.02105,113.486262 229.827021,113.572161 229.621876,113.572161 L229.621876,113.572161 Z" id="Fill-106" fill="#0D76BD" mask="url(#mask-4)"></path>
                    <path d="M223.528615,95.1202271 L229.622331,110.830494 L235.714531,95.1202271 L223.528615,95.1202271 Z M229.622331,113.572161 C229.321688,113.572161 229.052372,113.387227 228.94323,113.107805 L221.785893,94.6558718 C221.698985,94.4310208 221.728291,94.1788844 221.863707,93.9808134 C221.999123,93.7822371 222.224984,93.6640008 222.464994,93.6640008 L236.778658,93.6640008 C237.018162,93.6640008 237.244024,93.7822371 237.379439,93.9808134 C237.515361,94.1788844 237.544667,94.4310208 237.457253,94.6558718 L230.300926,113.107805 C230.191785,113.387227 229.922469,113.572161 229.622331,113.572161 L229.622331,113.572161 Z" id="Fill-107" fill="#0D76BD" mask="url(#mask-4)"></path>
                    <path d="M213.973507,93.6648598 L245.267719,93.6648598 L242.163764,87.9041255 L217.078473,87.9041255 L213.973507,93.6648598 Z M246.486968,95.1210861 L212.754259,95.1210861 C212.49808,95.1210861 212.260092,94.9866807 212.129223,94.7663772 C211.99785,94.546579 211.991786,94.2737261 212.113559,94.0478645 L216.002724,86.8309039 C216.129551,86.5949367 216.376129,86.4478992 216.643424,86.4478992 L242.598813,86.4478992 C242.866108,86.4478992 243.112686,86.5949367 243.240018,86.8309039 L247.128172,94.0478645 C247.24944,94.2737261 247.243882,94.546579 247.112003,94.7663772 C246.981135,94.9866807 246.743146,95.1210861 246.486968,95.1210861 L246.486968,95.1210861 Z" id="Fill-108" fill="#0D76BD" mask="url(#mask-4)"></path>
                    <path d="M222.464792,95.1202271 C222.252573,95.1202271 222.04187,95.027255 221.897864,94.84889 L216.075485,87.6384981 C215.823349,87.3257278 215.872361,86.8679412 216.185637,86.6147943 C216.497397,86.3636685 216.955183,86.4106599 217.209341,86.7244408 L223.03172,93.9348326 C223.283856,94.2481082 223.234844,94.7058948 222.921568,94.9590417 C222.787163,95.0671724 222.625977,95.1202271 222.464792,95.1202271" id="Fill-109" fill="#0D76BD" mask="url(#mask-4)"></path>
                    <path d="M236.778405,95.1202271 C236.593471,95.1202271 236.408538,95.0499927 236.266553,94.909524 L229.50081,88.2150263 L222.986194,94.9004289 C222.707277,95.1874298 222.244943,95.1960196 221.956426,94.9135662 C221.668415,94.633134 221.662857,94.1723157 221.943289,93.883799 L228.969758,86.6734071 C229.105174,86.533949 229.290107,86.4556301 229.484641,86.4536089 C229.670586,86.4460297 229.865625,86.5283909 230.003062,86.6638068 L237.290257,93.8741986 C237.576753,94.1571572 237.578774,94.6184808 237.29632,94.9039659 C237.15383,95.0479716 236.96637,95.1202271 236.778405,95.1202271" id="Fill-110" fill="#0D76BD" mask="url(#mask-4)"></path>
                    <path d="M236.778405,95.1202271 C236.61722,95.1202271 236.456034,95.0671724 236.321629,94.9590417 C236.008353,94.7058948 235.959341,94.2481082 236.211477,93.9348326 L242.033856,86.7244408 C242.287003,86.4116704 242.7458,86.3641738 243.05756,86.6147943 C243.370835,86.8679412 243.419848,87.3257278 243.167712,87.6384981 L237.345333,94.84889 C237.201327,95.027255 236.990624,95.1202271 236.778405,95.1202271" id="Fill-111" fill="#0D76BD" mask="url(#mask-4)"></path>
                    <path d="M229.102496,80.6634167 C228.70029,80.6634167 228.374383,80.3370037 228.374383,79.9353035 L228.374383,76.9849547 C228.374383,76.5827492 228.70029,76.2568415 229.102496,76.2568415 C229.504701,76.2568415 229.830609,76.5827492 229.830609,76.9849547 L229.830609,79.9353035 C229.830609,80.3370037 229.504701,80.6634167 229.102496,80.6634167" id="Fill-112" fill="#0D76BD" mask="url(#mask-4)"></path>
                    <path d="M221.851378,83.6679824 C221.664423,83.6679824 221.478984,83.5967375 221.336494,83.4547529 L219.249675,81.3679331 C218.9652,81.0834586 218.9652,80.6226403 219.249675,80.3381659 C219.534149,80.0536914 219.994967,80.0536914 220.279442,80.3381659 L222.366262,82.4249856 C222.650736,82.7094601 222.650736,83.1702784 222.366262,83.4547529 C222.223772,83.5967375 222.038333,83.6679824 221.851378,83.6679824" id="Fill-113" fill="#0D76BD" mask="url(#mask-4)"></path>
                    <path d="M236.354624,83.6679824 C236.167669,83.6679824 235.98223,83.5967375 235.83974,83.4547529 C235.555266,83.1702784 235.555266,82.7094601 235.83974,82.4249856 L237.92656,80.3381659 C238.211035,80.0536914 238.671853,80.0536914 238.956327,80.3381659 C239.240802,80.6226403 239.240802,81.0834586 238.956327,81.3679331 L236.869508,83.4547529 C236.727018,83.5967375 236.541579,83.6679824 236.354624,83.6679824" id="Fill-114" fill="#0D76BD" mask="url(#mask-4)"></path>
                    <path d="M46.3549878,88.1107864 C46.4762557,88.1107864 46.5985343,88.1411034 46.708686,88.2017374 C47.4009241,88.5867632 48.1441957,88.8929648 48.9208161,89.1137736 C49.1643626,89.184008 49.3548544,89.3755103 49.422057,89.621078 L49.8783278,91.2728489 L53.6755314,91.2632485 L54.1237176,89.6089512 C54.190415,89.3633835 54.3798962,89.1708706 54.6244533,89.0996257 C55.387431,88.8788169 56.1301973,88.568573 56.8305199,88.1769785 C57.0543604,88.0531841 57.3246869,88.0531841 57.5465063,88.1789996 L59.0360813,89.0258543 L61.7145877,86.3352211 L60.8601538,84.8491831 C60.7333277,84.6273637 60.7313065,84.3555213 60.8556062,84.1326914 C61.2401268,83.4394428 61.5468337,82.6961712 61.7666319,81.9225825 C61.8358557,81.6780254 62.0283686,81.4870284 62.2739363,81.4198257 L63.9262125,80.9640602 L63.9171174,77.1658461 L62.2633253,76.7181651 C62.0167471,76.651973 61.8227183,76.4614812 61.7534945,76.2159136 C61.533191,75.4478831 61.2234524,74.7066325 60.8318579,74.0103522 C60.7065477,73.7875223 60.7065477,73.5156799 60.8328685,73.2938606 L61.6792179,71.803275 L58.9885846,69.1247686 L57.5000202,69.9812237 C57.2761797,70.1090603 57.0043374,70.1100709 56.782518,69.9857712 C56.0847219,69.5961978 55.3429661,69.2899962 54.5779672,69.0747455 C54.331389,69.0065323 54.1398867,68.8140194 54.072684,68.5674412 L53.6164132,66.9146597 L49.8192097,66.9252706 L49.3710234,68.5785574 C49.304326,68.8241251 49.1138343,69.0176485 48.8692772,69.0878829 C48.1098364,69.3061653 47.3695965,69.6159039 46.6677581,70.0105301 C46.4449282,70.1348298 46.1740964,70.1353351 45.9512664,70.008509 L44.4586597,69.1601384 L41.7801533,71.8507717 L42.6345872,73.3363044 C42.7619186,73.5581237 42.7634345,73.8304714 42.6391348,74.0543119 C42.2485508,74.7546345 41.9423492,75.4979061 41.7291197,76.2634102 C41.6598959,76.5089779 41.467383,76.7009855 41.2208047,76.7686935 L39.5685285,77.2244589 L39.5781289,81.0216625 L41.2324262,81.470354 C41.4779939,81.5365461 41.6705068,81.7260273 41.7412465,81.9700791 C41.9660975,82.7461942 42.2763414,83.48795 42.6628831,84.1751352 C42.7881933,84.3979651 42.7881933,84.6703128 42.6618725,84.8921321 L41.8155231,86.3822124 L44.5061564,89.0607189 L45.9926997,88.2072955 C46.1048725,88.1431245 46.2296775,88.1107864 46.3549878,88.1107864 L46.3549878,88.1107864 Z M49.3235268,92.7300858 C48.9966085,92.7300858 48.7080918,92.5107929 48.6216884,92.1954961 L48.1249949,90.3946666 C47.5181498,90.1996273 46.9305054,89.9565861 46.3681251,89.6705957 L44.7486923,90.6003169 C44.466239,90.7655445 44.1069826,90.7170373 43.8730365,90.4851123 L40.3941614,87.0224063 C40.1617311,86.7909866 40.1127186,86.4327407 40.2749145,86.1472557 L41.1965511,84.5232754 C40.9080344,83.9649374 40.6624668,83.3777983 40.4643957,82.7709531 L38.6600293,82.2818389 C38.3432167,82.196446 38.1234185,81.9094452 38.1224079,81.5810111 L38.1112882,76.6716791 C38.1102811,76.3437503 38.3290687,76.0557388 38.6458813,75.9683248 L40.445195,75.4726419 C40.6377079,74.8683232 40.8807491,74.2796682 41.1707817,73.7127404 L40.2405552,72.0943182 C40.0773488,71.8088332 40.1238348,71.4505873 40.3562651,71.2171465 L43.8199817,67.7377661 C44.0519067,67.5053358 44.4096473,67.4573339 44.6956376,67.6185192 L46.3206285,68.5426823 C46.887051,68.2506286 47.4726743,68.0050609 48.0709296,67.8100216 L48.5595385,66.0076763 C48.6449314,65.6908637 48.9319323,65.4710655 49.2598611,65.4700549 L54.1691931,65.4574228 L54.1712142,65.4574228 C54.499143,65.4574228 54.7866492,65.6767157 54.8730526,65.9925178 L55.3697461,67.792842 C55.9715384,67.9853549 56.5596881,68.2278908 57.1245948,68.5169128 L58.7450381,67.5851705 C59.0310284,67.4219641 59.388769,67.4694607 59.6217045,67.7008804 L63.1005797,71.1630812 C63.33301,71.3945009 63.3820224,71.753252 63.2198265,72.0382318 L62.2981899,73.6617068 C62.5902436,74.2256029 62.8358112,74.8142579 63.0313559,75.4185766 L64.8337012,75.9056697 C65.1515243,75.9910626 65.3713225,76.2785687 65.3723331,76.6064975 L65.3834528,81.5158295 C65.3844599,81.8437583 65.1656723,82.1317698 64.8488597,82.2191838 L63.0475249,82.7168878 C62.8529909,83.3227224 62.6104549,83.9108721 62.3239593,84.472747 L63.2541858,86.0911693 C63.4173923,86.3766543 63.3709062,86.7349001 63.1384759,86.968341 L59.6752646,90.4477214 C59.4428343,90.6791411 59.0850937,90.7286589 58.7991034,90.5674735 L57.1756284,89.6438157 C56.6107217,89.9348589 56.0245931,90.1804265 55.4248219,90.3769817 L54.9352025,92.1808429 C54.8498096,92.4976555 54.5628087,92.7174537 54.2348799,92.7184643 L49.3255479,92.7300858 L49.3235268,92.7300858 Z" id="Fill-115" fill="#0D76BD" mask="url(#mask-4)"></path>
                    <path d="M51.7459557,73.9128326 L51.7338289,73.9128326 C50.3493528,73.9158643 49.0502696,74.4580332 48.075073,75.4382827 C47.099371,76.4195427 46.5637708,77.7211524 46.5662883,79.1046179 C46.5693289,80.489094 47.1114978,81.7886825 48.0917473,82.765395 C49.0694704,83.7390758 50.3665325,84.274676 51.7439346,84.274676 L51.7580825,84.274676 C53.1435692,84.2721496 54.4431577,83.7294754 55.4198702,82.7482153 C56.3955721,81.7669553 56.9311723,80.4643351 56.9281534,79.0808696 C56.921572,76.229051 54.5977743,73.9128326 51.7459557,73.9128326 L51.7459557,73.9128326 Z M51.7439346,85.7309023 C49.9779697,85.7309023 48.3165984,85.0447277 47.0640012,83.7976886 C45.8078671,82.546102 45.1141132,80.8811938 45.1100573,79.1086602 C45.1065339,77.3356213 45.791698,75.6676813 47.042274,74.4115471 C48.29285,73.155413 49.9567478,72.4601433 51.7297866,72.4566063 L51.7459557,72.4566063 C55.4001641,72.4566063 58.3762824,75.4231242 58.3848858,79.0773326 C58.3884092,80.8503715 57.7027398,82.5188167 56.4521638,83.7749509 C55.2015878,85.0320956 53.5361742,85.7273653 51.7621248,85.7309023 L51.7439346,85.7309023 Z" id="Fill-116" fill="#0D76BD" mask="url(#mask-4)"></path>
                    <path d="M113.914591,38.6526521 L117.95332,38.6526521 L117.95332,33.193572 L113.914591,33.193572 L113.914591,38.6526521 Z M118.681938,40.1088784 L113.186478,40.1088784 C112.784272,40.1088784 112.458365,39.7824655 112.458365,39.3807653 L112.458365,32.4654588 C112.458365,32.0632534 112.784272,31.7368404 113.186478,31.7368404 L118.681938,31.7368404 C119.083639,31.7368404 119.410051,32.0632534 119.410051,32.4654588 L119.410051,39.3807653 C119.410051,39.7824655 119.083639,40.1088784 118.681938,40.1088784 L118.681938,40.1088784 Z" id="Fill-117" fill="#0D76BD" mask="url(#mask-4)"></path>
                    <path d="M122.979372,38.6526521 L127.017596,38.6526521 L127.017596,28.9592984 L122.979372,28.9592984 L122.979372,38.6526521 Z M127.745709,40.1088784 L122.251259,40.1088784 C121.849559,40.1088784 121.523146,39.7824655 121.523146,39.3807653 L121.523146,28.2311853 C121.523146,27.8289798 121.849559,27.5025668 122.251259,27.5025668 L127.745709,27.5025668 C128.147409,27.5025668 128.473822,27.8289798 128.473822,28.2311853 L128.473822,39.3807653 C128.473822,39.7824655 128.147409,40.1088784 127.745709,40.1088784 L127.745709,40.1088784 Z" id="Fill-118" fill="#0D76BD" mask="url(#mask-4)"></path>
                    <path d="M132.044154,38.6526521 L136.082377,38.6526521 L136.082377,22.1506067 L132.044154,22.1506067 L132.044154,38.6526521 Z M136.81049,40.1088784 L131.316041,40.1088784 C130.91434,40.1088784 130.587927,39.7824655 130.587927,39.3807653 L130.587927,21.4224936 C130.587927,21.0207934 130.91434,20.6943804 131.316041,20.6943804 L136.81049,20.6943804 C137.212696,20.6943804 137.538604,21.0207934 137.538604,21.4224936 L137.538604,39.3807653 C137.538604,39.7824655 137.212696,40.1088784 136.81049,40.1088784 L136.81049,40.1088784 Z" id="Fill-119" fill="#0D76BD" mask="url(#mask-4)"></path>
                </g>
            </g>
        </g>
    </g>
</svg>