<svg width="401" height="374" viewBox="0 0 401 374" fill="none" xmlns="http://www.w3.org/2000/svg">
<circle cx="244.5" cy="217.5" r="155.5" stroke="#C7B299" stroke-width="2"/>
<path fill-rule="evenodd" clip-rule="evenodd" d="M98.4418 194.801C102.663 194.801 108.186 196.383 111.574 198.559L126.876 208.382C130.883 210.957 135.984 216.51 138.216 220.721L176.511 293.109C178.09 296.095 182.06 299.215 185.335 300.046L211.13 306.58C215.075 307.578 218.664 304.018 217.705 300.058L215.339 290.29C214.082 285.106 214.983 276.944 217.336 272.154L228.84 248.768C231.038 244.293 236.356 238.572 240.653 236.047L305.075 198.245C306.645 197.331 308.567 194.567 308.89 192.78L313.601 166.675C314.2 163.362 313.228 158.312 311.444 155.46L302.433 141.041C299.832 136.88 297.701 129.456 297.701 124.549V100.085C297.701 96.6412 295.05 92.8707 291.809 91.7089L276.557 86.2439C274.2 85.4008 269.912 84.6878 267.185 84.6878L266.825 84.692L219.334 86.0006C215.469 86.0971 209.744 85.3086 206.118 84.1803L161.218 70.2389C154.091 68.0244 148.262 60.1016 148.262 52.6276L148.266 8.54276C148.266 5.02805 145.393 2.09213 141.888 2.01664L82.8178 0.75C82.2316 0.75 81.7207 1.24072 81.6955 1.80693L76.8672 124.641C76.6327 130.547 71.6453 135.349 65.745 135.349H6.38986C1.56574 135.349 -0.837947 141.204 2.58751 144.601L21.6621 163.521C24.8321 166.667 28.7684 172.639 30.4058 176.796L37.3781 194.487C38.6135 197.616 42.0724 201.428 45.0624 202.959L61.6579 211.44C64.7776 213.033 68.7684 211.855 70.523 208.823L72.3321 205.698C75.5356 200.162 83.3831 195.414 89.7692 195.15L97.7592 194.818C97.977 194.806 98.2031 194.801 98.4376 194.801H98.4418Z" fill="#D0D0D0"/>
<path fill-rule="evenodd" clip-rule="evenodd" d="M232 229.512L227.907 233.927L227.402 234.437C227.145 234.708 226.962 234.882 226.854 235.012L226.844 235.001L225.716 236.184L224.674 237.562L223.353 238.549C223.32 238.582 222.214 239.417 221.118 240.242C220.044 241.066 218.97 241.88 218.905 241.923L214.888 245.981L214.34 250.581L211.622 252.957C211.611 252.968 211.332 253.25 211.042 253.543L210.44 254.161L207.1 258.642L207.035 258.729C206.971 258.805 206.896 258.892 206.799 259L203.598 250.169L203.458 249.8L195.53 243.702L195.358 243.583C195.09 243.355 194.66 243.019 193.951 242.466L177 229.24L183.993 207.357L187.581 195L232 229.512Z" fill="#001335"/>
<path fill-rule="evenodd" clip-rule="evenodd" d="M272 254.878L270.134 256.124C270.123 256.124 269.475 256.59 268.472 257.305L260.273 263.092C260.24 263.114 257.489 264.956 254.447 266.993L246.949 272L245.546 270.591L245.762 270.201H245.158L244.845 269.887V266.321L242.731 270.201H242.644V269.811H241.177L239.451 268.185L238.76 268.89L238.016 268.175L237.25 268.424L237.024 267.969L236.042 266.885H234.477L233.981 266.473L235.125 265.227L232.74 264.078C232.654 264.035 232.503 263.959 232.233 263.818L231.942 263.666L231.338 263.601V261.748H230.248V261.412L229.633 260.827L229.385 260.318L229.137 259.993V259.592L228.339 258.811L229.008 258.074H226.602V256.243H225.393L223.797 254.531L223.408 254.953L222.88 254.412H222.578L222.416 254.184L222.491 254.021L222.556 253.415L222.955 253.046V251.496L222.567 251.15V250.846L222.222 250.467V249.676L220.495 249.08L220.301 248.896C220.237 248.831 220.15 248.733 220.01 248.603L219.622 248.202H219.298V247.465H218.176L217.82 247.086H217L217.032 246.847L220.247 243.607L224.595 240.323L224.746 240.215C224.951 240.063 225.307 239.792 225.944 239.326L227.335 237.625L228.403 236.531C228.436 236.487 228.76 236.162 229.04 235.88C229.223 235.696 229.353 235.566 229.439 235.469H229.45C229.482 235.447 229.482 235.447 232.093 232.629C233.248 231.405 233.906 230.689 234.294 230.245L234.305 230.256L234.618 229.92C234.672 229.877 235.912 228.62 237.239 227.287L239.526 225L272 254.878Z" fill="#001335"/>
<path fill-rule="evenodd" clip-rule="evenodd" d="M264 181.982L258.261 195.908L258.207 196.125C257.873 196.756 257.227 198.158 255.719 201.398C255.709 201.42 255.709 201.441 254.072 205.746L253.975 205.986L240.332 220.14L240.203 220.282C239.955 220.51 239.578 220.89 238.889 221.586L233.538 227L188 191.635L191.855 184.189C191.898 184.102 194.364 179.449 194.385 179.416L194.493 179.199L194.536 174.122H193.147L197.67 162L197.95 162.283L198.563 163.577H200.351L201.105 162.772L201.331 162.413C201.374 162.457 201.406 162.479 201.406 162.479L203.28 163.479L204.335 162.479L204.863 161.554L205.067 161.359C205.099 161.315 205.164 161.25 205.293 161.13L205.552 161L208.771 162.924L208.836 162.989L208.728 163.218L208.642 165.207L208.351 165.783L208.254 168.001H210.107L211.022 167.621H211.474L211.733 167.751L211.948 167.969L212.292 168.186V168.316L213.132 169.154L214.101 169.817V173.872H215.2V175.665L215.792 176.274L216.115 176.883C216.169 177.003 216.244 177.177 216.373 177.448L216.966 178.622L218.355 179.525L218.419 179.568C218.646 179.764 219.033 180.068 219.755 180.623L220.767 181.134L221.93 181.514L223.233 181.579L223.459 181.808C223.674 182.036 223.954 182.319 223.965 182.33L224.762 183.058H227.238L228.423 181.949V181.155L228.66 180.884L229.586 180.481H230.146L230.921 179.764C230.932 179.742 231.018 179.644 231.136 179.525L231.405 179.383H233.128L234.184 178.275L234.98 177.535V176.807H235.594L236.154 176.6L236.359 176.807H237.769L239.826 175.872C239.944 175.807 240.128 175.72 240.418 175.578L240.72 175.35H242.992V174.97H243.347V174.198L244.973 174.23L245.21 174.35L245.544 174.665L246.125 175.002L246.147 176.448H248.634L249.905 177.09L251.294 175.709H251.681L251.735 175.655L252.651 176.274L253.555 176.72C253.706 176.807 253.921 176.927 254.266 177.09L255.31 177.427L256.096 177.818C256.236 177.894 256.43 177.992 256.678 178.122C256.689 178.122 257.012 178.285 257.238 178.405L257.593 178.579L258.433 178.644L258.702 178.786L260.414 180.481H262.492L262.686 180.851L263.235 181.525L264 181.982Z" fill="#001335"/>
<mask id="mask0_5_555" style="mask-type:luminance" maskUnits="userSpaceOnUse" x="242" y="184" width="59" height="69">
<path fill-rule="evenodd" clip-rule="evenodd" d="M242 184H301V253H242V184Z" fill="white"/>
</mask>
<g mask="url(#mask0_5_555)">
<path fill-rule="evenodd" clip-rule="evenodd" d="M301 222.16L293.02 232.192L292.901 232.408C292.351 232.967 291.251 234.248 288.685 237.241C288.652 237.284 286.377 239.921 284.166 242.505C282.031 244.98 279.939 247.413 279.928 247.424L279.842 247.542C279.367 248.016 278.138 249.319 274.665 253L242 223.139L242.787 222.354C242.82 222.321 242.82 222.321 256.72 208.08L258.823 202.902L258.877 202.719C259.201 202.117 259.848 200.728 261.358 197.499C261.358 197.488 261.584 196.95 262.199 195.486L266.976 184L269.564 185.324H269.575L282.505 191.944L282.613 191.998C282.883 192.17 283.347 192.45 284.263 192.988L284.436 193.064C285.094 193.613 286.754 194.84 291.1 198.026L292.718 198.521L294.713 200.254L297.884 211.46C297.884 211.503 297.884 211.503 300.763 221.32L301 222.16Z" fill="#001335"/>
</g>
<path fill-rule="evenodd" clip-rule="evenodd" d="M217 126.716L204.656 141.68L196.495 159.107L196.419 159.097L188.738 179.224L192.224 178.02V178.514L190.339 182L169.072 176.019L168.734 168.101L166.893 166.229H165.193L163.352 167.337H163.188L163.036 167.187L162.916 166.982L163.592 166.261V164.519L163.156 163.475L162.785 162.346L162.132 161.334V160.108L161.75 159.721V157.86H160.683L160.214 157.289L163.232 157.257V153.137H162.84L162.317 152.631L162.491 152.438V152.104L162.807 151.803H163.799L164.474 150.523L166.729 148.253L165.433 146.994V146.22H162.818L162.437 145.865H160.966L160.606 145.499H160.323L160.639 145.155V143.003L160.279 142.637L160.443 142.487L161.402 141.97L161.772 141.271L162.11 141.11L162.415 140.884H163.232L164.725 140.163L165.433 140.131V137.904L165.073 137.549V137.215L164.354 136.452L163.014 135.709L161.652 135.688L161.031 134.537V133.88L160.258 133.17C160.214 133.117 160.149 133.052 160.029 132.923L159.528 132.396H159.125L158.743 132.041H157.654L157.501 131.89L157.599 131.675L158.275 128.502H160.018L161.391 126.501V124.801L159.855 123.295H157.556L157.349 122.886L157.708 122.714L158.405 121.391L158.449 119.669L157.774 119.056L157 117.776L157.643 117.217L209.068 114L217 126.716Z" fill="#001335"/>
<path fill-rule="evenodd" clip-rule="evenodd" d="M284.46 175.948L284.557 176.035L269.615 182L268.319 181.207L266.774 180.446C266.73 180.425 266.028 180.077 265.607 179.86L265.531 179.827L265.196 179.219L264.191 178.089H261.987L260.907 177.024L259.643 176.296L258.843 176.263L256.812 175.253L255.797 174.927L254.468 174.264L253.571 173.677L252.858 172.971H251.367L251.021 173.319H250.697L249.919 174.047C249.909 174.058 249.876 174.09 249.844 174.134L248.936 174.068L248.569 173.319L247.596 172.808L247.294 172.536L246.149 171.885L244.226 171.841L242.929 171.222L242.27 171.841H241.103V172.58H240.747V172.971H240.055L239.472 173.558L237.83 174.373L237.495 174.058H236.479L235.561 174.416H233.811L232.709 175.622V176.665C232.644 176.73 232.514 176.861 232.384 177.002H231.347L230.17 177.48L229.478 178.089L228.592 178.48H226.485V180.012L226.14 180.392V180.631C225.945 180.392 225.675 180.153 225.502 180.001L224.746 179.186H222.909L222.142 178.947L221.602 178.686L220.208 177.61C220.176 177.589 219.679 177.263 219.344 177.045L219.171 176.709C219.149 176.643 218.793 175.905 218.793 175.905C218.782 175.894 218.393 175.144 218.393 175.144L218.188 174.872V172.341L217.097 171.808V168.929L216.211 168.103L215.271 167.452V166.832L213.985 166.202L213.78 166.006L212.527 165.278L211.619 165.246V164.311L212.127 163.29L211.479 161.954L210.82 161.182L206.93 158.814L206.617 158.629H205.418L204.24 159.107L203.138 160.107L202.997 160.302C202.933 160.226 202.868 160.161 202.868 160.15L202.176 159.4L200.826 160.107H199.94L199.799 160.378L199.259 159.846L199 159.781L206.12 144.265L206.649 143.081L218.858 128L238.348 131.825L269.345 143.928L273.202 145.547L285 175.611L284.46 175.948Z" fill="#001335"/>
</svg>
